<svg viewBox="0 0 330 200" xmlns="http://www.w3.org/2000/svg"><g><g><g><g><g><line x1="51.5625" y1="177" x2="46.5625" y2="177" style="visibility: inherit;" fill="rgb(0, 0, 0)" stroke="rgb(204, 204, 204)" stroke-width="1px"></line><line x1="51.5625" y1="160.9090909090909" x2="46.5625" y2="160.9090909090909" style="visibility: inherit;" fill="rgb(0, 0, 0)" stroke="rgb(204, 204, 204)" stroke-width="1px"></line><line x1="51.5625" y1="144.8181818181818" x2="46.5625" y2="144.8181818181818" style="visibility: inherit;" fill="rgb(0, 0, 0)" stroke="rgb(204, 204, 204)" stroke-width="1px"></line><line x1="51.5625" y1="128.72727272727272" x2="46.5625" y2="128.72727272727272" style="visibility: inherit;" fill="rgb(0, 0, 0)" stroke="rgb(204, 204, 204)" stroke-width="1px"></line><line x1="51.5625" y1="112.63636363636364" x2="46.5625" y2="112.63636363636364" style="visibility: inherit;" fill="rgb(0, 0, 0)" stroke="rgb(204, 204, 204)" stroke-width="1px"></line><line x1="51.5625" y1="96.54545454545453" x2="46.5625" y2="96.54545454545453" style="visibility: inherit;" fill="rgb(0, 0, 0)" stroke="rgb(204, 204, 204)" stroke-width="1px"></line><line x1="51.5625" y1="80.45454545454547" x2="46.5625" y2="80.45454545454547" style="visibility: inherit;" fill="rgb(0, 0, 0)" stroke="rgb(204, 204, 204)" stroke-width="1px"></line><line x1="51.5625" y1="64.36363636363636" x2="46.5625" y2="64.36363636363636" style="visibility: inherit;" fill="rgb(0, 0, 0)" stroke="rgb(204, 204, 204)" stroke-width="1px"></line><line x1="51.5625" y1="48.272727272727266" x2="46.5625" y2="48.272727272727266" style="visibility: inherit;" fill="rgb(0, 0, 0)" stroke="rgb(204, 204, 204)" stroke-width="1px"></line><line x1="51.5625" y1="32.18181818181817" x2="46.5625" y2="32.18181818181817" style="visibility: inherit;" fill="rgb(0, 0, 0)" stroke="rgb(204, 204, 204)" stroke-width="1px"></line><line x1="51.5625" y1="16.090909090909097" x2="46.5625" y2="16.090909090909097" style="visibility: inherit;" fill="rgb(0, 0, 0)" stroke="rgb(204, 204, 204)" stroke-width="1px"></line><line x1="51.5625" y1="0" x2="46.5625" y2="0" style="visibility: inherit;" fill="rgb(0, 0, 0)" stroke="rgb(204, 204, 204)" stroke-width="1px"></line></g><g transform="translate(41.5625, 0)"><text x="0" y="177" dx="0em" dy="0.3em" style="text-anchor: end; visibility: hidden; font-family: Roboto, sans-serif; font-size: 12px; font-weight: 200;" fill="rgb(33, 33, 33)" stroke="none" stroke-width="1px">-250</text><text x="0" y="160.9090909090909" dx="0em" dy="0.3em" style="text-anchor: end; visibility: inherit; font-family: Roboto, sans-serif; font-size: 12px; font-weight: 200;" fill="rgb(33, 33, 33)" stroke="none" stroke-width="1px">-200</text><text x="0" y="144.8181818181818" dx="0em" dy="0.3em" style="text-anchor: end; visibility: hidden; font-family: Roboto, sans-serif; font-size: 12px; font-weight: 200;" fill="rgb(33, 33, 33)" stroke="none" stroke-width="1px">-150</text><text x="0" y="128.72727272727272" dx="0em" dy="0.3em" style="text-anchor: end; visibility: inherit; font-family: Roboto, sans-serif; font-size: 12px; font-weight: 200;" fill="rgb(33, 33, 33)" stroke="none" stroke-width="1px">-100</text><text x="0" y="112.63636363636364" dx="0em" dy="0.3em" style="text-anchor: end; visibility: hidden; font-family: Roboto, sans-serif; font-size: 12px; font-weight: 200;" fill="rgb(33, 33, 33)" stroke="none" stroke-width="1px">-50</text><text x="0" y="96.54545454545453" dx="0em" dy="0.3em" style="text-anchor: end; visibility: inherit; font-family: Roboto, sans-serif; font-size: 12px; font-weight: 200;" fill="rgb(33, 33, 33)" stroke="none" stroke-width="1px">0</text><text x="0" y="80.45454545454547" dx="0em" dy="0.3em" style="text-anchor: end; visibility: hidden; font-family: Roboto, sans-serif; font-size: 12px; font-weight: 200;" fill="rgb(33, 33, 33)" stroke="none" stroke-width="1px">50</text><text x="0" y="64.36363636363636" dx="0em" dy="0.3em" style="text-anchor: end; visibility: inherit; font-family: Roboto, sans-serif; font-size: 12px; font-weight: 200;" fill="rgb(33, 33, 33)" stroke="none" stroke-width="1px">100</text><text x="0" y="48.272727272727266" dx="0em" dy="0.3em" style="text-anchor: end; visibility: hidden; font-family: Roboto, sans-serif; font-size: 12px; font-weight: 200;" fill="rgb(33, 33, 33)" stroke="none" stroke-width="1px">150</text><text x="0" y="32.18181818181817" dx="0em" dy="0.3em" style="text-anchor: end; visibility: inherit; font-family: Roboto, sans-serif; font-size: 12px; font-weight: 200;" fill="rgb(33, 33, 33)" stroke="none" stroke-width="1px">200</text><text x="0" y="16.090909090909097" dx="0em" dy="0.3em" style="text-anchor: end; visibility: hidden; font-family: Roboto, sans-serif; font-size: 12px; font-weight: 200;" fill="rgb(33, 33, 33)" stroke="none" stroke-width="1px">250</text><text x="0" y="0" dx="0em" dy="0.3em" style="text-anchor: end; visibility: hidden; font-family: Roboto, sans-serif; font-size: 12px; font-weight: 200;" fill="rgb(33, 33, 33)" stroke="none" stroke-width="1px">300</text></g><line x1="51.5625" y1="0" x2="51.5625" y2="177" fill="rgb(0, 0, 0)" stroke="rgb(204, 204, 204)" stroke-width="1px"></line></g></g><g transform="translate(51, 0)" clip-path="url(#clip_0)"><clipPath id="clip_0"><rect width="278" height="177"></rect></clipPath><g><g><g><line x1="0" y1="0" x2="0" y2="177" fill="rgb(0, 0, 0)" stroke="rgb(66, 66, 66)" stroke-width="1px" opacity="0.25"></line><line x1="23.203125" y1="0" x2="23.203125" y2="177" fill="rgb(0, 0, 0)" stroke="rgb(66, 66, 66)" stroke-width="1px" opacity="0.25"></line><line x1="46.40625" y1="0" x2="46.40625" y2="177" fill="rgb(0, 0, 0)" stroke="rgb(66, 66, 66)" stroke-width="1px" opacity="0.25"></line><line x1="69.609375" y1="0" x2="69.609375" y2="177" fill="rgb(0, 0, 0)" stroke="rgb(66, 66, 66)" stroke-width="1px" opacity="0.25"></line><line x1="92.8125" y1="0" x2="92.8125" y2="177" fill="rgb(0, 0, 0)" stroke="rgb(66, 66, 66)" stroke-width="1px" opacity="0.25"></line><line x1="116.015625" y1="0" x2="116.015625" y2="177" fill="rgb(0, 0, 0)" stroke="rgb(66, 66, 66)" stroke-width="1px" opacity="0.25"></line><line x1="139.21875" y1="0" x2="139.21875" y2="177" fill="rgb(0, 0, 0)" stroke="rgb(66, 66, 66)" stroke-width="1px" opacity="0.25"></line><line x1="162.421875" y1="0" x2="162.421875" y2="177" fill="rgb(0, 0, 0)" stroke="rgb(66, 66, 66)" stroke-width="1px" opacity="0.25"></line><line x1="185.625" y1="0" x2="185.625" y2="177" fill="rgb(0, 0, 0)" stroke="rgb(66, 66, 66)" stroke-width="1px" opacity="0.25"></line><line x1="208.828125" y1="0" x2="208.828125" y2="177" fill="rgb(0, 0, 0)" stroke="rgb(66, 66, 66)" stroke-width="1px" opacity="0.25"></line><line x1="232.03125" y1="0" x2="232.03125" y2="177" fill="rgb(0, 0, 0)" stroke="rgb(66, 66, 66)" stroke-width="1px" opacity="0.25"></line><line x1="255.234375" y1="0" x2="255.234375" y2="177" fill="rgb(0, 0, 0)" stroke="rgb(66, 66, 66)" stroke-width="1px" opacity="0.25"></line><line x1="278.4375" y1="0" x2="278.4375" y2="177" fill="rgb(0, 0, 0)" stroke="rgb(66, 66, 66)" stroke-width="1px" opacity="0.25"></line></g><g><line x1="0" y1="177" x2="278.4375" y2="177" fill="rgb(0, 0, 0)" stroke="rgb(66, 66, 66)" stroke-width="1px" opacity="0.25"></line><line x1="0" y1="160.9090909090909" x2="278.4375" y2="160.9090909090909" fill="rgb(0, 0, 0)" stroke="rgb(66, 66, 66)" stroke-width="1px" opacity="0.25"></line><line x1="0" y1="144.8181818181818" x2="278.4375" y2="144.8181818181818" fill="rgb(0, 0, 0)" stroke="rgb(66, 66, 66)" stroke-width="1px" opacity="0.25"></line><line x1="0" y1="128.72727272727272" x2="278.4375" y2="128.72727272727272" fill="rgb(0, 0, 0)" stroke="rgb(66, 66, 66)" stroke-width="1px" opacity="0.25"></line><line x1="0" y1="112.63636363636364" x2="278.4375" y2="112.63636363636364" fill="rgb(0, 0, 0)" stroke="rgb(66, 66, 66)" stroke-width="1px" opacity="0.25"></line><line x1="0" y1="96.54545454545453" x2="278.4375" y2="96.54545454545453" fill="rgb(0, 0, 0)" stroke="rgb(66, 66, 66)" stroke-width="1px" opacity="0.25"></line><line x1="0" y1="80.45454545454547" x2="278.4375" y2="80.45454545454547" fill="rgb(0, 0, 0)" stroke="rgb(66, 66, 66)" stroke-width="1px" opacity="0.25"></line><line x1="0" y1="64.36363636363636" x2="278.4375" y2="64.36363636363636" fill="rgb(0, 0, 0)" stroke="rgb(66, 66, 66)" stroke-width="1px" opacity="0.25"></line><line x1="0" y1="48.272727272727266" x2="278.4375" y2="48.272727272727266" fill="rgb(0, 0, 0)" stroke="rgb(66, 66, 66)" stroke-width="1px" opacity="0.25"></line><line x1="0" y1="32.18181818181817" x2="278.4375" y2="32.18181818181817" fill="rgb(0, 0, 0)" stroke="rgb(66, 66, 66)" stroke-width="1px" opacity="0.25"></line><line x1="0" y1="16.090909090909097" x2="278.4375" y2="16.090909090909097" fill="rgb(0, 0, 0)" stroke="rgb(66, 66, 66)" stroke-width="1px" opacity="0.25"></line><line x1="0" y1="0" x2="278.4375" y2="0" fill="rgb(0, 0, 0)" stroke="rgb(66, 66, 66)" stroke-width="1px" opacity="0.25"></line></g></g></g><g><g><line x1="0" y1="96.54545454545453" x2="278.4375" y2="96.54545454545453" fill="rgb(0, 0, 0)" stroke="rgb(153, 153, 153)" stroke-width="1.5px"></line></g></g><g><g><line x1="23.203125" y1="0" x2="23.203125" y2="177" fill="rgb(0, 0, 0)" stroke="rgb(153, 153, 153)" stroke-width="1.5px"></line></g></g><g><g><g><g><g><path stroke="rgb(255, 112, 67)" stroke-width="2px" d="M23.272038281249998,117.59697268399326L23.39501484375,139.00807867314828L23.463232031249998,138.4753005404058L23.633426953125,149.46402479893618L23.65488984375,166.94847745678854L23.6908546875,165.87030087112387L23.708605078125,153.65738054199636L23.773341796875002,156.57248816087903L23.912792578125,144.9166301345188L24.070341796875,142.29966551401705L24.094821093750003,136.1471864959984L24.146796093749998,135.68804087283996L24.401102343749997,140.26082227869531L24.485677734375,157.03670085352599L24.52361484375,155.1269419866296L24.53150390625,152.21379521037363L24.603781640625,158.38605338649035L24.723741796875,156.53614724209297L24.8551875,154.30341764664558L24.96633046875,154.42225156419235L25.02016171875,153.55670990054188L25.052878125,153.03367763072563L25.14313828125,153.2666306645179L25.151607421875,150.04220078703253L25.269363281249998,151.69397859100224L25.320758203125,149.8714512797656L25.34082890625,147.5997711907755L25.352778515625,146.13886637001207L25.388859375000003,148.1679865614788L25.47540703125,149.4399210196402L25.55499375,156.13631155488935L25.567755468749997,156.65793946675004L25.629707812499998,154.21579725422617L25.735978125,151.62094616970043L25.801758984375002,155.05693499694743L25.84572890625,151.54659154195835L25.879489453125,164.13036184933094L25.996433203125,167.97682894833187L26.064650390625,164.74036788742697L26.118945703125,161.3376271232444L26.182522265625,158.16199532965L26.226028125,151.24486100988972L26.245402734375,150.11734586407965L26.43091171875,152.29520467768563L26.481958593749997,150.43393963920323L26.49170390625,148.3587249901266L26.537878125000002,145.87704181870308L26.583820312500002,150.79847565176848L26.604703125,148.85535859740057L26.6905546875,159.02637831156807L26.699487890625,156.3984417306817L26.762020312500002,162.69016938528517L26.8112109375,164.33014154869625L26.895090234375,159.7114400002864L26.98500234375,163.59042186718102L27.159141796874998,156.69844417737286L27.199051171875002,161.35694972573125L27.308453906249998,165.4928851392275L27.323419921875,161.44583342066912L27.756390234375,157.71100030233322L27.76393125,155.19593007110169L27.787714453125,153.2852250587373L27.847578515625,151.01150205798567L27.935750390625003,148.19432656777025L27.952920703125002,154.66140996042768L27.9611578125,153.36884086220283L27.988653515625,153.89329933504476L28.0558265625,152.98081789412046L28.16000859375,158.98292357914394L28.197945703125,156.4094491970222L28.208619140625,160.99906521927016L28.318601953125,164.50143328697746L28.487984765624997,159.81811274422714L28.509331640625,160.35344196955003L28.650406640625,162.6361717153353L28.697857031250003,159.80862475617096L28.721988281250002,157.53210820027434L28.752384375,153.9846547985282L28.831274999999998,152.19074957949238L28.89415546875,150.8561287129685L28.914922265625002,144.7548201217894L28.941953906250003,146.8257362624015L29.00274609375,146.52029362928775L29.055997265625,154.28895225308685L29.178045703124997,161.15400152732877L29.249743359375,166.74832880323294L29.312159765625,160.6071187745211L29.362278515625,164.48208969347755L29.448246093749997,162.51802231611L29.485371093749997,158.91994459005835L29.499989062500003,155.82171121562834L29.519247656250002,156.56329800810764L29.546627343750004,159.88775505366124L29.561709375,160.58285530944067L29.63062265625,157.2094346494628L29.642572265625,164.66264441443295L29.7375890625,160.74766399263885L29.819380078125,159.09081243384384L29.839102734375,161.16462076321145L29.913352734375,158.19724221297048L29.97681328125,156.6008058643821L30.004308984375,153.98320398818203L30.178332421875,151.60097628752004L30.284486718750003,156.63801743104938L30.29933671875,159.472494552857L30.3250921875,159.58192474007936L30.355372265625,162.51661818191832L30.367437890625002,159.30898091617922L30.402474609375002,156.5807298748066L30.559559765625,153.70170092165546L30.605037890625,151.68814516061536L30.676039453125,151.653798748491L30.71838515625,148.2533140863713L30.753537890624997,147.01842657482533L30.823959375,145.75138537804014L30.835212890625,145.41714119954284L30.902966015625,148.14104647319994L30.966078515625,148.12162616895552L31.1441625,147.10106017652737L31.194165234375,150.02516068125973L31.234886718749998,147.67160869802626L31.35229453125,147.9760049099409L31.42747265625,146.85949812206516L31.4713265625,151.0452226555939L31.48872890625,148.70424754943315L31.508335546875003,147.15929942862164L31.615650000000002,143.50007134237526L31.70544609375,140.28702598721097L31.735030078125,136.88244092683001L31.75278046875,136.63575376852108L31.81032421875,136.40027896925199L31.857890625,134.02803800663392L31.909981640625002,134.51368185358112L31.925411718750002,138.82392861332852L31.990264453125,136.3957995031985L32.137140234375,135.74483309656603L32.194916015625004,135.26389933675287L32.204197265625,135.73735971357058L32.2212515625,136.83598080548634L32.251415625,138.17162885755747L32.267541796875,137.84070224958063L32.3576859375,134.9544210001761L32.41406953125,140.74849897443002L32.429267578125,144.24209717037968L32.469757031250005,142.18660978427513L32.489131640625004,139.75329241713527L32.52498046875,140.3883575041024L32.5349578125,139.37490870344465L32.548531640625,137.77409951183347L32.5600171875,137.7197478112665L32.5989984375,135.86769119240958L32.656658203125,136.70321066235041L32.72963203125,137.4990446576681L32.741813671875,134.33490596828483L32.752719140625,134.31053271373557L32.842167187499996,134.54603023380858L33.079767187499996,133.76905731563915L33.14868046875,132.66465444174744L33.181048828125,133.32859796278285L33.247177734375,133.36973914641794L33.585015234375,133.71059605835273L33.616803515625,135.2617583780561L33.70137890625,134.77795181940317L33.7173890625,132.80570127909598L33.776325,133.62796346639823L33.81159375,131.10655676111088L34.031443359375,133.97429173107994L34.12460390625,129.974170339365L34.189688671875004,130.58361235739213L34.28795390625,128.83185248645844L34.326123046875,128.751569843921L34.426940625,128.74072098427166L34.454204296875,128.7397780875487L34.493185546875,129.87801809795207L34.535879296875,129.65468004495085L34.699461328125,128.8728643426118L34.719300000000004,128.53689530929617L34.74876796875,128.21419102357996L34.88334609375,126.92831863881095L34.927780078125004,126.83455933270209L35.080224609374994,125.89076854176395L35.161899609375,126.06757926304797L35.213874609375,123.59512801649984L35.231741015625,121.66110576160237L35.36411484375,119.2745984687327L35.382561328125,117.25000243456459L35.479202343749996,119.03937975816406L35.514819140625,115.95966632888981L35.527580859375,117.14194714211808L35.583732421875006,115.71575687087683L35.606935546875,116.653307094088L35.67155625,115.41261280697051L35.691046875000005,115.94558192228997L35.823420703124995,118.6046415147966L35.877832031249994,117.31233447632204L35.902079296875,117.92697428430014L35.93177929687501,118.90970294047266L35.94326484375,117.51094040367708L36.09408515625,117.07394629832504L36.13190625,116.8157373095124L36.27646171875,116.5189368459453L36.302565234374995,115.97224424899001L36.4080234375,114.24032332294225L36.476124609375,114.61113777177003L36.6252046875,114.79401985329515L37.07232890625,114.88433837900249L37.21572421875,115.15349812750786L37.247396484374995,116.24884759626207L37.273151953124994,116.48003958285938L37.360627734375,117.0567878122708L37.53082265625,116.00368019468165L37.56469921875,117.16975095995844L37.790465625,117.64377141819132L37.89093515625,122.47231144689582L38.00695078125,119.34265924691155L38.28817265625,117.03420985392357L38.58842109375001,113.56602583573013L38.740053515625,112.44782089538809L38.7543234375,113.05127511322436L39.157709765625,114.97745814200633L39.4230375,115.93436224964358L40.004623828125,115.78323566017788L40.096508203125,115.17296492004968L40.973934375,115.2366271141833L41.08995,114.67497024754633L41.4129375,113.7151621834302L41.5094625,123.19119729604235L41.625478125,119.29139420489386L43.201318359375,116.71661090676932L43.732321875,111.40097184962482L44.54443125,109.61040849855134L44.660446875,110.08367700678428L45.356540625,107.12648747251755L45.588571875,104.71344350316146L46.16865,102.82079242063415L46.40068125,102.12866875055798L49.18505625,102.16230561876107L49.394464453124996,100.73642966661615L49.626495703125,99.42567074007827L50.548703906250005,98.25655546770508L50.89675078125,98.5024247875612L51.82487578125,98.08085458252408L52.17292265625,98.73748268108653L52.52096953125,99.38102529023779L54.02917265625,100.6829917718699L54.84128203125,102.27528392201218L55.53737578125,103.73121813884921L56.23346953125,106.56736779964186L56.34948515625,108.10759289906736L57.04557890625,109.75865809841332L58.20573515625,111.80530403368478L58.78581328125,113.37208997414861L58.90182890625,113.83896009355627L59.249875781250005,114.80142986789436L59.94596953125,114.2498654680289L60.17800078125,114.49071840500775L60.52604765625,116.23915308417443L60.87409453125,116.5414581279303L61.22214140625,118.1913533418619L61.338157031250006,118.85987938601687L63.42643828125,118.88357918600717L65.12954765625,120.59741822647028L66.86978203125,117.48144193137219L67.21782890624999,116.23439219083181L67.33384453125,114.21535673382758L67.56587578125,114.11171783751107L67.68189140625,114.07951111598805L70.069144921875,115.9372871564344L70.185160546875,114.83950288666055L70.765238671875,112.38903336533018L71.113285546875,111.92507623185539L71.577348046875,113.38456419055736L71.80937929687501,111.27343625664305L72.26636484375,109.75229393651942L72.73042734375,108.91618765962059L73.19448984374999,110.64486069996664L76.06402031249999,112.5340209867264L76.1800359375,114.050011371852L77.4469265625,110.35313071529028L78.36379804687499,107.58144830407798L78.479813671875,103.35149720341701L78.827860546875,104.85246453879508L79.059891796875,106.42251362269094L79.175907421875,107.25746053520776L80.1292078125,99.35137130874594L80.9413171875,97.74850483202937L82.68155156249999,101.392289577764L82.7975671875,97.76242997978406L83.1456140625,98.46360678577186L85.11300703125,91.5145977473754L85.647258984375,87.4161013154777L85.763274609375,86.38554449397739L85.9299890625,89.8126269672427L86.73200507812501,86.51314269209368L87.45605859375,82.32767147930286L87.57207421874999,81.67259775039555L88.40460234375,76.78278627302988L88.77747656250001,81.58881879740491L88.965537890625,85.69325243613041L89.37170859375,90.97664916628345L90.336146484375,91.5820461753481L91.08433125,93.25583982524716L91.20034687500001,95.0396879882747L91.698633984375,98.81996993990226L92.46004453125,100.0845689139851L93.445133203125,100.42303632408085L93.561148828125,102.38597959968726L93.99655546874999,103.28651073947773L94.467462890625,104.02803817879679L94.694157421875,103.14731849475888L94.85333085937499,97.59112681473874L95.099516015625,92.30065522435149L95.391875390625,92.05935175670649L95.756628515625,84.52728214000686L96.4321875,81.68195731567681L97.10380195312499,78.62410378880993L97.452196875,75.34416314758874L97.72599375,73.00622313176893L97.81950234375,70.84417773676056L98.343196875,65.6732208672926L98.3998125,61.13382326620341L99.061217578125,60.21260527951559L99.44012460937499,66.91179421722897L99.55567617187499,64.93185943828396L99.61449609374999,61.064251408606836L99.80128125,67.08264790914798L100.046422265625,63.39288062411475L100.628588671875,60.40429505693143L100.721633203125,59.743754053879435L101.34196874999999,56.66705978696361L101.39649609375,53.51727732844215L102.143288671875,52.263096059997785L102.46940859374999,51.970523467381355L102.64343203124999,51.949157108635944L102.84460312499999,56.78169669662959L103.2107484375,54.93637980462112L103.262607421875,60.642417217003484L103.4594859375,58.59030824399365L103.550326171875,58.69521170969993L103.592787890625,62.815188960312256L104.00974804687499,60.89335721749035L105.28847226562499,66.14063166419834L105.95857851562499,63.621160280781886L106.2447890625,61.32462299915256L106.65235195312499,65.7935891615259L106.709663671875,61.6555621434557L107.12395546875,59.376436307417116L107.491608984375,65.82272421187604L108.322396875,63.02300181732197L108.97104023437501,60.66530835001183L109.09308867187501,56.171061844511705L109.554598828125,62.098063571603944L110.5299421875,58.64548663727292L110.62716328125,57.61400171921769L110.94365390624999,61.513639746330526L111.395302734375,65.70494832987507L111.714809765625,63.15398448887531L112.874966015625,66.16811789132278L113.10235664062499,64.5808853785355L113.507947265625,60.90900689039786L113.5760484375,58.82963249641312L113.69206406250001,61.98308965692805L114.8596453125,58.92826706374946L116.475975,54.15318105783617L116.885858203125,50.03034774320133L117.46558828124999,55.682813524786624L118.120264453125,60.78419630555326L118.415176171875,64.72926648524796L118.620523828125,64.74724378819465L118.716584765625,60.50570463442845L119.13574921875,57.13491087109215L119.44005820312499,63.393586242112825L119.58809414062499,58.38030552095553L119.9169984375,57.64178792495904L120.175133203125,64.0160018312713L120.45461484375,58.92438471366261L121.30582148437499,64.9167796940009L121.53263203124999,65.761037435161L122.558790234375,70.43346076628535L122.674805859375,74.3069188687617L122.723300390625,69.59443074498034L123.847955859375,69.6125687002009L124.18985390625,75.34782847474536L124.590571875,78.57224318697429L124.98943359375,73.2728635227069L125.081433984375,71.1024311771168L125.225409375,64.28370320167252L125.318337890625,59.91613844846636L125.48273203125,58.297277763576254L126.14587734375,59.02470912112973L126.35458945312499,59.25096755832653L126.62989453125,63.612830036558144L126.812387109375,68.31885225723425L127.056251953125,71.61108410370292L127.22899921875,68.07588684833974L127.38828867187499,63.139949122867485L127.525303125,59.92213081580533L128.512016015625,64.92659689044152L128.869112109375,68.41290582620591L129.144301171875,64.59545543412598L129.1838625,58.94726235764343L129.211358203125,63.047888324901436L129.276675,66.84991756672439L129.342455859375,71.77097633120893L129.436892578125,74.66003068013538L129.5258765625,67.92852202463074L129.731804296875,62.90159995355972L129.92450625,59.77452337661638L130.130898046875,63.70723574943308L130.21431328125,58.37321593758459L130.58173476562501,53.693243586990214L130.79543554687498,54.603931751595525L131.215876171875,57.20871919264134L131.500346484375,52.86573153962367L131.905241015625,49.03993479723799L132.002578125,45.35662396244497L132.043995703125,43.19305904766799L132.633355078125,40.49335509658104L132.72477539062498,41.26955741484818L133.108323046875,47.03492056488862L133.31645507812502,47.08877443069647L133.51611796875,46.05601906626229L133.60475390624998,45.64394534678096L133.759170703125,42.33171208363163L133.80615703125,40.50335640760599L133.96428632812498,43.920592026777506L134.419763671875,47.39574819081006L134.463965625,44.26719511134198L135.05088867187501,45.60901470293551L135.1493859375,44.24648586891682L135.39313476562498,40.734079081119575L135.498244921875,38.58397233988884L135.5874609375,36.839517305607L135.870423046875,36.6168365988833L136.540761328125,35.915791821718685L136.650744140625,34.67034064691543L136.761423046875,32.87100841161397L136.81049765625,31.580376509106696L137.09334375,37.027606703349846L137.279548828125,36.87742540368691L137.71773984375,36.401062088615625L137.961024609375,34.099228656964634L138.64110820312501,32.17499934484594L138.85515703125,32.070780954439826L138.963399609375,32.469423772969584L139.18835390625,30.619288979568207L139.24218515625,29.5446462810077L139.346483203125,29.165074774799695L139.43175468750002,27.7275952625186L139.47305624999998,27.52256926787185L139.55716757812502,26.636597045119636L139.6647140625,26.3130312570672L139.72098164062498,25.89727071170492L140.10476132812502,26.035560658245732L140.30256796875,26.28232342065712L140.64771445312502,28.17908718066439L141.26805000000002,29.28602362750385L141.4448578125,28.18001037053296L141.59892656250003,27.51322756190651L142.141995703125,26.403451050944003L142.54062539062502,26.090143185617908L142.586915625,24.263591552381037L142.72218984375002,25.080321045158744L142.84864687500001,25.138552251855582L143.007704296875,24.53356950758267L143.04935390625,22.709076004533905L143.123719921875,24.230377493879885L143.616090234375,24.996397547559194L143.68778789062497,25.902139817394897L143.736514453125,24.50179965379283L143.83373554687498,24.811198321115075L144.49119609375,24.935550132624822L144.54433125,24.158795631502812L144.58772109375,22.98163223823001L144.642596484375,22.59624244080971L145.020111328125,20.91973392493364L145.440551953125,20.76143623046051L146.34837421875,21.39188339720939L147.03611484375,20.551863115016857L147.213734765625,20.9935053474383L147.26385351562502,20.382111150363137L147.35353359375,20.770419733036345L147.719330859375,20.643065797951827L147.79903359375,20.20073247920956L147.972012890625,20.508945716440405L148.41623671875,19.393722187498785L148.834705078125,19.256418844148396L148.90953515625,20.010310587330327L149.48682890625,21.496774393321203L149.83278750000002,20.99520124642518L150.16064765625,21.532561171054674L150.2267765625,21.865111364429477L150.35242148437501,22.44435044715824L150.43583671875,22.796166004471004L150.691651171875,22.39300436007858L151.617687890625,22.330092679175493L152.01237304687498,21.360225667561213L152.055646875,29.934024776885984L152.615886328125,28.668890923242998L152.709162890625,27.247959167344483L152.87170078125,27.345003310757424L152.94502265625,27.259661382558093L152.984816015625,26.230573140697885L153.575103515625,25.003568167048886L153.735669140625,24.79450072634278L154.034989453125,25.92348808712468L154.28581523437498,26.394915545724007L154.383268359375,26.094799002248905L154.46297109374999,25.235227072105708L154.56982148437498,23.270056160438454L155.066368359375,21.858263229719537L155.32844765625,21.042213845446085L155.544120703125,22.32840121889153L155.64284999999998,22.24138409782359L155.780096484375,21.910170648090947L156.227452734375,22.854196255179048L156.2688703125,23.672072067560656L156.71019375,24.335168324827137L156.8043984375,24.86257813363525L157.42624218749998,25.94599873713077L157.5422578125,29.57477696511336L157.58564765625002,29.24264884191079L157.62718125,29.55746461013005L157.793431640625,30.59292161813336L158.10006093750002,30.768279805330142L158.41214296874998,29.994520150880216L158.484652734375,30.25787561148912L158.679094921875,28.65620716322195L159.17517773437498,28.022962903420535L159.4235671875,27.785169981109387L159.57868007812502,28.023545228204405L159.740173828125,26.638780743336756L159.856189453125,30.629405959352866L160.15400156249999,28.719772237085902L160.276862109375,28.60047382419052L160.606114453125,27.432410478303776L160.74405703124998,26.033614776265292L160.90462265624998,24.76748503802977L161.130969140625,23.96115782939278L162.0988875,24.669184555220372L162.35110546875,24.99739813816159L162.455635546875,24.929074337196088L162.798577734375,28.973759436934873L163.0562484375,29.752125494861577L163.78250624999998,28.686899140332812L163.98031289062502,26.675777879753017L164.13693398437502,25.828691899195146L164.935121484375,27.937923059395498L165.546871875,25.78192060941296L165.59118984375,26.000833157180836L165.797581640625,27.173755220879464L166.070914453125,28.6986461338945L166.44390468749998,26.609431228646045L166.48497421875,26.970062565897713L166.52233125,25.884912352343296L166.56444492187498,25.78582981128952L166.60052578124998,24.78244557450094L166.640551171875,24.119575043262667L167.12456835937502,23.76940423493696L168.3697640625,23.1062566081851L168.413733984375,22.355463089589588L168.4542234375,21.2644190278341L168.8477484375,21.98529560372169L169.39383398437502,21.582515033495127L169.511821875,23.979115811195847L170.14596328125,25.440656997188327L170.188308984375,24.03754124864134L170.319290625,22.826457994471458L170.41836796875,22.838944080899672L170.477187890625,23.408673796122923L170.60538515624998,25.317964114708417L171.42352734375,24.058617426914772L171.6646078125,24.19034134983941L171.8479125,24.65107808333025L171.95395078125,24.13505873435891L172.356525,23.655757425797823L172.39423007812502,22.53537487613354L172.628117578125,22.219727816543095L172.722090234375,22.320064882633815L172.82928867187502,22.756320823347696L173.07152929687498,22.37868090354401L173.20645546875,21.878264667548628L173.52665859375,22.14356525379446L173.62329960937498,22.29820028336887L173.73595078125,21.396803439513498L173.91971953125,21.69259522746469L174.51905625,21.86282955126474L174.60049921875,21.615013523406564L174.63321562500002,21.374790680032525L174.70305703125,21.36580820793214L175.2666609375,20.7162202737689L175.80346523437498,21.504194096556233L176.181908203125,21.285043230490842L176.96512968750002,20.89910166822833L177.24693164062498,20.630493059466577L177.28486875000002,20.400920052459L177.40250859375,19.490018199468075L177.874228125,19.08119304023239L178.121457421875,18.27217298492187L178.288171875,18.32588661405309L178.504541015625,17.95815405394395L178.58934843749998,17.310681932462888L178.663714453125,16.763109727542243L178.73622421874998,15.776375331714512L178.815694921875,15.417133106604128L178.976492578125,15.94330245585582L179.0116453125,15.580800834648818L179.113623046875,15.094179463675053L179.4515765625,14.571243062495746L179.55506250000002,15.15383888786016L179.66434921875,15.514163550654407L180.01239609375,16.21336833095385L180.09233085937498,16.26754700356249L180.13166015625,16.241606961631295L180.16785703125,15.88201651138435L180.480983203125,16.5985925507866L181.076607421875,17.909731486847846L181.155730078125,18.27325387149936L181.24158164062501,19.53468867722052L181.31269921875,18.64331802061352L181.467580078125,22.729298626999434L181.95948632812502,22.67276479923379L182.1366421875,22.349799298980155L182.68713632812498,21.83157715938752L182.8517625,21.56161468659066L183.77362265625,21.598301173808718L184.37098710937502,20.748773308070266L184.419017578125,19.97134632238928L184.63167421875,18.876003826602762L184.6806328125,17.661640637656994L184.761495703125,17.76638947672331L184.87855546875002,16.8229765755265L185.063136328125,17.10602475426646L185.24122031250002,17.640871616885796L185.33936953125001,17.3694971571681L186.09903984375,17.81048793217393L186.40659726562498,17.498754024876295L186.57609609375,17.330571576712153L186.99932109374998,16.693454216182285L187.038186328125,15.92976160994936L187.3025859375,15.557282474877692L187.41454101562502,15.723441584234765L188.39278476562498,15.594699168642432L188.510540625,15.010309468619457L188.800927734375,15.716202585700145L188.911838671875,15.262500789710048L188.943394921875,15.109780296143871L189.031566796875,15.60624285990215L189.081453515625,15.511832443873773L189.355250390625,15.233677386631287L189.448758984375,15.81686097021158L189.884745703125,15.543411745083187L190.08104414062498,14.886235981396947L190.46807226562498,14.365518278143645L190.54348242187498,15.236676724765537L190.613323828125,14.99087413685041L190.778762109375,15.158983747424072L190.88654062499998,14.492962131603894L191.366729296875,13.927438279505315L191.44086328125002,13.614666103499015L191.689948828125,14.18487070231106L191.99646210937502,13.844028662708508L192.247751953125,14.750924993547912L192.295782421875,14.313240430982892L192.33952031249999,13.772550759555411L192.47746289062502,15.23472928289852L192.70856601562502,15.056888090670473L193.004173828125,14.985186156270496L193.41150468749998,14.47778072201774L193.5846,14.667449072046074L193.76210390625,15.36217219629124L193.83124921875,15.45747386704298L194.072213671875,15.133899969995992L194.17964414062502,16.6337335419994L194.26027499999998,16.226623737604132L194.334873046875,15.145405133818864L194.406338671875,16.092543897336853L194.50680820312502,16.887628224977092L194.711691796875,17.46996110005574L195.16357265625,17.757163201720072L195.374373046875,16.44894848510809L195.57264375,17.555676677923618L196.23474492187498,17.333961366088296L196.382548828125,17.6928356734825L196.49415585937498,17.038033179687147L196.671195703125,16.109556527423326L196.928982421875,16.42038026033441L197.082355078125,16.00123168298706L197.147555859375,16.23239225048381L197.3913046875,17.367524152477326L197.42634140625,16.511340451718233L197.639230078125,16.060780325669256L197.882398828125,15.027034440874012L198.1027125,14.931821003666931L198.2275453125,15.18022888299219L198.473150390625,14.467709989721369L198.8781609375,12.887768647176781L198.96146015625,12.062035583506697L199.207761328125,11.951147199605586L199.33062187500002,11.958906503082547L199.441996875,12.033411982035615L199.508241796875,12.422326343579934L199.687137890625,12.453203411592332L200.2935515625,12.835386599374859L200.35179140625,11.917798267917492L200.38033124999998,10.554674419241861L200.52071015625,10.217296205167473L200.55644296875,9.87500188183642L200.68986093750001,9.69795651099121L200.75622187500002,9.888290459723418L200.9478796875,9.21510604487675L201.0638953125,12.684836842755029L201.2880375,12.0197170722757L201.704881640625,11.967953678036418L201.87635273437502,11.434879829009416L202.43775234375,12.103318171126205L202.471512890625,10.992795363912405L202.67871679687502,11.176250219167095L202.711897265625,12.691103915401134L203.24023242187502,14.619472438988877L203.37678281249998,15.370557990389173L203.44848046875,14.473695273292725L203.520178125,13.846716581812165L203.622271875,14.624147889939545L203.747684765625,14.84208059351039L204.214995703125,14.187430395487477L204.41953124999998,14.94716653462746L204.51013945312502,15.082715597717456L204.934292578125,14.286929339570372L204.969561328125,14.499671672281467L205.17050039062502,13.65861145418329L205.428287109375,14.350401825766042L206.34817500000003,13.89017079735314L206.465698828125,14.54800348512937L206.572897265625,14.68965231097722L206.639258203125,14.45430412866323L207.34846171875,14.542385279184671L207.46169296875001,14.468675842841153L207.598939453125,15.01053226867776L207.636064453125,15.132827749529266L207.67284140625,14.981269583951343L207.9357328125,14.364792644421621L208.038406640625,13.874461584436146L208.10859609374998,14.343334648182703L208.495508203125,15.153213061360706L208.752830859375,14.137930701202958L208.939151953125,13.917891770375999L209.26828828125002,14.54982560747634L209.402982421875,12.847788076247545L209.47340390624998,13.420244309460847L209.5358203125,13.398396275664961L210.03422343749997,14.487829694418616L210.10058437499998,14.377841003208275L210.20175,14.416378169755346L210.61975429687502,12.815376122710573L210.75270820312502,12.629234218003456L210.98392734375,12.158131036570627L211.05075234375,12.674504689394402L211.37443593749998,11.279702885449609L211.43360390625,11.123266410381246L211.495440234375,11.002194374723077L211.98166171875002,10.75022532010765L212.18608125,10.161828059980742L212.54317734375002,10.004756804053695L212.71058789062502,10.223278465844713L213.02441015625,10.311784131999937L213.11652656249998,9.40180903800274L213.198317578125,10.00228799359964L213.883969921875,9.460820008559637L213.9165703125,10.881926406585077L213.944066015625,10.674768983211713L214.100919140625,10.925524884073788L214.17841757812502,11.484570057465039L214.41195703125,10.69877330784427L214.549667578125,10.075772264346748L214.84388320312502,10.807853204970836L215.05097109374998,11.26806460799562L215.0813671875,12.448514195225172L215.251330078125,12.409745356269061L215.660401171875,11.82478080266455L215.84556210937498,11.48324325196129L216.067616015625,11.323520849927476L216.18920039062502,11.064855826591339L216.717999609375,11.18044748669672L216.830998828125,11.939405712103769L217.029849609375,10.863826230426401L217.17637734375,11.392649140498108L217.35388125,10.604602887669882L217.530341015625,10.379903474258047L217.6615546875,9.726175899825828L217.68963046875,9.973081081505168L218.073294140625,9.766921449695186L218.1024140625,9.349535712307363L218.540025,9.437916425078777L218.600353125,10.429821174283415L218.631793359375,10.087734464791875L218.9595375,10.868283564144535L219.01418085937502,11.365310770807145L219.045273046875,11.605500158259444L219.0797296875,18.832968740123054L219.114650390625,18.85929075149781L219.25827773437499,18.65168847522054L219.33937265625,18.197291850044003L220.03500234375,18.34787798375408L220.138372265625,17.596646543022498L220.562061328125,16.425310662912374L220.71624609375002,14.619217823494361L220.74559804687502,14.673882883074969L220.80813046875,14.550580487878257L221.09840156250002,13.953582148119201L221.2478296875,14.219450212826091L221.455613671875,20.765884513248704L222.34788984375,20.008542399814473L222.56054648437498,19.098143848309572L222.8989640625,18.619670530706067L223.048044140625,17.92881308013014L223.34516015625,16.996918172374606L223.38077695312498,15.475078827615814L223.746226171875,14.939275068611332L223.772213671875,14.238242231716468L223.836718359375,14.231593595592056L223.916537109375,13.917848598159996L223.99890820312498,13.186158320641564L224.02744804687498,12.37715800038493L224.057148046875,11.562161499662855L224.122696875,11.10426860853002L224.7830578125,17.705189936597467L224.945827734375,17.865491643843264L225.12205546875,16.618705857255456L225.203382421875,14.633724631437573L225.29839921875,14.685374016105442L225.457688671875,14.887341389108718L225.80202304687498,15.324048928331692L226.0889296875,15.01785301987352L226.185338671875,14.222304828370913L226.216894921875,13.721158091316855L226.519115625,13.869861041063011L226.71611015625,13.328497190374673L227.34433476562498,13.708459139039636L227.55153867187502,13.536029446060734L227.675675390625,13.882886648271947L227.78438203125,12.878218455745895L227.995414453125,11.784804530315103L228.068504296875,11.3638372109395L228.3479859375,12.014159691572289L228.48662460937499,10.974368772352936L228.701253515625,10.969127884553004L228.85729453124998,11.349801322127545L229.056261328125,10.99430906056465L229.176685546875,11.631323344937847L229.33005820312502,10.968517714989526L229.56058124999998,10.391661388048457L229.69028671875,10.577325349563198L229.996451953125,10.406271242563225L230.083463671875,10.152050962012533L230.50935703125,10.933810709561266L230.735935546875,10.069435370361159L230.82491953125,10.547873075556925L230.92051640625,10.239507920433754L230.95845351562502,10.234669316556218L231.26206640625,10.740697113682552L231.29617499999998,10.926915643614018L231.32378671875,11.112673519948665L231.728565234375,11.711180165867495L231.912101953125,12.629498711558815L231.93727734375003,14.08624835878006L231.99412500000003,14.199042842748446L232.17615351562497,14.313319921666084L232.2057375,14.415277044711656L232.29321328125,14.34208552188111L232.476169921875,14.851801979680566L232.59160546875,14.884896381654814L232.82920546875002,15.250643890040296L233.147784375,14.978367359479092L233.342342578125,15.614207364697734L233.451861328125,14.986278366287248L233.54711015625,14.664885559399305L233.81487421875002,15.476370916478746L233.8758984375,14.63833761233973L234.29320664062502,15.00596584007506L234.428712890625,14.607412874009658L234.47071054687498,13.658467385170482L235.11993398437502,13.822962937358332L235.1474296875,14.47953724909125L235.25834062500002,13.357733798285457L235.51183476562503,12.167835351873089L235.577267578125,12.005645716499368L235.807210546875,12.33743774552414L235.86231796875,12.549039452150707L235.88958164062498,12.150416612670709L236.30456953125,11.582824852637653L236.37951562499998,11.370417544930714L236.41258007812502,12.09992222709426L236.700298828125,11.992364502564882L236.85761601562498,11.900203025674855L237.2255015625,11.71998253334352L237.322374609375,11.408967733933178L237.390591796875,11.000400800072859L237.45173203125,12.023954617104812L237.856278515625,12.352161214498546L238.40282812499998,11.811814266965598L238.582304296875,12.003096835075494L238.908076171875,13.156562367410462L239.13256640625002,12.847506222777016L239.357984765625,12.858881077683254L239.54743828125,12.07219122874838L239.61379921875002,12.341539391584655L239.74698515625002,12.582578273582095L239.963122265625,12.34389619085278L239.991662109375,12.132210340410992L240.024378515625,12.250419715194461L240.37393359375002,11.431711500555352L240.92106328125,11.3995447505797L241.07652421875,12.16705195376662L241.25530429687498,12.710686222057365L241.498241015625,11.724639023191475L241.52620078125,12.269590434593038L241.5997546875,12.13720507166464L241.69674375,13.189860235884868L242.1032625,13.633835421680274L242.25153046875002,12.53485977191281L242.44458046875002,11.81210273204396L242.568369140625,11.94585777422485L242.60352187499998,12.049991229534955L242.85887226562502,11.336190087982402L242.964910546875,11.023772156732123L243.00006328125,10.75435385330143L243.07152890625,10.91667511525467L243.17733515625002,10.72837504646713L243.205875,11.794555985534886L243.234066796875,12.386768011715079L243.2824453125,12.997987916864602L243.40611796875,13.095155811080135L243.4689984375,13.20603321314861L243.570976171875,13.13813034238418L243.604040625,12.953196131165999L243.644066015625,12.428017636879305L243.68339531249998,11.412499964100487L243.73560234375,19.3096973938795L243.82725468750002,19.31454730115347L243.87203671875,19.064744307210894L244.05534140625,18.93168271273803L244.261965234375,19.108737472248162L244.34665664062499,17.87388422173853L244.45872773437497,17.602210526793026L244.941120703125,16.764062205825354L245.17651640625002,16.754952202727726L245.20760859375,17.38434614261121L245.236496484375,17.323711424590325L245.54022539062498,16.137442205293567L245.79325546875,16.560417766813224L245.943495703125,15.693524888169893L246.188288671875,14.787271259660056L246.60698906250002,14.348457436028937L246.78402890625,14.130845162996017L246.8473734375,13.864262472202459L246.95051132812497,13.483507239941357L247.166068359375,14.054743338456982L247.34972109375,12.479311723671998L247.444969921875,12.088919741423757L247.504369921875,13.518707535236821L247.53581015625,13.631954615630939L247.93513593749998,13.001625226289072L248.340378515625,12.607364975277717L248.37089062500002,12.663466679099358L248.617191796875,12.072352854761863L249.03577617187497,11.76217101943661L249.14239453124998,10.773074572899526L249.243212109375,10.409066587378055L249.71237929687499,9.703696239009563L249.9714421875,9.905519486202365L250.22296406249998,11.372302936863038L250.26124921874998,11.141721319268685L250.36891171874998,11.677148744004652L250.434692578125,12.412101372267552L250.46694492187498,11.885027465509538L250.944465234375,11.839874949782416L251.1399515625,12.72560862679017L251.21930625,11.842685631431824L251.71979765625,11.369207246067413L251.94266367187498,11.02421184772132L252.164717578125,12.480203468679822L252.26391093750001,11.999923960989735L252.288854296875,12.879679600668487L252.39222421875002,13.168762155516395L252.491649609375,13.434366056375453L252.716255859375,13.449265776643438L252.915106640625,13.834450263543207L252.98007539062502,14.501321857061932L253.0082671875,12.828827921533284L253.04330390625,12.843700911073848L253.25259609375,12.068631074094647L253.418614453125,12.230476368451871L253.8472921875,12.932221234270031L254.440712109375,12.883989006750342L254.69014570312498,11.814411345199932L254.849551171875,11.51268350635646L254.88505195312501,11.553859158739261L255.08889140624999,10.994006784458021L255.219176953125,10.653489284723161" style="fill: none;" fill="none"></path></g></g></g></g><g opacity="0.2"><g><g><g><path stroke="rgb(255, 112, 67)" stroke-width="2px" d="M23.272038281249998,117.59697268399326L23.39501484375,158.27807406338778L23.463232031249998,137.5642499334162L23.633426953125,176.26552326549182L23.65488984375,221.06460687810727L23.6908546875,161.8965840287642L23.708605078125,102.15511691353538L23.773341796875002,170.25987429532137L23.912792578125,85.17109006014736L24.070341796875,127.87177534623581L24.094821093750003,100.08200641458684L24.146796093749998,132.85249311967328L24.401102343749997,169.79245813543147L24.485677734375,269.64177878639913L24.52361484375,141.8711363358931L24.53150390625,131.3935940135609L24.603781640625,203.6427898615057L24.723741796875,142.66360182328657L24.8551875,137.2249378967285L24.96633046875,155.347282520641L25.02016171875,146.71390186656606L25.052878125,148.84145416259767L25.14313828125,155.15674313631925L25.151607421875,123.5943449124423L25.269363281249998,165.37417086514557L25.320758203125,134.64625529896128L25.34082890625,128.47562638716263L25.352778515625,133.75528406316585L25.388859375000003,165.47432656028053L25.47540703125,160.34814339377664L25.55499375,213.8490166126598L25.567755468749997,161.17348014137963L25.629707812499998,132.99121631969106L25.735978125,128.988988161954L25.801758984375002,185.12075300736862L25.84572890625,120.74432464599609L25.879489453125,274.83286476828835L25.996433203125,201.89312938343397L26.064650390625,136.14374891801313L26.118945703125,131.21591537475587L26.182522265625,130.00375696355647L26.226028125,89.81880708867853L26.245402734375,140.09120228160512L26.43091171875,171.6847309736772L26.481958593749997,133.845004827326L26.49170390625,129.84480472911486L26.537878125000002,123.71733960238369L26.583820312500002,194.77824479536577L26.604703125,131.47857609141954L26.6905546875,250.0413642467152L26.699487890625,132.8689066522772L26.762020312500002,219.05306646173648L26.8112109375,179.0282755903764L26.895090234375,118.29930246526544L26.98500234375,198.38321144797587L27.159141796874998,94.85941123789007L27.199051171875002,203.1686658824574L27.308453906249998,202.6245468417081L27.323419921875,125.10317454944958L27.756390234375,124.16461757313122L27.76393125,132.6009744540128L27.787714453125,136.116691755815L27.847578515625,130.57778128884055L27.935750390625003,122.87296217484908L27.952920703125002,212.7965371981534L27.9611578125,141.74806307705967L27.988653515625,158.6089178466797L28.0558265625,144.7755434625799L28.16000859375,212.96008816805755L28.197945703125,133.26430460149592L28.208619140625,202.2797276167436L28.318601953125,196.00497037020597L28.487984765624997,117.6896201393821L28.509331640625,165.169204268022L28.650406640625,183.17229359019885L28.697857031250003,134.37011756203393L28.721988281250002,137.05028170498935L28.752384375,122.06714243108576L28.831274999999998,136.04995730313388L28.89415546875,138.84745672052557L28.914922265625002,89.85503962430087L28.941953906250003,165.4603167447177L29.00274609375,143.7717964033647L29.055997265625,224.19574418501423L29.249743359375,217.0907789195668L29.312159765625,105.34264581506902L29.362278515625,199.35318370472302L29.448246093749997,144.84307833584873L29.485371093749997,126.53998597578568L29.499989062500003,127.93973498257722L29.519247656250002,163.237121554288L29.546627343750004,189.80602228338068L29.561709375,166.8384102006392L29.63062265625,126.85016614046964L29.642572265625,231.73851495916193L29.7375890625,125.5142666348544L29.819380078125,144.17969171697442L29.839102734375,179.82828369140626L29.913352734375,131.49162343805486L29.97681328125,142.2332603593306L30.004308984375,130.42535027243875L30.178332421875,130.16138825850052L30.284486718750003,201.97050992098724L30.29933671875,184.98234408291904L30.3250921875,160.56678097811613L30.355372265625,188.928486328125L30.367437890625002,130.44061227971858L30.402474609375002,132.0267512512207L30.559559765625,127.79070698131214L30.605037890625,133.56631114612924L30.676039453125,151.3446836159446L30.71838515625,117.64918171275745L30.753537890624997,135.90451400756837L30.823959375,134.3480838983709L30.835212890625,142.40896004416726L30.902966015625,172.6560732754794L30.966078515625,147.94684420498933L31.1441625,137.9160028631037L31.194165234375,176.34197079745206L31.234886718749998,126.48970925071025L31.35229453125,150.71556285511366L31.42747265625,136.81096331509676L31.4713265625,188.71665477405895L31.48872890625,127.63551623257723L31.508335546875003,133.25479285500265L31.615650000000002,110.56707508433949L31.70544609375,111.36966245477849L31.735030078125,106.2412179773504L31.75278046875,134.4155721213601L31.81032421875,134.28100816206498L31.857890625,112.67789097872647L31.909981640625002,138.88447248979048L31.925411718750002,177.61611760919746L31.990264453125,114.54265365600587L32.137140234375,129.88613933216442L32.194916015625004,130.93549808848988L32.204197265625,139.99850081010297L32.2212515625,146.72356584028765L32.251415625,150.19245608243077L32.267541796875,134.86236394708806L32.3576859375,108.97789893410423L32.41406953125,192.89518415971236L32.429267578125,175.68447193492543L32.469757031250005,123.68722807450727L32.489131640625004,117.85344118985263L32.52498046875,146.10394209428267L32.5349578125,130.25387121027165L32.548531640625,123.36681922219016L32.5600171875,137.2305825805664L32.5989984375,119.19918390447442L32.656658203125,144.2228849653764L32.72963203125,144.66154982133347L32.741813671875,105.85766060569071L32.752719140625,134.09117344249378L32.842167187499996,136.66550774314186L33.079767187499996,126.7763015608354L33.14868046875,122.72502922751687L33.181048828125,139.30408929998225L33.247177734375,133.74000977949663L33.585015234375,136.77830811934035L33.616803515625,149.22221865567295L33.70137890625,130.42369295987217L33.7173890625,115.05544703396883L33.776325,141.02832292036575L33.81159375,108.4138970531117L34.031443359375,159.78390580610795L34.12460390625,93.97307863582263L34.189688671875004,136.06859040693803L34.28795390625,113.06601393959737L34.326123046875,128.029026073109L34.426940625,128.64308124889027L34.454204296875,128.73129201715642L34.493185546875,140.12217806729404L34.535879296875,127.64463758988813L34.699461328125,121.83652309070935L34.719300000000004,125.5131740361994L34.74876796875,125.30985247525302L34.88334609375,115.35546725880016L34.927780078125004,125.99072558316317L35.080224609374994,117.39665147261185L35.161899609375,127.65887574629349L35.213874609375,101.34306690216064L35.231741015625,104.25490554115989L35.36411484375,97.79603291468187L35.382561328125,99.02863818948919L35.479202343749996,135.143775620894L35.514819140625,88.24224554235286L35.527580859375,127.78247443459252L35.583732421875006,102.88004445856268L35.606935546875,125.0912590859153L35.67155625,104.24636424324727L35.691046875000005,120.74230395230379L35.823420703124995,142.5361778120561L35.877832031249994,105.68157114549116L35.902079296875,123.45873254949396L35.93177929687501,127.75426083651456L35.94326484375,104.92207758470015L36.09408515625,113.14099935358222L36.13190625,114.49185641202061L36.27646171875,113.84773267572578L36.302565234374995,111.05201087951659L36.4080234375,98.65303499741987L36.476124609375,117.94846780950373L36.6252046875,116.43995858625934L37.07232890625,115.69720511002973L37.21572421875,117.57593586314808L37.247396484374995,126.10699281172319L37.273151953124994,118.56076746160333L37.360627734375,122.24752187555487L37.53082265625,106.5257116387107L37.56469921875,127.66438784512606L37.790465625,121.90995554143733L37.89093515625,165.9291716974432L38.00695078125,91.17578945159913L38.28817265625,96.25816532004963L38.58842109375001,82.35236967606978L38.740053515625,102.38397643349388L38.7543234375,118.4823630731756L39.157709765625,132.31310539939187L39.4230375,124.54649921764026L40.004623828125,114.42309635509145L40.096508203125,109.68052825927735L40.973934375,115.80958686135033L41.08995,109.62005844809792L41.4129375,105.07688960682263L41.5094625,208.47551330566404L41.625478125,84.19316638599743L43.201318359375,93.54356122450395L43.732321875,63.56022033691407L44.54443125,93.49533833937211L44.660446875,114.34309358076615L45.356540625,80.51178166476163L45.588571875,82.99604777943003L46.16865,85.78693267822266L46.40068125,95.8995557199825L49.18505625,102.46503743258388L49.394464453124996,87.90354609749534L49.626495703125,87.62884040138937L50.548703906250005,87.7345180164684L50.89675078125,100.71524866624311L51.82487578125,94.28672273722563L52.17292265625,104.64713556809858L52.52096953125,105.17290877255526L54.02917265625,112.4006901064786L54.84128203125,116.60591327320445L55.53737578125,116.83462609030984L56.23346953125,132.09271474664862L56.34948515625,121.96961879383434L57.04557890625,124.61824489246715L58.20573515625,130.2251174510609L58.78581328125,127.4731634382768L58.90182890625,118.0407911682129L59.249875781250005,123.46365783691407L59.94596953125,109.28578586925161L60.17800078125,116.65839483781293L60.52604765625,131.97506519664415L60.87409453125,119.2622035217285L61.22214140625,133.04041026722302L61.338157031250006,124.87661378340289L63.42643828125,119.09687738591974L65.12954765625,136.02196959062059L66.86978203125,89.43765527551824L67.21782890624999,105.01094452597879L67.33384453125,96.04403762080453L67.56587578125,113.17896777066318L67.68189140625,113.78965062228116L70.069144921875,132.65727152044124L70.185160546875,104.9594444587014L70.765238671875,90.33480767336759L71.113285546875,107.74946203058416L71.577348046875,126.51995581886985L71.80937929687501,92.27328485142101L72.26636484375,96.06201305541124L72.73042734375,101.39123116753318L73.19448984374999,126.20291806307706L76.06402031249999,129.53646356756036L76.1800359375,127.69392483797941L77.4469265625,77.08120480624112L78.36379804687499,82.6363066031716L78.479813671875,65.28193729747426L78.827860546875,118.36117055719548L79.059891796875,120.55295537775213L79.175907421875,114.77198274785822L80.1292078125,28.19656827059659L80.9413171875,83.32270654158158L82.68155156249999,134.18635228937322L82.7975671875,65.09369359796696L83.1456140625,104.77419803966174L85.11300703125,28.973516401811086L85.647258984375,50.529633428400224L85.763274609375,77.11053310047497L85.9299890625,120.6563692266291L86.73200507812501,56.81778421575374L87.45605859375,44.658430564186794L87.57207421874999,75.77693419022992L88.40460234375,32.77448297674005L88.77747656250001,124.84311151677912L88.965537890625,122.6331551846591L89.37170859375,138.52721973765978L90.336146484375,97.03061925692992L91.08433125,108.31998267433859L91.20034687500001,111.094321455522L91.698633984375,132.8425075045499L92.46004453125,111.46595968073066L93.445133203125,103.4692430149425L93.561148828125,120.0524690801447L93.99655546874999,111.3912909975919L94.467462890625,110.70178513266822L94.694157421875,95.22084133841774L94.85333085937499,47.58540169455788L95.099516015625,44.686410910866485L95.391875390625,89.8876205479015L95.756628515625,16.73865558971058L96.4321875,56.07403389670632L97.10380195312499,51.103422047008166L97.452196875,45.82469737659801L97.72599375,51.96476298939097L97.81950234375,51.385769181685006L98.343196875,19.134609042080967L98.3998125,20.27924485640093L99.061217578125,51.921643399325276L99.44012460937499,127.2044946566495L99.55567617187499,47.112446427778764L99.61449609374999,26.255779141512775L99.80128125,121.2482164140181L100.046422265625,30.184975058815695L100.628588671875,33.50702495228161L100.721633203125,53.79888502641158L101.34196874999999,28.976811384721245L101.39649609375,25.16923520174893L102.143288671875,40.97546464399858L102.46940859374999,49.33737013383346L102.64343203124999,51.7568598799272L102.84460312499999,100.27455298857257L103.2107484375,38.328527776544746L103.262607421875,111.9967539284446L103.4594859375,40.12132748690519L103.550326171875,59.639342901056466L103.592787890625,99.89498421582309L104.00974804687499,43.5968715320934L105.28847226562499,113.36610168457031L105.95857851562499,40.94591783003374L106.2447890625,40.65578746448864L106.65235195312499,106.01428462288597L106.709663671875,24.413318980823867L107.12395546875,38.864303783069964L107.491608984375,123.8393153520064L108.322396875,37.82550026633523L108.97104023437501,39.44606714422053L109.09308867187501,15.722843295010662L109.554598828125,115.44107911543414L110.5299421875,27.57229422829367L110.62716328125,48.330637456720524L110.94365390624999,96.61038199034604L111.395302734375,103.42672558177603L111.714809765625,40.19530991987748L112.874966015625,93.29531851335005L113.10235664062499,50.29579276344994L113.507947265625,27.8621004971591L113.5760484375,40.11526295055044L113.69206406250001,90.36420410156252L114.8596453125,31.434863725142048L116.475975,11.17740700461648L116.885858203125,12.924847911487925L117.46558828124999,106.5550055590543L118.120264453125,106.69664133245294L118.415176171875,100.23489810250022L118.620523828125,64.90903951471503L118.716584765625,22.331852250532663L119.13574921875,26.797767001065345L119.44005820312499,119.72166458129884L119.58809414062499,13.260779030539778L119.9169984375,50.995129560990776L120.175133203125,121.3839269880815L120.45461484375,13.099830655184663L121.30582148437499,118.84833451704544L121.53263203124999,73.35935710560193L122.558790234375,112.48527074640448L122.674805859375,109.1680417910489L122.723300390625,27.182037630948155L123.847955859375,69.77581029718573L124.18985390625,126.96516644564542L124.590571875,107.59197559703479L124.98943359375,25.578446544300434L125.081433984375,51.56854006680575L125.225409375,2.9151514226740147L125.318337890625,20.608055669611154L125.48273203125,43.72753159956499L126.14587734375,65.57159133911132L126.35458945312499,61.28729349309748L126.62989453125,102.86959234064275L126.812387109375,110.67305224331942L127.056251953125,101.24117072192107L127.22899921875,36.259111550071026L127.38828867187499,18.716509593616827L127.525303125,30.961766052246098L128.512016015625,109.96679156216707L128.869112109375,99.7896862480857L129.144301171875,30.238401905406615L129.1838625,8.113524669300418L129.211358203125,99.9535220302235L129.276675,101.06818074313077L129.342455859375,116.06050521157005L129.436892578125,100.66151982047342L129.5258765625,7.344944125088787L129.731804296875,17.659301313920448L129.92450625,31.630834184126417L130.130898046875,99.10164710478348L130.21431328125,10.36703763094816L130.58173476562501,11.573492431640616L130.79543554687498,62.80012523304332L131.215876171875,80.6518061620539L131.500346484375,13.778842662464479L131.905241015625,14.607764115767043L132.002578125,12.206826449307528L132.043995703125,23.720974814675067L132.633355078125,16.19601953679866L132.72477539062498,48.25537827925248L133.108323046875,98.92318891525268L133.31645507812502,47.57345922296698L133.51611796875,36.761220786354755L133.60475390624998,41.935281871448865L133.759170703125,12.521612715287638L133.80615703125,24.048155323375365L133.96428632812498,74.67571259932083L134.419763671875,78.67215366710317L134.463965625,16.110217396129254L135.05088867187501,57.68539102727717L135.1493859375,31.98372636274858L135.39313476562498,9.122417990944593L135.498244921875,19.233011668812154L135.5874609375,21.13942199707032L135.870423046875,34.61271023837003L136.540761328125,29.606388827237215L136.650744140625,23.461280073686087L136.761423046875,16.677018293900925L136.81049765625,19.96468938654119L137.09334375,86.0526784515381L137.279548828125,35.525793706720535L137.71773984375,32.11379225297407L137.961024609375,13.382727772105824L138.64110820312501,14.856935535777689L138.85515703125,31.1328154407848L138.963399609375,36.057209139737225L139.18835390625,13.968075838955972L139.24218515625,19.872861993963063L139.346483203125,25.748931218927556L139.43175468750002,14.790279651988646L139.47305624999998,25.677335316051128L139.55716757812502,18.66284704034979L139.6647140625,23.400939164595176L139.72098164062498,22.155425803444608L140.10476132812502,27.280170177112918L140.30256796875,28.50318828235973L140.64771445312502,45.24996102072976L141.26805000000002,39.24845164905895L141.4448578125,18.225891057794737L141.59892656250003,21.51218228426847L142.141995703125,16.41546245228161L142.54062539062502,23.27037239768289L142.586915625,7.824626853249289L142.72218984375002,32.43088648015802L142.84864687500001,25.66263311212713L143.007704296875,19.088724809126425L143.04935390625,6.288634477095174L143.123719921875,37.922090897993606L143.616090234375,31.89057803067294L143.68778789062497,34.053820245916185L143.736514453125,11.898738181374299L143.83373554687498,27.59578632701526L144.49119609375,26.05471643621272L144.54433125,17.16800512140447L144.58772109375,12.387161698774865L144.642596484375,19.127734264026987L145.020111328125,5.831157282049015L145.440551953125,19.336756980202424L146.34837421875,27.065907897949213L147.03611484375,12.991680575284086L147.213734765625,24.968285439231185L147.26385351562502,14.879563376686798L147.35353359375,24.265196977095176L147.719330859375,19.49688038219105L147.79903359375,16.219732610529125L147.972012890625,23.282864851518106L148.41623671875,9.356710427024142L148.834705078125,18.020688753995024L148.90953515625,26.795336275967685L149.48682890625,34.874948647238995L149.83278750000002,16.48104292436079L150.16064765625,26.36880049272017L150.2267765625,24.858063104802905L150.35242148437501,27.65750219171698L150.43583671875,25.962506020285858L150.691651171875,18.76454956054688L151.617687890625,21.763887551047592L152.01237304687498,12.631422563032663L152.055646875,107.09821676080877L152.615886328125,17.28268624045633L152.709162890625,14.459573364257821L152.87170078125,28.218400601473714L152.94502265625,26.491584028764212L152.984816015625,16.968778963955973L153.575103515625,13.960523404208102L153.735669140625,22.912893759987575L154.034989453125,36.08437433416194L154.28581523437498,30.6377626731179L154.383268359375,23.393750110973013L154.46297109374999,17.499079700816768L154.56982148437498,5.583517955433245L155.066368359375,9.15212685324928L155.32844765625,13.697769386985078L155.544120703125,33.904087579900576L155.64284999999998,21.458230008212002L155.780096484375,18.929249600497165L156.227452734375,31.350426718971956L156.2688703125,31.032954378995022L156.71019375,30.303034640225505L156.8043984375,29.609266412908376L157.42624218749998,35.6967841685902L157.5422578125,62.233781016956684L157.58564765625002,26.253495733087714L157.62718125,32.39080652410334L157.793431640625,39.91203469016335L158.10006093750002,32.3465034901012L158.41214296874998,23.030683260830962L158.484652734375,32.6280747569691L158.679094921875,14.241191128817471L159.17517773437498,22.323764565207735L159.4235671875,25.64503368030894L159.57868007812502,30.168922452059665L159.740173828125,14.1759003795277L159.856189453125,66.54503290349786L160.15400156249999,11.533068736683237L160.276862109375,27.5267881081321L160.606114453125,16.919840365323154L160.74405703124998,13.444453457919034L160.90462265624998,13.3723173939098L161.130969140625,16.70421295166016L162.0988875,31.04142508766868L162.35110546875,27.95132038463245L162.455635546875,24.314160128506746L162.798577734375,65.37592533458363L163.0562484375,36.757420016202055L163.78250624999998,19.099861949573864L163.98031289062502,8.5756865345348L164.13693398437502,18.204918074174365L164.935121484375,46.921003501198506L165.546871875,6.377898559570321L165.59118984375,27.971046087091626L165.797581640625,37.730053794167254L166.070914453125,42.42266435102984L166.44390468749998,7.806497081409793L166.48497421875,30.215744601163003L166.52233125,16.118560430353345L166.56444492187498,24.894086941805742L166.60052578124998,15.751987443403772L166.640551171875,18.153740262118262L167.12456835937502,20.617866960005333L168.3697640625,17.137927967418328L168.413733984375,15.598321422230105L168.4542234375,11.445022472034804L168.8477484375,28.47318478670987L169.39383398437502,17.957489901455958L169.511821875,45.54852281050248L170.14596328125,38.59452767112038L170.188308984375,11.409499511718758L170.319290625,11.926708706942474L170.41836796875,22.951318858753552L170.477187890625,28.536241233132102L170.60538515624998,42.501576981977976L171.42352734375,12.72449723677202L171.6646078125,25.375856656161226L171.8479125,28.79770868474786L171.95395078125,19.49088459361683L172.356525,19.34204564874822L172.39423007812502,12.451931929154838L172.628117578125,19.378904280229055L172.722090234375,23.223098477450282L172.82928867187502,26.68262428977273L173.07152929687498,18.97992162531073L173.20645546875,17.3745185435902L173.52665859375,24.53127053000711L173.62329960937498,23.689915549538348L173.73595078125,13.284231844815334L173.91971953125,24.35472131902521L174.51905625,23.394938465465206L174.60049921875,19.384669272682885L174.63321562500002,19.212785089666184L174.70305703125,21.28496595902877L175.2666609375,14.869928866299716L175.80346523437498,28.5959585016424L176.181908203125,19.312685435901997L176.96512968750002,17.42562760786577L177.24693164062498,18.213015580610787L177.28486875000002,18.33476298939098L177.40250859375,11.29190152254971L177.874228125,15.401766607111153L178.121457421875,10.99099248712713L178.288171875,18.809309276234014L178.504541015625,14.648561012961643L178.58934843749998,11.483432839133522L178.663714453125,11.834959883256394L178.73622421874998,6.895765769264919L178.815694921875,12.183953080610788L178.976492578125,20.678826599121095L179.0116453125,12.318286243785504L179.113623046875,10.714587124911215L179.4515765625,9.864815451882105L179.55506250000002,20.39720131613992L179.66434921875,18.75708551580255L180.01239609375,22.506211353648787L180.09233085937498,16.755155057040128L180.13166015625,16.00814658425071L180.16785703125,12.645702459161937L180.480983203125,23.04777690540661L181.076607421875,29.70998191139914L181.155730078125,21.544955333362925L181.24158164062501,30.887601928710943L181.31269921875,10.620982111150568L181.467580078125,59.50312408447267L181.95948632812502,22.163960349343036L182.1366421875,19.44310979669745L182.68713632812498,17.167577903053974L182.8517625,19.131952431418686L183.77362265625,21.928479558771315L184.37098710937502,13.103022516424005L184.419017578125,12.974503451260647L184.63167421875,9.017921364524156L184.6806328125,6.732371937144885L184.761495703125,18.70912902832031L184.87855546875002,8.332260464754981L185.063136328125,19.653458362926145L185.24122031250002,22.45449338045988L185.33936953125001,14.927127019708815L186.09903984375,21.779404907226564L186.40659726562498,14.693148859197448L186.57609609375,15.816929543235076L186.99932109374998,10.959397971413352L187.038186328125,9.056528153852977L187.3025859375,12.204970259232956L187.41454101562502,17.218873568448156L188.39278476562498,14.436017428311425L188.510540625,9.750802168412644L188.800927734375,22.069240639426493L188.911838671875,11.179184625799005L188.943394921875,13.735295854048292L189.031566796875,20.074405933726926L189.081453515625,14.662138699618254L189.355250390625,12.73028187144886L189.448758984375,21.065513222434305L189.884745703125,13.082368718927562L190.08104414062498,8.971654108220878L190.46807226562498,9.679058948863638L190.54348242187498,23.077102744362563L190.613323828125,12.778650845614356L190.778762109375,16.671970242586994L190.88654062499998,8.498767589222291L191.366729296875,8.837723610617902L191.44086328125002,10.799716519442477L191.689948828125,19.31671209161932L191.99646210937502,10.776450306285511L192.247751953125,22.912991971102628L192.295782421875,10.374079367897725L192.33952031249999,8.9063437167081L192.47746289062502,28.39433599298651L192.70856601562502,13.456317360617907L193.004173828125,14.339868746670804L193.41150468749998,9.91113181374289L193.5846,16.37446422230114L193.76210390625,21.614680314497505L193.83124921875,16.315188903808597L194.072213671875,12.221734896573162L194.17964414062502,30.13223569003018L194.26027499999998,12.56263549804688L194.334873046875,5.414437699751423L194.406338671875,24.61679276899858L194.50680820312502,24.043387173739347L194.711691796875,22.710956975763484L195.16357265625,20.341982116699217L195.374373046875,4.675016035600142L195.57264375,27.516230413263497L196.23474492187498,15.338523559570307L196.382548828125,20.92270444003018L196.49415585937498,11.14481073552912L196.671195703125,7.7532666570489965L196.928982421875,19.217793856534083L197.082355078125,12.228894486860787L197.147555859375,18.312837357954553L197.3913046875,27.583711270419027L197.42634140625,8.805687144886372L197.639230078125,12.005739191228695L197.882398828125,5.723321477716619L198.1027125,14.07490006880327L198.2275453125,17.415899796919383L198.473150390625,8.055039950284094L198.8781609375,-1.3317034357244488L198.96146015625,4.630438010475851L199.207761328125,10.953151744495734L199.33062187500002,12.028740234375006L199.441996875,12.703961292613638L199.508241796875,15.92255559747869L199.687137890625,12.731097023703834L200.2935515625,16.27503528941762L200.35179140625,3.6595032848011293L200.38033124999998,-1.7134402188387798L200.52071015625,7.18089227849787L200.55644296875,6.794352971857238L200.68986093750001,8.104548173384238L200.75622187500002,11.601295998313208L200.9478796875,3.1564463112570955L201.0638953125,43.912414023659444L201.2880375,6.033639137961657L201.704881640625,11.502083129882818L201.87635273437502,6.637215187766334L202.43775234375,18.11926325017756L202.471512890625,0.9980900989879248L202.67871679687502,12.827343916459526L202.711897265625,26.324787181507453L203.24023242187502,31.97478915127841L203.37678281249998,22.130327952991827L203.44848046875,6.401930819424715L203.520178125,8.203908358487206L203.622271875,21.62102966308594L203.747684765625,16.80347492564808L204.214995703125,8.295578613281242L204.41953124999998,21.784791786887432L204.51013945312502,16.302657165527346L204.934292578125,7.124853016246446L204.969561328125,16.41435266668146L205.17050039062502,6.089069491299725L205.428287109375,20.576515170010648L206.34817500000003,9.748091541637068L206.465698828125,20.468497675115408L206.572897265625,15.964491743607956L206.639258203125,12.336170487837352L207.34846171875,15.335115633877836L207.46169296875001,13.805290915749293L207.598939453125,19.88724010120739L207.636064453125,16.23348707719283L207.67284140625,13.617246093749996L207.9357328125,8.816500188654116L208.038406640625,9.461482044566768L208.10859609374998,18.563192221901627L208.495508203125,22.44211877996272L208.752830859375,5.000389459783374L208.939151953125,11.937541392933243L209.26828828125002,20.23723014137962L209.402982421875,-2.4705497048117855L209.47340390624998,18.57235040838069L209.5358203125,13.201763971502123L210.03422343749997,24.292730463201345L210.10058437499998,13.387942782315339L210.20175,14.763212668678982L210.61975429687502,-1.5936423006924592L210.75270820312502,10.953957075639195L210.98392734375,7.918202403675419L211.05075234375,17.32186756480824L211.37443593749998,-1.2735133500532805L211.43360390625,9.715338134765616L211.495440234375,9.912546053799725L211.98166171875002,8.482503828568898L212.18608125,4.866252718838782L212.54317734375002,8.591115500710234L212.71058789062502,12.189973421963781L213.02441015625,11.108335127397018L213.11652656249998,1.2120331920276994L213.198317578125,15.406598593971953L213.883969921875,4.5876081431995654L213.9165703125,23.671883988813924L213.944066015625,8.81035217285157L214.100919140625,13.182327991832395L214.17841757812502,16.515976617986507L214.41195703125,3.6266025612571005L214.549667578125,4.468762872869322L214.84388320312502,17.39658167058771L215.05097109374998,15.409967235218392L215.0813671875,23.07256048029119L215.251330078125,12.060825805664061L215.660401171875,6.560099820223722L215.84556210937498,8.409405295632093L216.067616015625,9.886019231622866L216.18920039062502,8.736870616566051L216.717999609375,12.220772427645592L216.830998828125,18.77002974076705L217.029849609375,1.1836108953302575L217.17637734375,16.15205533114347L217.35388125,3.5121866122159178L217.530341015625,8.35760875355114L217.6615546875,3.8426277299360874L217.68963046875,12.19522771661931L218.073294140625,7.911484763405549L218.1024140625,5.593064075816769L218.540025,10.2333428400213L218.600353125,19.356963917125345L218.631793359375,7.008954079367895L218.9595375,17.893225458318543L219.01418085937502,15.838555630770603L219.045273046875,13.76720464533025L219.0797296875,83.88018597689543L219.114650390625,19.096188853870736L219.25827773437499,16.783267988725136L219.33937265625,14.107722223455255L220.03500234375,19.703153187144878L220.138372265625,10.835563576438219L220.562061328125,5.883287741921157L220.71624609375002,-1.6356177312677591L220.74559804687502,15.16586841930043L220.80813046875,13.440858931107954L221.09840156250002,8.580597090287647L221.2478296875,16.61226279518821L221.455613671875,79.68379321705211L222.34788984375,13.192463378906249L222.56054648437498,10.904556884765617L222.8989640625,14.313410672274497L223.048044140625,11.71109602494674L223.34516015625,8.609864002574582L223.38077695312498,1.7785247247869354L223.746226171875,10.117041237571028L223.772213671875,7.92894669966265L223.836718359375,14.1717558704723L223.916537109375,11.094143621271302L223.99890820312498,6.600945822975847L224.02744804687498,5.0961551180752815L224.057148046875,4.227192993164072L224.122696875,6.983232588334515L224.7830578125,77.11348188920455L224.945827734375,19.30820700905539L225.12205546875,5.397633777965205L225.203382421875,-3.2311064009232946L225.29839921875,15.15021847811612L225.457688671875,16.70504774613814L225.80202304687498,19.254416781338783L226.0889296875,12.26208984375001L226.185338671875,7.062371104847301L226.216894921875,9.210837457830248L226.519115625,15.208187588778411L226.71611015625,8.456222534179688L227.34433476562498,17.12811667702415L227.55153867187502,11.984162209250714L227.675675390625,17.00460146817294L227.78438203125,3.8362047230113725L227.995414453125,1.9440792014382082L228.068504296875,7.575131336558949L228.3479859375,17.86706201726739L228.48662460937499,1.6162504993785427L228.701253515625,10.921959894353698L228.85729453124998,14.775862260298288L229.056261328125,7.794878706498589L229.176685546875,17.364451904296878L229.33005820312502,5.003267045454554L229.56058124999998,5.199954445578844L229.69028671875,12.248301003196016L229.996451953125,8.86678427956322L230.083463671875,7.864068437056111L230.50935703125,17.969648437500005L230.735935546875,2.290057317560377L230.82491953125,14.8538124223189L230.92051640625,7.46422152432529L230.95845351562502,10.19112188165839L231.26206640625,15.2949472878196L231.29617499999998,12.602882412997163L231.32378671875,12.784494406960233L231.728565234375,17.097739979137064L231.912101953125,20.89436562278053L231.93727734375003,27.196995183771296L231.99412500000003,15.214193198464127L232.17615351562497,15.341813631924719L232.2057375,15.332891152121812L232.29321328125,13.683361816406254L232.476169921875,19.439250099875714L232.59160546875,15.182745999422947L232.82920546875002,18.542371465509582L233.147784375,12.527878584428263L233.342342578125,21.33676741166549L233.451861328125,9.334917380593032L233.54711015625,11.772350297407678L233.81487421875002,22.77973913019354L233.8758984375,7.096037875088777L234.29320664062502,18.314619889692825L234.428712890625,11.02043617942116L234.47071054687498,5.117957985617905L235.11993398437502,15.303422907049008L235.1474296875,20.388706054687507L235.25834062500002,3.261502741033384L235.51183476562503,1.4587493341619315L235.577267578125,10.545938998135654L235.807210546875,15.323566006747164L235.86231796875,14.453454811789774L235.88958164062498,8.562811057350851L236.30456953125,6.474499012340208L236.37951562499998,9.458751775568187L236.41258007812502,18.66546436656606L236.700298828125,11.024344981800423L236.85761601562498,11.070749733664766L237.2255015625,10.097998102361506L237.322374609375,8.609834539240062L237.390591796875,7.323298395330254L237.45173203125,21.235938970392393L237.856278515625,15.306020591042252L238.40282812499998,6.9486917391690275L238.582304296875,13.724639948064638L238.908076171875,23.53775215842508L239.13256640625002,10.06600092107599L239.357984765625,12.961254771839496L239.54743828125,4.991982588334519L239.61379921875002,14.765672857111142L239.74698515625002,14.751928211558946L239.963122265625,10.195757446289067L239.991662109375,10.227037686434663L240.024378515625,13.314304088245729L240.37393359375002,4.0633375688032585L240.92106328125,11.110044000799009L241.07652421875,19.074616782448505L241.25530429687498,17.603394636674363L241.498241015625,2.850214233398437L241.52620078125,17.174153137207036L241.5997546875,10.94573680530895L241.69674375,22.663756713867198L242.1032625,17.629612093838787L242.25153046875002,2.6440789240056746L242.44458046875002,5.307289373224429L242.568369140625,13.149653153852988L242.60352187499998,12.987192327325985L242.85887226562502,4.911979814009234L242.964910546875,8.212010775479394L243.00006328125,8.329589122425418L243.07152890625,12.377566472833815L243.17733515625002,9.033674427379264L243.205875,21.390184437144878L243.234066796875,17.716676247336643L243.2824453125,18.498967063210223L243.40611796875,13.969666859019885L243.4689984375,14.203929831764915L243.570976171875,12.527004505504271L243.604040625,11.288788230202412L243.644066015625,7.701411188299004L243.68339531249998,2.272840909090905L243.73560234375,90.38447426189074L243.82725468750002,19.35819646661932L243.87203671875,16.81651736172763L244.05534140625,17.734128362482252L244.261965234375,20.702230307839127L244.34665664062499,6.760204967151996L244.45872773437497,15.157147272283373L244.941120703125,9.220727317116472L245.17651640625002,16.672962174849083L245.20760859375,23.048891601562506L245.236496484375,16.777998962402346L245.54022539062498,5.461019231622862L245.79325546875,20.36719782049006L245.943495703125,7.891488980379969L246.188288671875,6.630988603071742L246.60698906250002,10.399133023348728L246.78402890625,12.172334705699564L246.8473734375,11.465018255060365L246.95051132812497,10.056710149591627L247.166068359375,19.195868225097655L247.34972109375,-1.6995728093927402L247.444969921875,8.575391901189626L247.504369921875,26.386797679554327L247.53581015625,14.651178339177914L247.93513593749998,7.3286607222123665L248.340378515625,9.059022716175424L248.37089062500002,13.168382013494309L248.617191796875,6.752328435724431L249.03577617187497,8.970534501509237L249.14239453124998,1.8712065540660467L249.243212109375,7.132994717684666L249.71237929687499,3.355363103693176L249.9714421875,11.72192871093751L250.22296406249998,24.573353992808954L250.26124921874998,9.066486760919734L250.36891171874998,16.495995566628206L250.434692578125,19.02667502663352L250.46694492187498,7.14136230468751L250.944465234375,11.433502308238634L251.1399515625,20.697211719859734L251.21930625,3.896378673206682L251.71979765625,7.10790177778765L251.94266367187498,7.919253262606529L252.164717578125,25.584128057306472L252.26391093750001,7.67740839177911L252.288854296875,20.797480357776983L252.39222421875002,15.770505149147729L252.491649609375,15.824801164106894L252.716255859375,13.583363259055389L252.915106640625,17.30111064564098L252.98007539062502,20.50316619873047L253.0082671875,-2.2236174982244234L253.04330390625,12.977557816938923L253.25259609375,5.093002541281954L253.418614453125,13.687084017666907L253.8472921875,19.247925026633517L254.440712109375,12.449898959073153L254.69014570312498,2.1882123912464557L254.849551171875,8.79713295676492L254.88505195312501,11.924440030184652L255.08889140624999,5.955335415926852L255.219176953125,7.588831787109365" style="fill: none;" fill="none"></path></g></g></g></g></g></g><g transform="translate(51, 177)" clip-path="url(#clip_1)"><clipPath id="clip_1"><rect width="278" height="23"></rect></clipPath><g><g><line x1="0" y1="0" x2="0" y2="5" style="visibility: inherit;" fill="rgb(0, 0, 0)" stroke="rgb(204, 204, 204)" stroke-width="1px"></line><line x1="23.203125" y1="0" x2="23.203125" y2="5" style="visibility: inherit;" fill="rgb(0, 0, 0)" stroke="rgb(204, 204, 204)" stroke-width="1px"></line><line x1="46.40625" y1="0" x2="46.40625" y2="5" style="visibility: inherit;" fill="rgb(0, 0, 0)" stroke="rgb(204, 204, 204)" stroke-width="1px"></line><line x1="69.609375" y1="0" x2="69.609375" y2="5" style="visibility: inherit;" fill="rgb(0, 0, 0)" stroke="rgb(204, 204, 204)" stroke-width="1px"></line><line x1="92.8125" y1="0" x2="92.8125" y2="5" style="visibility: inherit;" fill="rgb(0, 0, 0)" stroke="rgb(204, 204, 204)" stroke-width="1px"></line><line x1="116.015625" y1="0" x2="116.015625" y2="5" style="visibility: inherit;" fill="rgb(0, 0, 0)" stroke="rgb(204, 204, 204)" stroke-width="1px"></line><line x1="139.21875" y1="0" x2="139.21875" y2="5" style="visibility: inherit;" fill="rgb(0, 0, 0)" stroke="rgb(204, 204, 204)" stroke-width="1px"></line><line x1="162.421875" y1="0" x2="162.421875" y2="5" style="visibility: inherit;" fill="rgb(0, 0, 0)" stroke="rgb(204, 204, 204)" stroke-width="1px"></line><line x1="185.625" y1="0" x2="185.625" y2="5" style="visibility: inherit;" fill="rgb(0, 0, 0)" stroke="rgb(204, 204, 204)" stroke-width="1px"></line><line x1="208.828125" y1="0" x2="208.828125" y2="5" style="visibility: inherit;" fill="rgb(0, 0, 0)" stroke="rgb(204, 204, 204)" stroke-width="1px"></line><line x1="232.03125" y1="0" x2="232.03125" y2="5" style="visibility: inherit;" fill="rgb(0, 0, 0)" stroke="rgb(204, 204, 204)" stroke-width="1px"></line><line x1="255.234375" y1="0" x2="255.234375" y2="5" style="visibility: inherit;" fill="rgb(0, 0, 0)" stroke="rgb(204, 204, 204)" stroke-width="1px"></line><line x1="278.4375" y1="0" x2="278.4375" y2="5" style="visibility: inherit;" fill="rgb(0, 0, 0)" stroke="rgb(204, 204, 204)" stroke-width="1px"></line></g><g transform="translate(0, 8)"><text x="0" y="0" dx="0em" dy="0.95em" style="text-anchor: middle; visibility: hidden; font-family: Roboto, sans-serif; font-size: 12px; font-weight: 200;" fill="rgb(33, 33, 33)" stroke="none" stroke-width="1px">-200k</text><text x="23.203125" y="0" dx="0em" dy="0.95em" style="text-anchor: middle; visibility: inherit; font-family: Roboto, sans-serif; font-size: 12px; font-weight: 200;" fill="rgb(33, 33, 33)" stroke="none" stroke-width="1px">0</text><text x="46.40625" y="0" dx="0em" dy="0.95em" style="text-anchor: middle; visibility: hidden; font-family: Roboto, sans-serif; font-size: 12px; font-weight: 200;" fill="rgb(33, 33, 33)" stroke="none" stroke-width="1px">200k</text><text x="69.609375" y="0" dx="0em" dy="0.95em" style="text-anchor: middle; visibility: inherit; font-family: Roboto, sans-serif; font-size: 12px; font-weight: 200;" fill="rgb(33, 33, 33)" stroke="none" stroke-width="1px">400k</text><text x="92.8125" y="0" dx="0em" dy="0.95em" style="text-anchor: middle; visibility: hidden; font-family: Roboto, sans-serif; font-size: 12px; font-weight: 200;" fill="rgb(33, 33, 33)" stroke="none" stroke-width="1px">600k</text><text x="116.015625" y="0" dx="0em" dy="0.95em" style="text-anchor: middle; visibility: inherit; font-family: Roboto, sans-serif; font-size: 12px; font-weight: 200;" fill="rgb(33, 33, 33)" stroke="none" stroke-width="1px">800k</text><text x="139.21875" y="0" dx="0em" dy="0.95em" style="text-anchor: middle; visibility: hidden; font-family: Roboto, sans-serif; font-size: 12px; font-weight: 200;" fill="rgb(33, 33, 33)" stroke="none" stroke-width="1px">1M</text><text x="162.421875" y="0" dx="0em" dy="0.95em" style="text-anchor: middle; visibility: inherit; font-family: Roboto, sans-serif; font-size: 12px; font-weight: 200;" fill="rgb(33, 33, 33)" stroke="none" stroke-width="1px">1.2M</text><text x="185.625" y="0" dx="0em" dy="0.95em" style="text-anchor: middle; visibility: hidden; font-family: Roboto, sans-serif; font-size: 12px; font-weight: 200;" fill="rgb(33, 33, 33)" stroke="none" stroke-width="1px">1.4M</text><text x="208.828125" y="0" dx="0em" dy="0.95em" style="text-anchor: middle; visibility: inherit; font-family: Roboto, sans-serif; font-size: 12px; font-weight: 200;" fill="rgb(33, 33, 33)" stroke="none" stroke-width="1px">1.6M</text><text x="232.03125" y="0" dx="0em" dy="0.95em" style="text-anchor: middle; visibility: hidden; font-family: Roboto, sans-serif; font-size: 12px; font-weight: 200;" fill="rgb(33, 33, 33)" stroke="none" stroke-width="1px">1.8M</text><text x="255.234375" y="0" dx="0em" dy="0.95em" style="text-anchor: middle; visibility: inherit; font-family: Roboto, sans-serif; font-size: 12px; font-weight: 200;" fill="rgb(33, 33, 33)" stroke="none" stroke-width="1px">2M</text><text x="278.4375" y="0" dx="0em" dy="0.95em" style="text-anchor: middle; visibility: hidden; font-family: Roboto, sans-serif; font-size: 12px; font-weight: 200;" fill="rgb(33, 33, 33)" stroke="none" stroke-width="1px">2.2M</text></g><line x1="0" y1="0" x2="278.4375" y2="0" fill="rgb(0, 0, 0)" stroke="rgb(204, 204, 204)" stroke-width="1px"></line></g></g></g></g></svg>