<svg viewBox="0 0 330 200" xmlns="http://www.w3.org/2000/svg"><g><g><g><g><g><line x1="47" y1="174" x2="42" y2="174" style="visibility: inherit;" fill="rgb(0, 0, 0)" stroke="rgb(204, 204, 204)" stroke-width="1px"></line><line x1="47" y1="158.1818181818182" x2="42" y2="158.1818181818182" style="visibility: inherit;" fill="rgb(0, 0, 0)" stroke="rgb(204, 204, 204)" stroke-width="1px"></line><line x1="47" y1="142.36363636363635" x2="42" y2="142.36363636363635" style="visibility: inherit;" fill="rgb(0, 0, 0)" stroke="rgb(204, 204, 204)" stroke-width="1px"></line><line x1="47" y1="126.54545454545455" x2="42" y2="126.54545454545455" style="visibility: inherit;" fill="rgb(0, 0, 0)" stroke="rgb(204, 204, 204)" stroke-width="1px"></line><line x1="47" y1="110.72727272727272" x2="42" y2="110.72727272727272" style="visibility: inherit;" fill="rgb(0, 0, 0)" stroke="rgb(204, 204, 204)" stroke-width="1px"></line><line x1="47" y1="94.9090909090909" x2="42" y2="94.9090909090909" style="visibility: inherit;" fill="rgb(0, 0, 0)" stroke="rgb(204, 204, 204)" stroke-width="1px"></line><line x1="47" y1="79.0909090909091" x2="42" y2="79.0909090909091" style="visibility: inherit;" fill="rgb(0, 0, 0)" stroke="rgb(204, 204, 204)" stroke-width="1px"></line><line x1="47" y1="63.27272727272727" x2="42" y2="63.27272727272727" style="visibility: inherit;" fill="rgb(0, 0, 0)" stroke="rgb(204, 204, 204)" stroke-width="1px"></line><line x1="47" y1="47.45454545454545" x2="42" y2="47.45454545454545" style="visibility: inherit;" fill="rgb(0, 0, 0)" stroke="rgb(204, 204, 204)" stroke-width="1px"></line><line x1="47" y1="31.636363636363626" x2="42" y2="31.636363636363626" style="visibility: inherit;" fill="rgb(0, 0, 0)" stroke="rgb(204, 204, 204)" stroke-width="1px"></line><line x1="47" y1="15.818181818181824" x2="42" y2="15.818181818181824" style="visibility: inherit;" fill="rgb(0, 0, 0)" stroke="rgb(204, 204, 204)" stroke-width="1px"></line><line x1="47" y1="0" x2="42" y2="0" style="visibility: inherit;" fill="rgb(0, 0, 0)" stroke="rgb(204, 204, 204)" stroke-width="1px"></line></g><g transform="translate(37, 0)"><text x="0" y="174" dx="0em" dy="0.3em" style="text-anchor: end; visibility: hidden; font-family: Roboto, sans-serif; font-size: 12px; font-weight: 200;" fill="rgb(33, 33, 33)" stroke="none" stroke-width="1px">-210</text><text x="0" y="158.1818181818182" dx="0em" dy="0.3em" style="text-anchor: end; visibility: inherit; font-family: Roboto, sans-serif; font-size: 12px; font-weight: 200;" fill="rgb(33, 33, 33)" stroke="none" stroke-width="1px">-200</text><text x="0" y="142.36363636363635" dx="0em" dy="0.3em" style="text-anchor: end; visibility: hidden; font-family: Roboto, sans-serif; font-size: 12px; font-weight: 200;" fill="rgb(33, 33, 33)" stroke="none" stroke-width="1px">-190</text><text x="0" y="126.54545454545455" dx="0em" dy="0.3em" style="text-anchor: end; visibility: inherit; font-family: Roboto, sans-serif; font-size: 12px; font-weight: 200;" fill="rgb(33, 33, 33)" stroke="none" stroke-width="1px">-180</text><text x="0" y="110.72727272727272" dx="0em" dy="0.3em" style="text-anchor: end; visibility: hidden; font-family: Roboto, sans-serif; font-size: 12px; font-weight: 200;" fill="rgb(33, 33, 33)" stroke="none" stroke-width="1px">-170</text><text x="0" y="94.9090909090909" dx="0em" dy="0.3em" style="text-anchor: end; visibility: inherit; font-family: Roboto, sans-serif; font-size: 12px; font-weight: 200;" fill="rgb(33, 33, 33)" stroke="none" stroke-width="1px">-160</text><text x="0" y="79.0909090909091" dx="0em" dy="0.3em" style="text-anchor: end; visibility: hidden; font-family: Roboto, sans-serif; font-size: 12px; font-weight: 200;" fill="rgb(33, 33, 33)" stroke="none" stroke-width="1px">-150</text><text x="0" y="63.27272727272727" dx="0em" dy="0.3em" style="text-anchor: end; visibility: inherit; font-family: Roboto, sans-serif; font-size: 12px; font-weight: 200;" fill="rgb(33, 33, 33)" stroke="none" stroke-width="1px">-140</text><text x="0" y="47.45454545454545" dx="0em" dy="0.3em" style="text-anchor: end; visibility: hidden; font-family: Roboto, sans-serif; font-size: 12px; font-weight: 200;" fill="rgb(33, 33, 33)" stroke="none" stroke-width="1px">-130</text><text x="0" y="31.636363636363626" dx="0em" dy="0.3em" style="text-anchor: end; visibility: inherit; font-family: Roboto, sans-serif; font-size: 12px; font-weight: 200;" fill="rgb(33, 33, 33)" stroke="none" stroke-width="1px">-120</text><text x="0" y="15.818181818181824" dx="0em" dy="0.3em" style="text-anchor: end; visibility: hidden; font-family: Roboto, sans-serif; font-size: 12px; font-weight: 200;" fill="rgb(33, 33, 33)" stroke="none" stroke-width="1px">-110</text><text x="0" y="0" dx="0em" dy="0.3em" style="text-anchor: end; visibility: hidden; font-family: Roboto, sans-serif; font-size: 12px; font-weight: 200;" fill="rgb(33, 33, 33)" stroke="none" stroke-width="1px">-100</text></g><line x1="47" y1="0" x2="47" y2="174" fill="rgb(0, 0, 0)" stroke="rgb(204, 204, 204)" stroke-width="1px"></line></g></g><g transform="translate(47, 0)" clip-path="url(#clip_0)"><clipPath id="clip_0"><rect width="283" height="174"></rect></clipPath><g><g><g><line x1="0" y1="0" x2="0" y2="174" fill="rgb(0, 0, 0)" stroke="rgb(66, 66, 66)" stroke-width="1px" opacity="0.25"></line><line x1="28.3" y1="0" x2="28.3" y2="174" fill="rgb(0, 0, 0)" stroke="rgb(66, 66, 66)" stroke-width="1px" opacity="0.25"></line><line x1="56.6" y1="0" x2="56.6" y2="174" fill="rgb(0, 0, 0)" stroke="rgb(66, 66, 66)" stroke-width="1px" opacity="0.25"></line><line x1="84.89999999999999" y1="0" x2="84.89999999999999" y2="174" fill="rgb(0, 0, 0)" stroke="rgb(66, 66, 66)" stroke-width="1px" opacity="0.25"></line><line x1="113.2" y1="0" x2="113.2" y2="174" fill="rgb(0, 0, 0)" stroke="rgb(66, 66, 66)" stroke-width="1px" opacity="0.25"></line><line x1="141.5" y1="0" x2="141.5" y2="174" fill="rgb(0, 0, 0)" stroke="rgb(66, 66, 66)" stroke-width="1px" opacity="0.25"></line><line x1="169.79999999999998" y1="0" x2="169.79999999999998" y2="174" fill="rgb(0, 0, 0)" stroke="rgb(66, 66, 66)" stroke-width="1px" opacity="0.25"></line><line x1="198.1" y1="0" x2="198.1" y2="174" fill="rgb(0, 0, 0)" stroke="rgb(66, 66, 66)" stroke-width="1px" opacity="0.25"></line><line x1="226.4" y1="0" x2="226.4" y2="174" fill="rgb(0, 0, 0)" stroke="rgb(66, 66, 66)" stroke-width="1px" opacity="0.25"></line><line x1="254.70000000000002" y1="0" x2="254.70000000000002" y2="174" fill="rgb(0, 0, 0)" stroke="rgb(66, 66, 66)" stroke-width="1px" opacity="0.25"></line><line x1="283" y1="0" x2="283" y2="174" fill="rgb(0, 0, 0)" stroke="rgb(66, 66, 66)" stroke-width="1px" opacity="0.25"></line></g><g><line x1="0" y1="174" x2="283" y2="174" fill="rgb(0, 0, 0)" stroke="rgb(66, 66, 66)" stroke-width="1px" opacity="0.25"></line><line x1="0" y1="158.1818181818182" x2="283" y2="158.1818181818182" fill="rgb(0, 0, 0)" stroke="rgb(66, 66, 66)" stroke-width="1px" opacity="0.25"></line><line x1="0" y1="142.36363636363635" x2="283" y2="142.36363636363635" fill="rgb(0, 0, 0)" stroke="rgb(66, 66, 66)" stroke-width="1px" opacity="0.25"></line><line x1="0" y1="126.54545454545455" x2="283" y2="126.54545454545455" fill="rgb(0, 0, 0)" stroke="rgb(66, 66, 66)" stroke-width="1px" opacity="0.25"></line><line x1="0" y1="110.72727272727272" x2="283" y2="110.72727272727272" fill="rgb(0, 0, 0)" stroke="rgb(66, 66, 66)" stroke-width="1px" opacity="0.25"></line><line x1="0" y1="94.9090909090909" x2="283" y2="94.9090909090909" fill="rgb(0, 0, 0)" stroke="rgb(66, 66, 66)" stroke-width="1px" opacity="0.25"></line><line x1="0" y1="79.0909090909091" x2="283" y2="79.0909090909091" fill="rgb(0, 0, 0)" stroke="rgb(66, 66, 66)" stroke-width="1px" opacity="0.25"></line><line x1="0" y1="63.27272727272727" x2="283" y2="63.27272727272727" fill="rgb(0, 0, 0)" stroke="rgb(66, 66, 66)" stroke-width="1px" opacity="0.25"></line><line x1="0" y1="47.45454545454545" x2="283" y2="47.45454545454545" fill="rgb(0, 0, 0)" stroke="rgb(66, 66, 66)" stroke-width="1px" opacity="0.25"></line><line x1="0" y1="31.636363636363626" x2="283" y2="31.636363636363626" fill="rgb(0, 0, 0)" stroke="rgb(66, 66, 66)" stroke-width="1px" opacity="0.25"></line><line x1="0" y1="15.818181818181824" x2="283" y2="15.818181818181824" fill="rgb(0, 0, 0)" stroke="rgb(66, 66, 66)" stroke-width="1px" opacity="0.25"></line><line x1="0" y1="0" x2="283" y2="0" fill="rgb(0, 0, 0)" stroke="rgb(66, 66, 66)" stroke-width="1px" opacity="0.25"></line></g></g></g><g><g><line x1="0" y1="-158.1818181818182" x2="283" y2="-158.1818181818182" fill="rgb(0, 0, 0)" stroke="rgb(153, 153, 153)" stroke-width="1.5px"></line></g></g><g><g><line x1="28.3" y1="0" x2="28.3" y2="174" fill="rgb(0, 0, 0)" stroke="rgb(153, 153, 153)" stroke-width="1.5px"></line></g></g><g><g><g><g><g><path stroke="rgb(255, 112, 67)" stroke-width="2px" d="M28.639599999999998,158.1818181818182L29.375400000000003,158.18181818181824L29.715,158.18181818181824L30.6206,158.18181818181813L30.733800000000002,158.1818181818182L30.9036,158.18181818181824L31.356399999999997,158.18181818181827L31.5262,158.18181818181824L32.3752,158.18181818181827L32.545,158.18181818181824L33.677,158.1818181818182L34.1298,158.1818181818182L34.2996,158.18181818181813L34.3562,158.18181818181824L34.7524,158.18181818181824L35.488200000000006,158.18181818181824L36.186078,158.18181818181824L36.79962200000001,158.18181818181824L37.080641,156.90160804883294L37.250440999999995,157.04734758770965L37.741163,145.45204877203113L37.797763,146.86407826919285L38.363763,148.10591552827458L38.646763,149.20084437299454L38.759963,150.16840256152932L38.816563,151.02509577352467L39.042963,151.78495354385865L39.473689,152.45996665927626L39.923376,153.06043462552663L39.979976,153.5952441775214L40.239487000000004,154.07209438739963L40.856993,154.4976800322709L41.196593,154.87784205283762L41.479593,155.217691853507L42.301425,155.5217146496974L42.623762,155.79385590995318L42.906762,156.03759406461904L43.302962,156.2560019848607L43.508703,156.4517992223877L43.621903,156.6273966026533L44.697303,156.7849344542589L44.980303,156.92631551389786L45.036903,157.05323335387942L45.319903000000004,157.16719702643127L45.602903000000005,157.2695524967862L45.716103,157.36150133881844L46.161828,157.44411708758716L46.212768,154.33446509591954L46.835368,154.72141624812573L47.344768,155.06924909379123L47.797568,155.38195646373526L48.703168,155.6631163537888L48.929567999999996,155.91593640735255L49.495568,156.14329336778658L51.985968,156.34776811752852L52.042568,156.53167683659646L52.495368,156.69709874185605L53.004768,156.8459008078835L53.117968,156.97975981863368L53.174568,157.10018205495112L53.344367999999996,157.20852088503204L53.683968,157.3059924922712L54.193368,157.39368994668976L54.363167999999995,157.47259580166204L54.419768,157.5435933763836L54.985768,157.60747686597588L55.945704,157.66496040491796L56.058904,157.71668619530058L57.131757,157.76323179893683L57.244957,157.80511668140215L57.414757,157.84280808641384L57.867557,157.87672631042938L58.207157,157.90724943979833L58.289227000000004,146.06620211574105L58.459027,147.27821215210597L58.798627,148.36893595479984L59.073420000000006,149.35051834858976L59.63942,150.23388659541442L59.962323000000005,151.02887273649938L60.285225999999994,142.40955690758332L60.500589,143.9870932213192L60.838774,145.4068169578508L60.93273,146.68452057743377L61.102529999999994,147.83441516505005L61.21573,148.8692889727003L61.272330000000004,149.800650030505L61.534388,138.93217659169912L61.590987999999996,140.85732180312684L62.045769,142.58991809054086L62.494607,144.14922688367724L62.768834,145.55258222699092L63.051834,146.81558375428025L63.16277,146.68674549676763L63.837725,147.83631022046936L64.233925,148.87090755482248L64.290525,149.80203631312085L64.403725,150.64004503316463L64.573525,151.3942470797107L64.67483899999999,152.07302422244416L65.346964,152.6839198446239L65.516764,153.2337228215259L65.743164,153.7285430034793L65.900229,154.17387914447255L66.070029,154.5746800329377L66.274921,150.1898705299647L66.33152100000001,150.98907657659592L66.553676,151.70835987506206L66.808376,148.87567331733413L67.38597899999999,149.80629738030441L67.782179,150.6438572174217L68.19960400000001,144.4376015831789L68.404779,140.11744537987977L68.608822,137.02022538539785L68.652121,131.70180689367706L68.980401,126.59887102486847L69.441125,126.43534675389832L69.65365800000001,128.81909536505515L69.844683,124.95353405398922L70.056367,128.27637438929312L70.100798,124.46508827914695L70.28022,112.49309011130306L70.65944,110.26013889582985L70.8349,110.62321677006678L70.8915,115.37908698754367L70.919517,103.6829741680212L71.005266,109.13286792225642L71.061866,114.03777052402285L71.33015,111.49217175120492L71.530231,115.68659618726487L71.577775,114.87429929028133L71.650223,102.59594782781122L71.87775500000001,92.96907153771454L71.92529900000001,94.42852921827482L71.981899,100.80386282439356L72.197828,105.11802486487L72.388853,107.10258720228057L72.631384,108.41414737020781L72.67921100000001,108.48727812317841L72.723642,106.65491314790401L73.879131,109.11851370941642L74.047516,107.38120717915885L74.150245,106.60854076098441L74.372117,104.01495866985975L75.52336100000001,104.05346281279186L75.61844900000001,102.18993428131483L75.85843299999999,104.3091231135217L75.966539,109.69639363197197L76.164356,106.95220835045698L76.269915,112.075170112804L76.658474,113.52219875415493L76.962133,117.98816124713825L77.151177,114.09843560021442L77.510304,118.50677429830009L77.608222,119.15246056282568L77.928295,123.05539664021119L78.041495,126.56803904991574L78.193466,129.72941717009653L78.357606,132.57465743893096L78.79569000000001,131.18082798475308L78.844649,129.61001783857407L79.003978,132.46719799563715L79.394235,135.03866011367364L79.56290299999999,137.35297600101697L80.049097,139.43586028432554L80.270686,141.31045612690986L80.427751,142.99759237519697L80.479823,141.9851058418353L80.94366,139.17568610901841L80.996864,139.17811749816155L81.214774,141.07848759815474L81.314673,137.72700242450261L81.3625,134.86884759806796L81.582391,137.20014468472763L81.63899099999999,139.29831205734732L81.790396,135.65029899758028L81.83935500000001,133.63254180724857L82.23442299999999,119.95292388126754L82.416675,118.55581330131344L82.491953,117.4565956004582L82.583645,115.36002693733695L82.64024500000001,119.64220608414954L83.056538,123.49616731203162L83.203415,120.47927784079315L83.56367399999999,124.24953188925029L83.63470699999999,111.0336695641306L84.109015,98.66484802411823L84.38041199999999,87.37472682673369L84.91414999999999,86.54634505108197L85.197433,86.90807418315062L85.352517,93.08635768642752L85.451001,91.686812824327L85.652497,96.7544951865636L85.844937,96.72813657695927L85.946817,96.54623200993097L86.16614200000001,97.0152451731346L86.211988,97.1209933832076L86.63875200000001,103.22707586897795L86.910432,103.02800464554316L87.06919500000001,94.14884053766488L87.125795,100.55213830659777L87.53359800000001,97.4569244739727L87.71868,85.65486838346735L88.191007,78.82938154161019L88.252418,72.52826156635071L88.878414,67.1736172256667L88.91011,62.35443731947495L89.038026,57.858993586010534L89.071703,55.07854877201962L89.098022,48.463421165736776L89.669399,45.83162450306116L90.04720400000001,43.30482568855927L90.08286199999999,43.08707039238723L90.27445300000001,40.04381789805729L90.340109,38.7285270171302L90.50085299999999,36.59567431510738L91.336552,34.83428870154821L91.401359,33.40722346758911L91.713225,31.01559202966784L92.048297,28.230396462799277L92.13857399999999,26.198265907254136L92.23281300000001,25.318439316460783L92.626183,24.052049930181255L92.834754,21.805026755204487L93.01587400000001,21.048160443277794L93.22501100000001,25.745162581006085L93.412357,23.961555413733283L93.70696000000001,22.35630896320317L93.875911,28.9788598853092L93.900249,23.866428442062944L93.98345099999999,22.27069468871802L94.18721099999999,28.743625220020462L94.243245,24.92017178883489L94.334654,23.53542733719392L94.435119,21.81461187616801L94.53501800000001,20.42405977943576L94.56586499999999,19.80529016511869L95.14714699999999,19.40657933041933L95.604758,18.09864867008783L96.112743,15.814238348507148L96.203586,15.181905422740703L96.23415,14.929169425918827L96.30631500000001,21.028979756105713L96.337445,20.507899962309377L97.103243,27.94801905703845L97.28577800000001,31.796853514994684L97.366433,27.668077254381405L97.491519,25.69217861984249L97.564533,31.348415303338186L97.693864,29.162664682086447L97.822912,34.78821639571643L97.966393,32.2584856652274L98.765585,29.823546189606596L98.794734,27.315737025184756L99.14650300000001,25.375072413570777L99.40375,20.464837899475853L99.434314,19.683808654981313L99.520629,18.189973244026042L99.603831,24.280066828723893L99.627603,19.321151054935402L99.91032000000001,15.332672313073187L100.150021,15.855768718130097L100.65177999999999,24.393828209962226L100.68234399999999,23.219899934419466L100.798657,32.761546304621795L101.57181299999999,42.298118946894036L101.602943,39.65012523402104L101.666618,36.634203619708L101.876321,35.50169234864569L102.07328899999999,33.69152311378021L102.10385299999999,31.587825347855816L102.40355,25.898133722158896L102.524108,25.839229440852066L102.579576,21.357124678583613L102.745697,20.486866756179527L103.05982700000001,21.601816444198246L103.27519,22.13072570886946L103.29981099999999,17.861289501617982L103.450933,17.498796915092477L103.703935,18.121644496310637L104.003066,24.2185709557714L104.028819,20.37307749655733L104.164659,19.126678837810555L104.340119,24.490374590393728L104.45813,28.843155313172968L104.511617,26.275203418219103L104.630477,33.929501258216L104.748771,40.97655113239492L104.909515,38.93525965551894L105.161102,44.05809732633099L105.42655599999999,37.91228759369757L105.572867,37.75924065250965L105.667955,31.610589314531133L105.92407,31.454984928532568L106.305271,34.95312279931581L106.437998,33.03962870120234L106.479316,37.01202946744585L106.508465,33.78537197524665L106.590535,38.15774386863116L106.71194200000001,40.66924220904084L106.93381400000001,36.28595435177301L107.257,38.826449825686645L107.667633,44.27653211584533L107.821585,37.63433344971523L107.879883,33.07999101383459L107.989121,27.557446457905606L108.15382699999999,33.501701812115094L108.245236,37.58607708544908L108.286271,40.945651195086036L108.310326,34.478358802850096L108.491163,37.67415928620147L109.021505,40.23401608485408L109.35346399999999,33.679705385459535L109.537414,31.41900757418631L109.82720599999999,34.12983408949498L109.852676,29.13503249872729L110.173598,23.848801976127266L110.407922,27.158467233060026L110.824215,22.228075055208524L111.03335200000001,18.265267549687692L111.100423,23.082377158355325L111.263148,27.57595762433796L111.62765200000001,31.145634589176893L111.667838,34.67470749389557L111.76264300000001,30.890873108142365L111.919708,35.710876706419036L112.072245,32.93069812668624L112.55702400000001,35.806719223108544L112.671073,39.81877457352496L112.907944,42.322351661627L112.96114800000001,52.01011649546434L113.001051,53.29455939137241L114.202103,47.806921634053374L114.398505,44.13350219792078L114.668487,46.838333796310565L114.896585,50.379954962134015L115.027331,42.81105037501157L115.094685,37.580854428419485L115.150153,32.24095080375935L115.37230799999999,32.022310268837956L115.469094,28.50371560559051L115.53390100000001,23.438798590486005L115.648799,32.64219145871015L115.77247,36.496154131020944L115.893877,39.17381144519159L116.198668,33.67461211885423L116.26602199999999,37.42533272515063L116.684296,31.468253998090088L116.727029,36.388701325553804L116.76749799999999,39.551649374816606L117.273785,49.516484437334974L117.42236,51.36665417541964L117.567822,44.64817057605947L117.711303,37.65244442754444L117.834125,31.51447271206273L117.916195,35.006661804492815L117.996284,37.99145016949804L118.272775,40.677759698002774L118.338148,34.237256455475226L118.45672499999999,37.457167173564095L118.588603,41.7787231834804L118.680295,44.87721450149603L118.752177,47.82403850589187L118.84302,40.510725564393596L119.527031,43.89419846249972L119.964832,45.673869525340635L120.00501799999999,47.7501189364429L120.031903,42.18419795188953L120.12302899999999,44.9257781567006L120.16236599999999,46.60229125012148L120.23000300000001,41.625698488745684L120.309526,43.790401367143836L120.45329,47.004088503156744L120.597337,48.47277056193196L120.75270400000001,42.83458441482969L120.833076,44.5620350642558L121.108435,46.11674064873933L121.373889,47.19961203841086L121.53293500000001,48.64874174366068L121.720281,50.42750393293096L121.799804,52.02838990327422L121.823859,44.45282364021953L122.363257,45.86026854892486L122.460609,44.27969623948689L122.57805400000001,46.17899934281091L122.618806,48.521099408529835L122.77898400000001,49.83808037676777L122.859356,51.18154506636372L123.031137,44.323390559727336L123.331683,47.167415140118244L123.36054899999999,42.767037262470055L123.52497199999999,46.241242627132145L123.592043,48.893482000782576L123.658548,42.73867925524978L123.796652,40.20481132972479L124.220303,52.00251201493414L124.316806,53.28771535889528L124.381896,55.23530745936938L124.40538500000001,47.02268580434153L124.513491,39.7895081329983L124.609145,38.34146641060756L124.90374800000001,36.56368340591043L125.05062500000001,39.39276961077393L125.607286,42.0971290133329L125.77142599999999,44.53105247563597L125.848119,46.247038137163294L126.00574999999999,40.19869795981057L126.046785,43.29700998201135L126.130553,45.769127165628404L126.19762399999999,38.66130535815647L126.25422400000001,50.613356640522625L126.33459599999999,52.0374755219249L126.38440399999999,44.93554615155058L126.411289,39.651082445486445L126.637972,36.4768832918469L126.727683,39.94737678084402L126.907388,43.70354819366868L127.560269,36.802284283392744L127.92703700000001,44.19478312778075L128.161078,47.05166845136634L128.256166,41.239228878956986L128.344179,37.58985144560675L128.449172,40.79086630104605L128.489924,43.67177967094143L128.529261,45.47369261293818L128.930272,47.25359607891708L128.975552,52.01914556193444L128.99989,44.60268555119553L129.072904,37.45332608698508L129.56872,40.03526620555928L129.608057,42.200830494094255L129.687014,44.149838353775735L130.00171,46.220309063852746L130.33140500000002,39.70009633928566L130.985135,43.32281397808435L131.497931,37.56689621663954L131.648204,34.601115685884686L131.687541,37.310095026387124L131.766498,39.90635825102114L132.04497,43.19208606228265L132.12392699999998,45.200150183327125L132.271087,38.940135164994395L132.661344,43.74612164849495L132.963871,48.70423675637274L133.004057,50.4774494443718L133.435066,44.16424995448009L133.764478,46.866006777213904L133.982671,50.40486064494705L134.025687,53.58982912590691L134.092192,46.49084621331622L134.16464,43.10721613743914L134.35991,46.70558543278611L135.472949,57.8532087076893L135.51426700000002,59.34425147328399L135.885846,61.4770990532283L135.953766,63.08029823881454L136.14847,72.59045023311491L136.174506,64.06595066434889L136.608345,64.30299196155035L136.731733,64.51632912903166L136.956152,57.1156053070376L137.16047799999998,49.03131750360656L137.244246,59.94636757142769L137.357446,69.76991263246677L137.423385,69.75292136922008L137.770909,70.68672014138899L137.906183,72.15986630906829L138.063814,73.48569785997968L138.133432,66.76985534670901L138.22569,58.352869812038115L138.595005,68.3357646490161L138.63773799999998,69.56946091138722L138.971112,62.13796936570303L139.054031,63.99144515640545L139.49579400000002,63.91957336803763L139.527773,59.58397966759751L139.554092,52.51830897356504L139.71993,54.06829625802673L139.871052,55.937830268587696L140.07424600000002,57.62041087809257L140.11471500000002,58.66018797210153L140.75854,59.279623720345924L140.878249,59.83711589376589L141.001071,61.129767940752934L141.04154,61.818609328495825L141.335294,62.59674839564626L141.564807,63.77161901062708L141.778189,63.72172983683712L141.950819,63.9931932167898L142.65662099999997,64.71205571329261L142.805479,65.20085014196337L142.875663,57.57349240049427L143.08140400000002,58.617961342263015L143.284315,61.297983389854906L143.747869,56.90818505086942L143.898991,59.2846392730552L144.02152999999998,59.841629891204214L144.62233899999998,60.97564872026559L145.026746,61.363538393693574L145.067498,62.18718455432421L145.187207,62.295738826164516L145.419267,55.27525585263896L145.70198399999998,61.45318481282961L145.74245299999998,62.10968451336483L145.783771,63.17507969839199L145.83556,69.9866626376437L145.876312,69.94799637387936L146.15535,62.636833100127774L147.002935,62.542240699205905L147.02699,53.91528935655801L147.068308,55.80012405726585L147.33517700000002,56.547384378811984L147.766186,62.91446412274898L147.84486,62.79210861956499L148.271341,62.52380684851761L148.310395,62.282335254574946L148.430387,62.06501082002655L148.51274,64.24214610166027L148.55236000000002,64.14520421876695L148.6316,64.21613834234479L149.302593,64.2799790535649L149.503523,65.44470842093568L149.618138,57.002055760660284L149.721999,57.47094109368515L150.041506,50.93293789340752L150.082258,52.799644104066765L150.36950299999998,54.95422514820551L150.40884,55.62789354247589L150.58713,47.85055873368286L150.71476299999998,50.18368467849638L150.92927699999998,51.96713439246489L150.994933,53.73042095321839L151.06766399999998,46.617378857896554L151.725356,48.28291369937962L151.80006799999998,53.42007687489617L151.829783,48.86897827831565L151.878742,55.529353177756796L152.278904,56.77823604179932L152.652747,49.360412437619374L152.92159700000002,51.38437119385742L153.570516,54.94593407447166L153.78729399999997,47.07861339429721L153.827197,48.85620660032206L153.930492,41.43967684938075L154.473003,43.46480007353358L154.627238,45.76195642981659L154.805811,44.507578968653135L154.870618,46.067730162696925L154.92269,40.3536844191545L155.002779,42.96195234087543L155.05654900000002,38.191211652242444L155.19691699999998,41.01572685065459L155.22267000000002,35.49051780195274L155.33021,38.26873874903019L155.539347,32.860046692309005L155.626511,39.85586020489628L155.75272900000002,45.203001457133915L156.01308899999998,39.57542858414779L156.092895,42.26152208936939L156.117516,35.97900624406883L156.142137,30.32474198329834L156.420043,39.15590414860487L156.955196,33.0257682791989L157.02113500000002,27.666827814915383L157.09782800000002,37.71287230615113L157.18980299999998,47.38703962099055L157.58628599999997,50.3992447498006L157.704014,51.84477482027509L158.203792,53.62029733824761L158.35434800000002,47.62554033169557L159.046566,44.12844084398054L159.64256400000002,47.46650585049157L159.683033,49.52167344726057L159.924998,50.738597011625444L159.966599,53.099282765008354L160.052348,55.3820817612348L160.14856799999998,47.787509948747655L160.35063,49.65239531750923L160.509676,51.33079214939468L160.590331,52.68316747990975L161.210667,55.1657598228279L161.647902,57.400092931454175L161.909394,58.77826545649059L161.94052399999998,54.48225709265967L162.20795900000002,60.10675865612098L162.330215,62.321537335963406L163.27685,62.25847451145801L163.38523899999998,65.04899069667582L163.674748,66.7695461724628L163.79672100000002,66.26168246430744L163.836624,66.12096876333125L163.90510999999998,60.14159915972539L163.931712,53.17834833466195L164.19688299999999,54.34596804665032L164.659305,57.29500760562166L164.865329,58.683688663241334L165.214268,52.02441070600809L165.281905,46.66378781722548L165.346712,48.7992272173211L165.58697899999999,50.24657722286173L166.09213400000002,52.498283136939186L166.17307200000002,54.36663664142711L166.422112,56.20633661364804L166.702282,57.07115749773778L166.93038,58.1658599297822L166.97198099999997,59.78381939134946L167.145177,52.69816472494182L167.310166,54.38834825244763L167.575337,55.11860433629378L167.891165,57.04128935720988L168.020779,49.28079678512524L168.16822200000001,50.99635347024907L168.626965,53.173081759587795L168.72120400000003,61.77577358362902L168.773842,54.490923497993386L168.872892,50.62364933001225L169.05288,47.1431025788292L169.70462899999998,49.230610502764456L169.91518100000002,50.951185816124394L170.660603,53.132430870875574L170.823611,45.44646051106076L170.91785,38.687269005409206L171.09472499999998,33.55308755941376L171.334992,28.61596062165421L171.494887,32.556182741306976L171.574693,35.62783719444903L171.791754,30.799598929549564L171.831091,33.88872994568551L172.049284,30.816220587480597L172.32153,35.96005307418706L172.542553,38.849502312222896L172.65462100000002,42.557279353727864L172.86970100000002,38.77609687290054L173.276938,42.64939627651957L173.345141,36.96082028523122L173.737945,39.43382916579901L173.845202,42.60862806740092L173.944818,46.573219806115354L174.144333,47.7686250982311L174.75165099999998,52.95721713386254L174.831174,53.988768147749006L175.016539,55.07534587842864L175.069177,63.171447654222106L175.233883,64.60521197970897L175.312557,64.31378169082898L175.579426,63.735130794473356L175.817146,55.30525407866239L176.25522999999998,47.56018321625072L176.468046,51.34598307644383L176.927638,44.945930223344895L176.96754099999998,46.93679174646496L177.203563,49.04493075363667L177.23950399999998,48.411346769182096L177.769846,49.422939364991166L177.93002399999997,50.96609997394663L178.01039600000001,52.513126340188336L178.08963599999998,53.90545006980588L178.18812,48.040359608279815L178.311791,49.247232738360914L178.654787,52.23160037361573L178.86449,53.01934942716324L178.930995,55.15195993899237L179.357476,56.754945763274954L179.396813,57.24854209603837L179.607648,57.37641515916182L179.878479,58.756955461427445L180.776721,59.20853264255742L181.01104500000002,59.14040665102895L181.087455,58.762729622289676L181.911834,58.422820296424355L182.021355,53.371447357691025L182.176722,54.045211712831026L182.21521,54.33523599609339L182.255113,55.38716694193858L182.465948,55.85935933865383L182.583393,56.91705976842479L182.65159599999998,49.95989924612778L182.987517,50.65845477606045L183.257782,51.44533657118167L183.442298,52.15353018679078L183.749919,52.474540804475325L183.908116,53.39617763311872L184.062634,53.751105324352295L184.53581,53.912358428280704L184.613635,54.3738498581799L184.73164599999998,55.26373759963464L185.203124,55.906454748762116L185.35877399999998,56.484900182976794L185.549516,56.530955619224564L185.618002,56.57240551184758L185.992411,57.084255869753726L186.07080200000001,57.861284828232925L186.13759000000002,58.244247254500536L186.658593,59.854367983595964L187.275533,60.67074936705455L187.47193499999997,61.40549261216728L187.738238,54.31585244185963L188.734681,54.73699447040096L188.77316900000002,54.95784047790633L188.81194,55.31478370284294L189.08899699999998,58.79966896892229L189.471613,58.93061116293916L189.809798,59.04845913755431L190.033085,59.78724958743526L190.07440300000002,61.08488826505537L190.21845000000002,60.670944893095275L190.64691200000001,56.18566858560392L190.904725,56.73619263613443L191.123484,57.07348246343009L191.240646,57.37704330799619L191.844002,60.022975340832936L191.99965200000003,59.55704144311327L192.27812400000002,60.24497366243831L192.43575499999997,60.3895672052854L192.63527,61.46879230293865L192.826012,63.54736761809935L192.989869,64.94353994719852L193.029489,64.7764586797514L193.46615799999998,66.04972190268535L193.50606100000002,65.93020425787135L193.950088,65.18991110481149L194.021121,65.47273817614855L194.061024,65.41091890398826L194.327327,65.82982701358947L194.405152,65.2577534031396L194.450715,68.38106897191656L194.489203,67.23750752927037L194.52854,66.68284768543427L194.762864,66.18365382598176L195.65120100000001,65.89256117065634L196.341438,65.94694141722705L196.53217999999998,65.83770182095891L196.58878,75.07211345704484L196.666322,73.57581120224945L197.00309199999998,72.07095735475176L197.48306,71.82386161927658L199.41000699999998,70.96874818462169L200.00458999999998,79.05732791161407L200.04477599999998,77.79523148408902L200.508047,76.81752651749834L200.546818,74.98850113847578L200.639642,81.56783284281005L200.723693,82.5855950130745L200.843119,80.33794460267617L200.89519099999998,85.59142286968131L200.980657,77.34864421907682L202.06199999999998,85.43196161535096L202.29660700000002,84.0069472719977L202.41716499999998,81.14261618116156L202.553005,78.56471819940904L202.779688,76.24461001583175L203.27125900000001,84.43833083243042L203.66717599999998,82.4799522946419L203.804148,79.92650251972317L203.843768,78.2611249950236L204.206008,76.1295579500667L204.460708,76.74205670051457L205.206696,84.88603284864492L205.490828,82.09197501832587L205.696003,88.27732297103873L205.827598,94.63504521938941L206.07578900000001,92.1315406974505L206.18502700000002,96.52202299134179L206.597924,102.68800251038944L206.751876,97.79738407753233L207.038555,102.57037294250635L207.285048,97.37515383007386L207.53295599999998,94.28127481070285L207.92151500000003,98.2986018750871L208.255172,94.32146896030564L208.408558,90.74204933700231L208.775326,87.83693531239304L209.477449,91.39142359933551L209.77884400000002,87.78864487576558L209.903364,81.22432584273454L210.008074,87.02189325846108L210.063825,93.6633402962513L210.262491,97.74246081208075L210.312582,100.14821473087268L210.86301699999999,96.46066598505817L211.121679,93.30005393200686L211.16101600000002,90.13913944789712L211.254123,87.13613459401647L211.505427,84.74979386188754L211.63221099999998,81.65299629388065L211.868516,86.77496939176531L212.037184,84.10838154349787L212.350182,81.86663429823902L212.752608,86.6508799593242L213.047777,93.17124650884632L213.230029,96.82503094887079L213.346625,92.99525512671096L213.672358,89.39027506858534L213.73829700000002,79.6603384708177L214.270337,87.51248644191777L214.45768299999997,94.57941961590778L214.496171,90.81602310886247L215.32988899999998,86.95442079797618L215.37403700000002,87.11716053636037L215.492897,85.36544448272436L215.779859,84.26344548899736L215.875796,89.44073730373397L216.213698,86.34939084608781L216.29350399999998,84.67445176147903L216.33623699999998,84.27427931260384L216.927424,83.59776047225256L217.006664,82.1979844250273L217.43399399999998,79.67273143707004L217.568136,87.52364011154486L218.0232,86.36400337311763L218.159606,84.0548757630786L218.256675,82.45120636858896L218.348933,88.28426754991192L218.874464,85.94129534037525L219.54602300000002,83.83262035179226L219.76364999999998,83.35844922570394L220.174566,82.45714975767899L220.432662,82.12052569100197L220.75811199999998,81.65938221281087L221.032905,89.31162580971161L221.13167199999998,88.28955413783139L221.30005699999998,88.16059872404824L221.606546,86.77908430618889L221.64673200000001,84.74481223920637L221.686352,82.59760374255845L222.105758,81.1396615501208L222.950513,79.66933175874512L223.154839,78.50421676468875L223.360014,76.98106781549262L223.602262,75.76841557939791L224.003273,74.36066493054905L224.20363700000001,73.41005298294871L224.448149,73.02904768465383L224.60861,72.5279610980066L224.649362,72.23516498820598L224.980189,71.49710303483992L225.100181,71.30739273135593L225.139801,70.50392618549309L225.22045599999998,69.93898811239829L225.34044799999998,69.11418021024942L225.38035100000002,68.68821673467903L225.42082000000002,68.6212132430293L225.623165,59.5445464641809L225.704386,60.550091817762805L225.81135999999998,61.13871899962289L225.852961,62.45939255420606L225.878714,54.78981693514909L225.903335,47.25447160527053L225.983707,49.01447899019802L226.090398,50.7566674548146L226.130867,52.48281889115134L226.368587,53.87817336567255L226.619608,55.29217421092346L226.704791,56.88113860801295L226.812331,57.67847929266618L227.25550900000002,55.54881318158139L227.55803600000002,57.586659136150516L227.58265699999998,49.771629586171834L227.62256000000002,51.2799211730092L227.838772,53.27011087389009L228.123753,54.112190695591984L228.29921299999998,64.5191534442146L228.585892,56.64360173615676L229.089066,57.306514289813805L229.304712,58.53586286083244L229.371217,59.16773112020376L229.490643,59.894594371819764L229.72751399999999,61.02331675281959L229.957593,61.88098507753762L230.080132,62.49470475160202L230.159372,62.57250700371452L230.187389,56.15707448516126L230.85979700000001,49.1177306730088L231.218358,56.70232124207158L231.668328,51.664816390591675L231.78152799999998,49.661971115168875L231.902652,51.65577400365199L232.380356,53.29201478510495L232.676657,46.697358761139924L232.985976,48.67125924866231L233.026162,50.44776968743244L233.132004,52.046629082325566L233.229356,53.80196617409301L233.27095699999998,55.85631501122916L233.82903299999998,56.59795623737897L234.1259,49.67270606818655L234.763499,51.5072536431861L235.05923399999998,44.45834646068566L235.273465,47.60523908734441L235.39458900000002,49.64653336042812L235.43505800000003,51.48369820620349L235.65240200000002,53.13714656740131L236.114541,54.467068274297525L236.18614,55.82217962868594L236.226892,57.199961665817334L236.283209,67.13996549923559L236.52573999999998,67.2277871311302L236.70912399999997,66.99046296347171L237.201544,58.235053030760895L237.82782300000002,59.529729545866616L238.068656,55.15857477309812L238.256002,48.060899113970116L238.312602,59.07299102075491L238.54664300000002,59.80932828231581L238.86388599999998,68.06475909044786L238.995764,59.834646817766725L239.044723,51.953000317808225L239.292348,54.19224574057287L239.317535,47.033021166515574L239.371305,40.90608268622766L239.577612,44.09183805396851L239.69251,51.3881087940262L240.31567600000002,53.367479732805386L240.522832,54.67436812316123L240.830453,55.850567674481454L241.071852,57.06732908885151L241.23486,58.478777998148175L241.35711600000002,59.74908201651515L241.920286,52.82508290577271L242.25932,45.01166552428634L242.437893,48.41958988094863L242.49109700000002,57.49763089285375L243.245575,58.549685985386574L243.35990700000002,63.451081023211536L243.400659,64.06597292089035L243.469994,55.286648356074025L243.546404,48.33434715683027L243.57413799999998,43.1845488047836L243.734599,45.82609392430522L243.761484,40.45257544096562L244.165042,44.00004516959633L244.37304699999999,46.085495198091245L244.52105600000002,47.96240022373665L245.403733,40.95161474681755L245.903511,44.132816908499414L246.22981000000001,46.521353399467614L246.404138,39.812854423157226L246.42932499999998,34.091568980841494L246.50799899999998,42.86241208275733L246.548751,45.536170874481606L246.97551499999997,47.46800833248798L247.015701,49.364843862875524L247.610567,51.23017765840616L247.732823,52.43443261983828L248.170907,53.83462572149082L248.21052699999998,54.778435876614466L248.29514400000002,56.41877410713482L248.335047,57.262351241875876L248.716531,58.02157066314284L248.970382,59.17941359682854L249.13056,59.90510860078206L249.297813,60.558234104340215L249.649865,60.82968342117889L249.830702,52.69035144269736L249.917866,56.279498116609446L249.99880399999998,57.29518466858487L250.33897,49.35112074718092L250.513581,44.09964503609919L250.71422800000002,46.33331689612562L251.336545,48.18543975196759L251.376448,49.852350322225384L251.445783,52.143478926366484L251.61812999999998,45.50549467009347L251.950372,46.807672475811415L252.201676,52.250541591866615L252.70966099999998,53.352760159952666L253.077278,49.59930232577557L253.15170700000002,45.746644820470735L253.301131,47.657434883878224L253.341034,49.377145940944935L253.468101,42.69943134685045L253.673276,45.07312457580178L253.886375,44.99490302731247L254.072306,46.980867270035795L254.192298,48.76823508848676L254.278047,50.535047943274435L254.684435,45.006997694401555L254.848575,48.09902519768866L255.15930899999998,42.181849950647084L255.305337,36.69821041012782L255.468911,41.72838936911506L255.668709,44.041004977658076L255.70889499999998,46.28054084352862L255.87048800000002,48.45430494099396L256.15179,49.77796535598546L256.362908,51.443805184023276L256.419508,46.615788301984566L256.505823,49.072391289967904L256.544594,50.01787943369839L256.90768299999996,51.02700058123766L256.947586,52.40975506856847L256.986357,53.02150683443891L257.20172,53.413901605540495L257.670651,55.03251144498646L257.849224,51.42744211866963L258.165901,52.77015245225723L258.232406,46.22768266157696L258.623229,48.56491439541925L258.689451,50.352059319513714L259.254602,55.91503520574414L259.67400799999996,56.65080441244245" style="fill: none;" fill="none"></path></g></g></g></g><g opacity="0.2"><g><g><g><path stroke="rgb(255, 112, 67)" stroke-width="2px" d="M28.639599999999998,158.1818181818182L29.375400000000003,158.1818181818182L29.715,158.1818181818182L30.6206,158.1818181818182L30.733800000000002,158.1818181818182L30.9036,158.1818181818182L31.356399999999997,158.1818181818182L31.5262,158.1818181818182L32.3752,158.1818181818182L32.545,158.1818181818182L33.677,158.1818181818182L34.1298,158.1818181818182L34.2996,158.1818181818182L34.3562,158.1818181818182L34.7524,158.1818181818182L35.488200000000006,158.1818181818182L36.186078,158.1818181818182L36.79962200000001,158.1818181818182L37.080641,147.10909090909092L37.250440999999995,158.1818181818182L37.741163,53.78181818181818L37.797763,158.1818181818182L38.363763,158.1818181818182L38.646763,158.1818181818182L38.759963,158.1818181818182L38.816563,158.1818181818182L39.042963,158.1818181818182L39.473689,158.1818181818182L39.923376,158.1818181818182L39.979976,158.1818181818182L40.239487000000004,158.1818181818182L40.856993,158.1818181818182L41.196593,158.1818181818182L41.479593,158.1818181818182L42.301425,158.1818181818182L42.623762,158.1818181818182L42.906762,158.1818181818182L43.302962,158.1818181818182L43.508703,158.1818181818182L43.621903,158.1818181818182L44.697303,158.1818181818182L44.980303,158.1818181818182L45.036903,158.1818181818182L45.319903000000004,158.1818181818182L45.602903000000005,158.1818181818182L45.716103,158.1818181818182L46.161828,158.1818181818182L46.212768,126.54545454545455L46.835368,158.1818181818182L47.344768,158.1818181818182L47.797568,158.1818181818182L48.703168,158.1818181818182L48.929567999999996,158.1818181818182L49.495568,158.1818181818182L51.985968,158.1818181818182L52.042568,158.1818181818182L52.495368,158.1818181818182L53.004768,158.1818181818182L53.117968,158.1818181818182L53.174568,158.1818181818182L53.344367999999996,158.1818181818182L53.683968,158.1818181818182L54.193368,158.1818181818182L54.363167999999995,158.1818181818182L54.419768,158.1818181818182L54.985768,158.1818181818182L55.945704,158.1818181818182L56.058904,158.1818181818182L57.131757,158.1818181818182L57.244957,158.1818181818182L57.414757,158.1818181818182L57.867557,158.1818181818182L58.207157,158.1818181818182L58.289227000000004,39.54545454545455L58.459027,158.1818181818182L58.798627,158.1818181818182L59.073420000000006,158.1818181818182L59.63942,158.1818181818182L59.962323000000005,158.1818181818182L60.285225999999994,64.85454545454544L60.500589,158.1818181818182L60.838774,158.1818181818182L60.93273,158.1818181818182L61.102529999999994,158.1818181818182L61.21573,158.1818181818182L61.272330000000004,158.1818181818182L61.534388,41.127272727272725L61.590987999999996,158.1818181818182L62.045769,158.1818181818182L62.494607,158.1818181818182L62.768834,158.1818181818182L63.051834,158.1818181818182L63.16277,145.52727272727273L63.837725,158.1818181818182L64.233925,158.1818181818182L64.290525,158.1818181818182L64.403725,158.1818181818182L64.573525,158.1818181818182L64.67483899999999,158.1818181818182L65.346964,158.1818181818182L65.516764,158.1818181818182L65.743164,158.1818181818182L65.900229,158.1818181818182L66.070029,158.1818181818182L66.274921,110.72727272727272L66.33152100000001,158.1818181818182L66.553676,158.1818181818182L66.808376,123.38181818181819L67.38597899999999,158.1818181818182L67.782179,158.1818181818182L68.19960400000001,88.58181818181818L68.404779,101.23636363636363L68.608822,109.14545454545453L68.652121,83.83636363636363L68.980401,80.67272727272727L69.441125,124.96363636363638L69.65365800000001,150.27272727272728L69.844683,90.16363636363637L70.056367,158.1818181818182L70.100798,90.16363636363637L70.28022,4.745454545454537L70.65944,90.16363636363637L70.8349,113.89090909090909L70.8915,158.1818181818182L70.919517,-1.5818181818181727L71.005266,158.1818181818182L71.061866,158.1818181818182L71.33015,88.58181818181818L71.530231,153.43636363636364L71.577775,107.56363636363636L71.650223,-7.909090909090902L71.87775500000001,6.32727272727273L71.92529900000001,107.56363636363636L71.981899,158.1818181818182L72.197828,143.94545454545454L72.388853,124.96363636363638L72.631384,120.21818181818182L72.67921100000001,109.14545454545453L72.723642,90.16363636363637L73.879131,131.29090909090908L74.047516,91.74545454545455L74.150245,99.65454545454546L74.372117,80.67272727272727L75.52336100000001,104.39999999999999L75.61844900000001,85.41818181818182L75.85843299999999,123.38181818181819L75.966539,158.1818181818182L76.164356,82.25454545454546L76.269915,158.1818181818182L76.658474,126.54545454545455L76.962133,158.1818181818182L77.151177,79.0909090909091L77.510304,158.1818181818182L77.608222,124.96363636363638L77.928295,158.1818181818182L78.041495,158.1818181818182L78.193466,158.1818181818182L78.357606,158.1818181818182L78.79569000000001,118.63636363636364L78.844649,115.47272727272727L79.003978,158.1818181818182L79.394235,158.1818181818182L79.56290299999999,158.1818181818182L80.049097,158.1818181818182L80.270686,158.1818181818182L80.427751,158.1818181818182L80.479823,132.87272727272727L80.94366,113.89090909090909L80.996864,139.20000000000002L81.214774,158.1818181818182L81.314673,107.56363636363636L81.3625,109.14545454545453L81.582391,158.1818181818182L81.63899099999999,158.1818181818182L81.790396,102.8181818181818L81.83935500000001,115.47272727272727L82.23442299999999,-3.1636363636363454L82.416675,105.98181818181818L82.491953,107.56363636363636L82.583645,96.4909090909091L82.64024500000001,158.1818181818182L83.056538,158.1818181818182L83.203415,93.32727272727273L83.56367399999999,158.1818181818182L83.63470699999999,-7.909090909090902L84.38041199999999,-14.236363636363631L84.91414999999999,79.0909090909091L85.197433,90.16363636363637L85.352517,148.6909090909091L85.451001,79.0909090909091L85.652497,142.36363636363635L85.844937,96.4909090909091L85.946817,94.9090909090909L86.16614200000001,101.23636363636363L86.211988,98.07272727272729L86.63875200000001,158.1818181818182L86.910432,101.23636363636363L87.06919500000001,14.236363636363631L87.125795,158.1818181818182L87.53359800000001,69.60000000000001L87.71868,-20.563636363636363L88.191007,17.399999999999995L88.252418,15.818181818181824L88.878414,18.981818181818188L88.91011,18.981818181818188L89.038026,17.399999999999995L89.071703,30.054545454545455L89.098022,-11.072727272727287L89.669399,22.14545454545455L90.04720400000001,20.563636363636363L90.08286199999999,41.127272727272725L90.27445300000001,12.65454545454546L90.340109,26.89090909090909L90.50085299999999,17.399999999999995L91.336552,18.981818181818188L91.401359,20.563636363636363L91.713225,9.490909090909094L92.048297,3.163636363636365L92.13857399999999,7.909090909090902L92.23281300000001,17.399999999999995L92.626183,12.65454545454546L92.834754,1.5818181818181727L93.01587400000001,14.236363636363631L93.22501100000001,68.01818181818182L93.412357,7.909090909090902L93.70696000000001,7.909090909090902L93.875911,88.58181818181818L93.900249,-22.145454545454534L93.98345099999999,7.909090909090902L94.18721099999999,87L94.243245,-9.490909090909074L94.334654,11.072727272727267L94.435119,6.32727272727273L94.53501800000001,7.909090909090902L94.56586499999999,14.236363636363631L95.14714699999999,15.818181818181824L95.604758,6.32727272727273L96.112743,-4.745454545454557L96.203586,9.490909090909094L96.23415,12.65454545454546L96.30631500000001,75.92727272727274L96.337445,15.818181818181824L97.103243,94.9090909090909L97.28577800000001,66.43636363636364L97.366433,-9.490909090909074L97.491519,7.909090909090902L97.564533,82.25454545454546L97.693864,9.490909090909094L97.822912,85.41818181818182L97.966393,9.490909090909094L98.765585,7.909090909090902L98.794734,4.745454545454537L99.14650300000001,7.909090909090902L99.40375,-23.727272727272744L99.434314,12.65454545454546L99.520629,4.745454545454537L99.603831,79.0909090909091L99.627603,-25.30909090909092L99.91032000000001,-20.563636363636363L100.150021,20.563636363636363L100.65177999999999,101.23636363636363L100.68234399999999,12.65454545454546L100.798657,118.63636363636364L101.57181299999999,128.12727272727273L101.602943,15.818181818181824L101.666618,9.490909090909094L101.876321,25.30909090909092L102.07328899999999,17.399999999999995L102.10385299999999,12.65454545454546L102.40355,-25.30909090909092L102.524108,25.30909090909092L102.579576,-18.981818181818188L102.745697,12.65454545454546L103.05982700000001,31.636363636363626L103.27519,26.89090909090909L103.29981099999999,-20.563636363636363L103.450933,14.236363636363631L103.703935,23.727272727272727L104.003066,79.0909090909091L104.028819,-14.236363636363631L104.164659,7.909090909090902L104.340119,72.76363636363637L104.45813,68.01818181818182L104.511617,3.163636363636365L104.630477,102.8181818181818L104.748771,104.39999999999999L104.909515,20.563636363636363L105.161102,90.16363636363637L105.42655599999999,-17.400000000000016L105.572867,36.38181818181818L105.667955,-23.727272727272744L105.92407,30.054545454545455L106.305271,66.43636363636364L106.437998,15.818181818181824L106.479316,72.76363636363637L106.508465,4.745454545454537L106.590535,77.5090909090909L106.71194200000001,63.27272727272727L106.93381400000001,-3.1636363636363454L107.257,61.69090909090908L107.667633,93.32727272727273L107.821585,-22.145454545454534L107.989121,-22.145454545454534L108.15382699999999,87L108.245236,74.34545454545454L108.286271,71.18181818181817L108.310326,-23.727272727272744L108.491163,66.43636363636364L109.021505,63.27272727272727L109.35346399999999,-25.30909090909092L109.537414,11.072727272727267L109.82720599999999,58.52727272727272L109.852676,-15.818181818181804L110.173598,-23.727272727272744L110.407922,56.945454545454545L110.824215,-22.145454545454534L111.03335200000001,-17.400000000000016L111.100423,66.43636363636364L111.263148,68.01818181818182L111.62765200000001,63.27272727272727L111.667838,66.43636363636364L111.76264300000001,-3.1636363636363454L111.919708,79.0909090909091L112.072245,7.909090909090902L112.55702400000001,61.69090909090908L112.671073,75.92727272727274L112.907944,64.85454545454544L112.96114800000001,139.20000000000002L113.001051,64.85454545454544L114.202103,-1.5818181818181727L114.398505,11.072727272727267L114.668487,71.18181818181817L114.896585,82.25454545454546L115.027331,-25.30909090909092L115.150153,-15.818181818181804L115.37230799999999,30.054545454545455L115.469094,-3.1636363636363454L115.53390100000001,-22.145454545454534L115.648799,115.47272727272727L115.77247,71.18181818181817L115.893877,63.27272727272727L116.198668,-15.818181818181804L116.26602199999999,71.18181818181817L116.684296,-22.145454545454534L116.727029,80.67272727272727L116.76749799999999,68.01818181818182L117.273785,139.20000000000002L117.42236,68.01818181818182L117.567822,-15.818181818181804L117.834125,-23.727272727272744L117.916195,66.43636363636364L117.996284,64.85454545454544L118.272775,64.85454545454544L118.338148,-23.727272727272744L118.45672499999999,66.43636363636364L118.588603,80.67272727272727L118.680295,72.76363636363637L118.752177,74.34545454545454L118.84302,-25.30909090909092L119.527031,74.34545454545454L119.964832,61.69090909090908L120.00501799999999,66.43636363636364L120.031903,-7.909090909090902L120.12302899999999,69.60000000000001L120.16236599999999,61.69090909090908L120.23000300000001,-3.1636363636363454L120.309526,63.27272727272727L120.45329,75.92727272727274L120.597337,61.69090909090908L120.75270400000001,-7.909090909090902L120.833076,60.10909090909091L121.108435,60.10909090909091L121.373889,56.945454545454545L121.53293500000001,61.69090909090908L121.720281,66.43636363636364L121.799804,66.43636363636364L121.823859,-23.727272727272744L122.363257,58.52727272727272L122.460609,30.054545454545455L122.57805400000001,63.27272727272727L122.618806,69.60000000000001L122.77898400000001,61.69090909090908L122.859356,63.27272727272727L123.031137,-17.400000000000016L123.331683,72.76363636363637L123.36054899999999,3.163636363636365L123.52497199999999,77.5090909090909L123.592043,72.76363636363637L123.658548,-12.65454545454546L123.796652,17.399999999999995L124.220303,158.1818181818182L124.316806,64.85454545454544L124.381896,72.76363636363637L124.40538500000001,-26.89090909090909L124.513491,-25.30909090909092L124.609145,25.30909090909092L124.90374800000001,20.563636363636363L125.05062500000001,64.85454545454544L125.607286,66.43636363636364L125.77142599999999,66.43636363636364L125.848119,61.69090909090908L126.00574999999999,-14.236363636363631L126.046785,71.18181818181817L126.130553,68.01818181818182L126.19762399999999,-25.30909090909092L126.25422400000001,158.1818181818182L126.33459599999999,64.85454545454544L126.38440399999999,-18.981818181818188L126.411289,-7.909090909090902L126.637972,7.909090909090902L126.727683,71.18181818181817L126.907388,77.5090909090909L127.560269,-25.30909090909092L127.92703700000001,110.72727272727272L128.161078,72.76363636363637L128.256166,-11.072727272727287L128.344179,4.745454545454537L128.449172,69.60000000000001L128.489924,69.60000000000001L128.529261,61.69090909090908L128.930272,63.27272727272727L128.975552,94.9090909090909L128.99989,-22.145454545454534L129.072904,-26.89090909090909L129.56872,63.27272727272727L129.608057,61.69090909090908L129.687014,61.69090909090908L130.00171,64.85454545454544L130.33140500000002,-18.981818181818188L130.985135,75.92727272727274L131.497931,-14.236363636363631L131.648204,7.909090909090902L131.687541,61.69090909090908L131.766498,63.27272727272727L132.04497,72.76363636363637L132.12392699999998,63.27272727272727L132.271087,-17.400000000000016L132.661344,87L132.963871,93.32727272727273L133.004057,66.43636363636364L133.435066,-12.65454545454546L133.764478,71.18181818181817L133.982671,82.25454545454546L134.025687,82.25454545454546L134.092192,-17.400000000000016L134.16464,12.65454545454546L134.35991,79.0909090909091L135.472949,158.1818181818182L135.51426700000002,72.76363636363637L135.885846,80.67272727272727L135.953766,77.5090909090909L136.14847,158.1818181818182L136.174506,-12.65454545454546L136.608345,66.43636363636364L136.731733,66.43636363636364L136.956152,-9.490909090909074L137.16047799999998,-23.727272727272744L137.244246,158.1818181818182L137.357446,158.1818181818182L137.423385,69.60000000000001L137.770909,79.0909090909091L137.906183,85.41818181818182L138.063814,85.41818181818182L138.133432,6.32727272727273L138.22569,-17.400000000000016L138.595005,158.1818181818182L138.63773799999998,80.67272727272727L138.971112,-4.745454545454557L139.054031,80.67272727272727L139.49579400000002,63.27272727272727L139.527773,20.563636363636363L139.554092,-11.072727272727287L139.71993,68.01818181818182L139.871052,72.76363636363637L140.07424600000002,72.76363636363637L140.11471500000002,68.01818181818182L140.75854,64.85454545454544L140.878249,64.85454545454544L141.001071,72.76363636363637L141.04154,68.01818181818182L141.335294,69.60000000000001L141.564807,74.34545454545454L141.778189,63.27272727272727L141.950819,66.43636363636364L142.65662099999997,71.18181818181817L142.805479,69.60000000000001L142.875663,-11.072727272727287L143.08140400000002,68.01818181818182L143.284315,85.41818181818182L143.747869,17.399999999999995L143.898991,80.67272727272727L144.02152999999998,64.85454545454544L144.62233899999998,71.18181818181817L145.026746,64.85454545454544L145.067498,69.60000000000001L145.187207,63.27272727272727L145.419267,-7.909090909090902L145.70198399999998,117.05454545454546L145.74245299999998,68.01818181818182L145.783771,72.76363636363637L145.83556,131.29090909090908L145.876312,69.60000000000001L146.15535,-3.1636363636363454L147.002935,61.69090909090908L147.02699,-23.727272727272744L147.068308,72.76363636363637L147.33517700000002,63.27272727272727L147.766186,120.21818181818182L147.84486,61.69090909090908L148.271341,60.10909090909091L148.310395,60.10909090909091L148.430387,60.10909090909091L148.51274,83.83636363636363L148.55236000000002,63.27272727272727L148.6316,64.85454545454544L149.302593,64.85454545454544L149.503523,75.92727272727274L149.618138,-18.981818181818188L149.721999,61.69090909090908L150.041506,-7.909090909090902L150.082258,69.60000000000001L150.36950299999998,74.34545454545454L150.40884,61.69090909090908L150.58713,-22.145454545454534L150.71476299999998,71.18181818181817L150.92927699999998,68.01818181818182L150.994933,69.60000000000001L151.06766399999998,-17.400000000000016L151.725356,63.27272727272727L151.80006799999998,99.65454545454546L151.829783,7.909090909090902L151.878742,115.47272727272727L152.278904,68.01818181818182L152.652747,-17.400000000000016L152.92159700000002,69.60000000000001L153.570516,87L153.78729399999997,-23.727272727272744L153.827197,64.85454545454544L153.930492,-25.30909090909092L154.473003,61.69090909090908L154.627238,66.43636363636364L154.805811,33.21818181818182L154.870618,60.10909090909091L154.92269,-11.072727272727287L155.002779,66.43636363636364L155.05654900000002,-4.745454545454557L155.19691699999998,66.43636363636364L155.22267000000002,-14.236363636363631L155.33021,63.27272727272727L155.539347,-15.818181818181804L155.626511,102.8181818181818L155.75272900000002,93.32727272727273L156.01308899999998,-11.072727272727287L156.092895,66.43636363636364L156.117516,-20.563636363636363L156.142137,-20.563636363636363L156.420043,118.63636363636364L156.955196,-22.145454545454534L157.02113500000002,-20.563636363636363L157.09782800000002,128.12727272727273L157.18980299999998,134.45454545454544L157.58628599999997,77.5090909090909L157.704014,64.85454545454544L158.203792,69.60000000000001L158.35434800000002,-6.32727272727273L159.046566,12.65454545454546L159.64256400000002,77.5090909090909L159.683033,68.01818181818182L159.924998,61.69090909090908L159.966599,74.34545454545454L160.052348,75.92727272727274L160.14856799999998,-20.563636363636363L160.35063,66.43636363636364L160.509676,66.43636363636364L160.590331,64.85454545454544L161.210667,77.5090909090909L161.647902,77.5090909090909L161.909394,71.18181818181817L161.94052399999998,15.818181818181824L162.20795900000002,110.72727272727272L162.330215,82.25454545454546L163.27685,61.69090909090908L163.38523899999998,90.16363636363637L163.674748,82.25454545454546L163.79672100000002,61.69090909090908L163.836624,64.85454545454544L163.90510999999998,6.32727272727273L163.931712,-9.490909090909074L164.19688299999999,64.85454545454544L164.659305,83.83636363636363L164.865329,71.18181818181817L165.214268,-7.909090909090902L165.281905,-1.5818181818181727L165.346712,68.01818181818182L165.58697899999999,63.27272727272727L166.09213400000002,72.76363636363637L166.17307200000002,71.18181818181817L166.422112,72.76363636363637L166.702282,64.85454545454544L166.93038,68.01818181818182L166.97198099999997,74.34545454545454L167.145177,-11.072727272727287L167.310166,69.60000000000001L167.575337,61.69090909090908L167.891165,74.34545454545454L168.020779,-20.563636363636363L168.16822200000001,66.43636363636364L168.626965,72.76363636363637L168.72120400000003,139.20000000000002L168.773842,-11.072727272727287L168.872892,15.818181818181824L169.05288,15.818181818181824L169.70462899999998,68.01818181818182L169.91518100000002,66.43636363636364L170.660603,72.76363636363637L170.823611,-23.727272727272744L171.334992,-15.818181818181804L171.494887,68.01818181818182L171.574693,63.27272727272727L171.791754,-12.65454545454546L171.831091,61.69090909090908L172.049284,3.163636363636365L172.32153,82.25454545454546L172.542553,64.85454545454544L172.65462100000002,75.92727272727274L172.86970100000002,4.745454545454537L173.276938,77.5090909090909L173.345141,-14.236363636363631L173.737945,61.69090909090908L173.845202,71.18181818181817L173.944818,82.25454545454546L174.144333,58.52727272727272L174.75165099999998,99.65454545454546L174.831174,63.27272727272727L175.016539,64.85454545454544L175.069177,136.03636363636363L175.233883,77.5090909090909L175.312557,61.69090909090908L175.579426,58.52727272727272L175.817146,-20.563636363636363L176.25522999999998,-22.145454545454534L176.468046,85.41818181818182L176.927638,-12.65454545454546L176.96754099999998,64.85454545454544L177.203563,68.01818181818182L177.23950399999998,42.70909090909091L177.769846,58.52727272727272L177.93002399999997,64.85454545454544L178.01039600000001,66.43636363636364L178.08963599999998,66.43636363636364L178.18812,-4.745454545454557L178.311791,60.10909090909091L178.654787,79.0909090909091L178.86449,60.10909090909091L178.930995,74.34545454545454L179.357476,71.18181818181817L179.396813,61.69090909090908L179.607648,58.52727272727272L179.878479,71.18181818181817L180.776721,63.27272727272727L181.01104500000002,58.52727272727272L181.087455,55.363636363636374L181.911834,55.363636363636374L182.021355,7.909090909090902L182.176722,60.10909090909091L182.21521,56.945454545454545L182.255113,64.85454545454544L182.465948,60.10909090909091L182.583393,66.43636363636364L182.65159599999998,-12.65454545454546L182.987517,56.945454545454545L183.257782,58.52727272727272L183.442298,58.52727272727272L183.749919,55.363636363636374L183.908116,61.69090909090908L184.062634,56.945454545454545L184.53581,55.363636363636374L184.613635,58.52727272727272L184.73164599999998,63.27272727272727L185.203124,61.69090909090908L185.35877399999998,61.69090909090908L185.549516,56.945454545454545L185.618002,56.945454545454545L185.992411,61.69090909090908L186.07080200000001,64.85454545454544L186.13759000000002,61.69090909090908L186.658593,74.34545454545454L187.275533,68.01818181818182L187.47193499999997,68.01818181818182L187.738238,-9.490909090909074L188.734681,58.52727272727272L188.77316900000002,56.945454545454545L188.81194,58.52727272727272L189.08899699999998,90.16363636363637L189.471613,60.10909090909091L189.809798,60.10909090909091L190.033085,66.43636363636364L190.07440300000002,72.76363636363637L190.21845000000002,56.945454545454545L190.64691200000001,15.818181818181824L190.904725,61.69090909090908L191.123484,60.10909090909091L191.240646,60.10909090909091L191.844002,83.83636363636363L191.99965200000003,55.363636363636374L192.27812400000002,66.43636363636364L192.43575499999997,61.69090909090908L192.63527,71.18181818181817L192.826012,82.25454545454546L192.989869,77.5090909090909L193.029489,63.27272727272727L193.46615799999998,77.5090909090909L193.50606100000002,64.85454545454544L193.950088,58.52727272727272L194.021121,68.01818181818182L194.061024,64.85454545454544L194.327327,69.60000000000001L194.405152,60.10909090909091L194.450715,96.4909090909091L194.489203,56.945454545454545L194.52854,61.69090909090908L194.762864,61.69090909090908L195.65120100000001,63.27272727272727L196.341438,66.43636363636364L196.53217999999998,64.85454545454544L196.58878,158.1818181818182L196.666322,60.10909090909091L197.00309199999998,58.52727272727272L197.48306,69.60000000000001L199.41000699999998,63.27272727272727L200.00458999999998,151.85454545454547L200.04477599999998,66.43636363636364L200.508047,68.01818181818182L200.546818,58.52727272727272L200.639642,140.78181818181818L200.723693,91.74545454545455L200.843119,60.10909090909091L200.89519099999998,132.87272727272727L200.980657,3.163636363636365L202.06199999999998,158.1818181818182L202.29660700000002,71.18181818181817L202.41716499999998,55.363636363636374L202.553005,55.363636363636374L202.779688,55.363636363636374L203.27125900000001,158.1818181818182L203.66717599999998,64.85454545454544L203.804148,56.945454545454545L203.843768,63.27272727272727L204.206008,56.945454545454545L204.460708,82.25454545454546L205.206696,158.1818181818182L205.490828,56.945454545454545L205.696003,143.94545454545454L205.827598,151.85454545454547L206.07578900000001,69.60000000000001L206.18502700000002,136.03636363636363L206.597924,158.1818181818182L206.751876,53.78181818181818L207.038555,145.52727272727273L207.285048,50.61818181818182L207.53295599999998,66.43636363636364L207.92151500000003,134.45454545454544L208.255172,58.52727272727272L208.408558,58.52727272727272L208.775326,61.69090909090908L209.477449,123.38181818181819L209.77884400000002,55.363636363636374L209.903364,22.14545454545455L210.008074,139.20000000000002L210.063825,153.43636363636364L210.262491,134.45454545454544L210.312582,121.8L210.86301699999999,63.27272727272727L211.121679,64.85454545454544L211.16101600000002,61.69090909090908L211.254123,60.10909090909091L211.505427,63.27272727272727L211.63221099999998,53.78181818181818L211.868516,132.87272727272727L212.037184,60.10909090909091L212.350182,61.69090909090908L212.752608,129.70909090909092L213.047777,151.85454545454547L213.230029,129.70909090909092L213.346625,58.52727272727272L213.672358,56.945454545454545L213.73829700000002,-7.909090909090902L214.270337,158.1818181818182L214.45768299999997,158.1818181818182L214.496171,56.945454545454545L215.32988899999998,52.20000000000001L215.37403700000002,88.58181818181818L215.492897,69.60000000000001L215.779859,74.34545454545454L215.875796,136.03636363636363L216.213698,58.52727272727272L216.29350399999998,69.60000000000001L216.33623699999998,80.67272727272727L216.927424,77.5090909090909L217.006664,69.60000000000001L217.43399399999998,56.945454545454545L217.568136,158.1818181818182L218.0232,75.92727272727274L218.159606,63.27272727272727L218.256675,68.01818181818182L218.348933,140.78181818181818L218.874464,64.85454545454544L219.54602300000002,64.85454545454544L219.76364999999998,79.0909090909091L220.174566,74.34545454545454L220.432662,79.0909090909091L220.75811199999998,77.5090909090909L221.032905,158.1818181818182L221.13167199999998,79.0909090909091L221.30005699999998,87L221.606546,74.34545454545454L221.64673200000001,66.43636363636364L221.686352,63.27272727272727L222.105758,68.01818181818182L222.950513,66.43636363636364L223.154839,68.01818181818182L223.360014,63.27272727272727L223.602262,64.85454545454544L224.003273,61.69090909090908L224.20363700000001,64.85454545454544L224.448149,69.60000000000001L224.60861,68.01818181818182L224.649362,69.60000000000001L224.980189,64.85454545454544L225.100181,69.60000000000001L225.139801,63.27272727272727L225.22045599999998,64.85454545454544L225.34044799999998,61.69090909090908L225.38035100000002,64.85454545454544L225.42082000000002,68.01818181818182L225.623165,-22.145454545454534L225.704386,69.60000000000001L225.81135999999998,66.43636363636364L225.852961,74.34545454545454L225.878714,-14.236363636363631L225.903335,-20.563636363636363L225.983707,64.85454545454544L226.090398,66.43636363636364L226.130867,68.01818181818182L226.368587,66.43636363636364L226.619608,68.01818181818182L226.704791,71.18181818181817L226.812331,64.85454545454544L227.25550900000002,36.38181818181818L227.55803600000002,75.92727272727274L227.58265699999998,-20.563636363636363L227.62256000000002,64.85454545454544L227.838772,71.18181818181817L228.123753,61.69090909090908L228.29921299999998,158.1818181818182L228.585892,-14.236363636363631L229.089066,63.27272727272727L229.304712,69.60000000000001L229.371217,64.85454545454544L229.490643,66.43636363636364L229.72751399999999,71.18181818181817L229.957593,69.60000000000001L230.080132,68.01818181818182L230.159372,63.27272727272727L230.187389,-1.5818181818181727L230.85979700000001,-14.236363636363631L231.218358,124.96363636363638L231.668328,6.32727272727273L231.78152799999998,31.636363636363626L231.902652,69.60000000000001L232.380356,68.01818181818182L232.676657,-12.65454545454546L232.985976,66.43636363636364L233.026162,66.43636363636364L233.132004,66.43636363636364L233.229356,69.60000000000001L233.27095699999998,74.34545454545454L233.82903299999998,63.27272727272727L234.1259,-12.65454545454546L234.763499,68.01818181818182L235.05923399999998,-18.981818181818188L235.273465,75.92727272727274L235.39458900000002,68.01818181818182L235.43505800000003,68.01818181818182L235.65240200000002,68.01818181818182L236.114541,66.43636363636364L236.18614,68.01818181818182L236.226892,69.60000000000001L236.283209,156.6L236.52573999999998,68.01818181818182L236.70912399999997,64.85454545454544L237.201544,-20.563636363636363L237.82782300000002,71.18181818181817L238.068656,15.818181818181824L238.256002,-15.818181818181804L238.312602,158.1818181818182L238.54664300000002,66.43636363636364L238.86388599999998,142.36363636363635L238.995764,-14.236363636363631L239.044723,-18.981818181818188L239.292348,74.34545454545454L239.317535,-17.400000000000016L239.371305,-14.236363636363631L239.577612,72.76363636363637L239.69251,117.05454545454546L240.31567600000002,71.18181818181817L240.522832,66.43636363636364L240.830453,66.43636363636364L241.071852,68.01818181818182L241.23486,71.18181818181817L241.35711600000002,71.18181818181817L241.920286,-9.490909090909074L242.25932,-25.30909090909092L242.437893,79.0909090909091L242.49109700000002,139.20000000000002L243.245575,68.01818181818182L243.35990700000002,107.56363636363636L243.400659,69.60000000000001L243.469994,-23.727272727272744L243.57413799999998,-3.1636363636363454L243.734599,69.60000000000001L243.761484,-7.909090909090902L244.165042,75.92727272727274L244.37304699999999,64.85454545454544L244.52105600000002,64.85454545454544L245.403733,-22.145454545454534L245.903511,72.76363636363637L246.22981000000001,68.01818181818182L246.404138,-20.563636363636363L246.42932499999998,-17.400000000000016L246.50799899999998,121.8L246.548751,69.60000000000001L246.97551499999997,64.85454545454544L247.015701,66.43636363636364L247.610567,68.01818181818182L247.732823,63.27272727272727L248.170907,66.43636363636364L248.21052699999998,63.27272727272727L248.29514400000002,71.18181818181817L248.335047,64.85454545454544L248.716531,64.85454545454544L248.970382,69.60000000000001L249.13056,66.43636363636364L249.297813,66.43636363636364L249.649865,63.27272727272727L249.830702,-20.563636363636363L249.917866,88.58181818181818L249.99880399999998,66.43636363636364L250.33897,-22.145454545454534L250.513581,-3.1636363636363454L250.71422800000002,66.43636363636364L251.336545,64.85454545454544L251.376448,64.85454545454544L251.445783,72.76363636363637L251.61812999999998,-14.236363636363631L251.950372,58.52727272727272L252.201676,101.23636363636363L252.70966099999998,63.27272727272727L253.077278,15.818181818181824L253.15170700000002,11.072727272727267L253.301131,64.85454545454544L253.341034,64.85454545454544L253.468101,-17.400000000000016L253.673276,66.43636363636364L253.886375,44.29090909090909L254.072306,64.85454545454544L254.192298,64.85454545454544L254.278047,66.43636363636364L254.684435,-4.745454545454557L254.848575,75.92727272727274L255.15930899999998,-11.072727272727287L255.305337,-12.65454545454546L255.468911,87L255.668709,64.85454545454544L255.70889499999998,66.43636363636364L255.87048800000002,68.01818181818182L256.15179,61.69090909090908L256.362908,66.43636363636364L256.419508,3.163636363636365L256.505823,71.18181818181817L256.544594,58.52727272727272L256.90768299999996,60.10909090909091L256.947586,64.85454545454544L256.986357,58.52727272727272L257.20172,56.945454545454545L257.670651,69.60000000000001L257.849224,18.981818181818188L258.165901,64.85454545454544L258.232406,-12.65454545454546L258.623229,69.60000000000001L258.689451,66.43636363636364L259.254602,105.98181818181818L259.67400799999996,63.27272727272727" style="fill: none;" fill="none"></path></g></g></g></g></g></g><g transform="translate(47, 174)" clip-path="url(#clip_1)"><clipPath id="clip_1"><rect width="283" height="26"></rect></clipPath><g><g><line x1="0" y1="0" x2="0" y2="5" style="visibility: inherit;" fill="rgb(0, 0, 0)" stroke="rgb(204, 204, 204)" stroke-width="1px"></line><line x1="28.3" y1="0" x2="28.3" y2="5" style="visibility: inherit;" fill="rgb(0, 0, 0)" stroke="rgb(204, 204, 204)" stroke-width="1px"></line><line x1="56.6" y1="0" x2="56.6" y2="5" style="visibility: inherit;" fill="rgb(0, 0, 0)" stroke="rgb(204, 204, 204)" stroke-width="1px"></line><line x1="84.89999999999999" y1="0" x2="84.89999999999999" y2="5" style="visibility: inherit;" fill="rgb(0, 0, 0)" stroke="rgb(204, 204, 204)" stroke-width="1px"></line><line x1="113.2" y1="0" x2="113.2" y2="5" style="visibility: inherit;" fill="rgb(0, 0, 0)" stroke="rgb(204, 204, 204)" stroke-width="1px"></line><line x1="141.5" y1="0" x2="141.5" y2="5" style="visibility: inherit;" fill="rgb(0, 0, 0)" stroke="rgb(204, 204, 204)" stroke-width="1px"></line><line x1="169.79999999999998" y1="0" x2="169.79999999999998" y2="5" style="visibility: inherit;" fill="rgb(0, 0, 0)" stroke="rgb(204, 204, 204)" stroke-width="1px"></line><line x1="198.1" y1="0" x2="198.1" y2="5" style="visibility: inherit;" fill="rgb(0, 0, 0)" stroke="rgb(204, 204, 204)" stroke-width="1px"></line><line x1="226.4" y1="0" x2="226.4" y2="5" style="visibility: inherit;" fill="rgb(0, 0, 0)" stroke="rgb(204, 204, 204)" stroke-width="1px"></line><line x1="254.70000000000002" y1="0" x2="254.70000000000002" y2="5" style="visibility: inherit;" fill="rgb(0, 0, 0)" stroke="rgb(204, 204, 204)" stroke-width="1px"></line><line x1="283" y1="0" x2="283" y2="5" style="visibility: inherit;" fill="rgb(0, 0, 0)" stroke="rgb(204, 204, 204)" stroke-width="1px"></line></g><g transform="translate(0, 8)"><text x="0" y="0" dx="0em" dy="0.95em" style="text-anchor: middle; visibility: hidden; font-family: Roboto, sans-serif; font-size: 12px; font-weight: 200;" fill="rgb(33, 33, 33)" stroke="none" stroke-width="1px">-100k</text><text x="28.3" y="0" dx="0em" dy="0.95em" style="text-anchor: middle; visibility: inherit; font-family: Roboto, sans-serif; font-size: 12px; font-weight: 200;" fill="rgb(33, 33, 33)" stroke="none" stroke-width="1px">0</text><text x="56.6" y="0" dx="0em" dy="0.95em" style="text-anchor: middle; visibility: hidden; font-family: Roboto, sans-serif; font-size: 12px; font-weight: 200;" fill="rgb(33, 33, 33)" stroke="none" stroke-width="1px">100k</text><text x="84.89999999999999" y="0" dx="0em" dy="0.95em" style="text-anchor: middle; visibility: inherit; font-family: Roboto, sans-serif; font-size: 12px; font-weight: 200;" fill="rgb(33, 33, 33)" stroke="none" stroke-width="1px">200k</text><text x="113.2" y="0" dx="0em" dy="0.95em" style="text-anchor: middle; visibility: hidden; font-family: Roboto, sans-serif; font-size: 12px; font-weight: 200;" fill="rgb(33, 33, 33)" stroke="none" stroke-width="1px">300k</text><text x="141.5" y="0" dx="0em" dy="0.95em" style="text-anchor: middle; visibility: inherit; font-family: Roboto, sans-serif; font-size: 12px; font-weight: 200;" fill="rgb(33, 33, 33)" stroke="none" stroke-width="1px">400k</text><text x="169.79999999999998" y="0" dx="0em" dy="0.95em" style="text-anchor: middle; visibility: hidden; font-family: Roboto, sans-serif; font-size: 12px; font-weight: 200;" fill="rgb(33, 33, 33)" stroke="none" stroke-width="1px">500k</text><text x="198.1" y="0" dx="0em" dy="0.95em" style="text-anchor: middle; visibility: inherit; font-family: Roboto, sans-serif; font-size: 12px; font-weight: 200;" fill="rgb(33, 33, 33)" stroke="none" stroke-width="1px">600k</text><text x="226.4" y="0" dx="0em" dy="0.95em" style="text-anchor: middle; visibility: hidden; font-family: Roboto, sans-serif; font-size: 12px; font-weight: 200;" fill="rgb(33, 33, 33)" stroke="none" stroke-width="1px">700k</text><text x="254.70000000000002" y="0" dx="0em" dy="0.95em" style="text-anchor: middle; visibility: inherit; font-family: Roboto, sans-serif; font-size: 12px; font-weight: 200;" fill="rgb(33, 33, 33)" stroke="none" stroke-width="1px">800k</text><text x="283" y="0" dx="0em" dy="0.95em" style="text-anchor: middle; visibility: hidden; font-family: Roboto, sans-serif; font-size: 12px; font-weight: 200;" fill="rgb(33, 33, 33)" stroke="none" stroke-width="1px">900k</text></g><line x1="0" y1="0" x2="283" y2="0" fill="rgb(0, 0, 0)" stroke="rgb(204, 204, 204)" stroke-width="1px"></line></g></g></g></g></svg>