<svg viewBox="0 0 330 200" xmlns="http://www.w3.org/2000/svg"><g><g><g><g><g><line x1="51.5625" y1="177" x2="46.5625" y2="177" style="visibility: inherit;" fill="rgb(0, 0, 0)" stroke="rgb(204, 204, 204)" stroke-width="1px"></line><line x1="51.5625" y1="164.35714285714286" x2="46.5625" y2="164.35714285714286" style="visibility: inherit;" fill="rgb(0, 0, 0)" stroke="rgb(204, 204, 204)" stroke-width="1px"></line><line x1="51.5625" y1="151.71428571428572" x2="46.5625" y2="151.71428571428572" style="visibility: inherit;" fill="rgb(0, 0, 0)" stroke="rgb(204, 204, 204)" stroke-width="1px"></line><line x1="51.5625" y1="139.07142857142856" x2="46.5625" y2="139.07142857142856" style="visibility: inherit;" fill="rgb(0, 0, 0)" stroke="rgb(204, 204, 204)" stroke-width="1px"></line><line x1="51.5625" y1="126.42857142857143" x2="46.5625" y2="126.42857142857143" style="visibility: inherit;" fill="rgb(0, 0, 0)" stroke="rgb(204, 204, 204)" stroke-width="1px"></line><line x1="51.5625" y1="113.78571428571428" x2="46.5625" y2="113.78571428571428" style="visibility: inherit;" fill="rgb(0, 0, 0)" stroke="rgb(204, 204, 204)" stroke-width="1px"></line><line x1="51.5625" y1="101.14285714285714" x2="46.5625" y2="101.14285714285714" style="visibility: inherit;" fill="rgb(0, 0, 0)" stroke="rgb(204, 204, 204)" stroke-width="1px"></line><line x1="51.5625" y1="88.5" x2="46.5625" y2="88.5" style="visibility: inherit;" fill="rgb(0, 0, 0)" stroke="rgb(204, 204, 204)" stroke-width="1px"></line><line x1="51.5625" y1="75.85714285714286" x2="46.5625" y2="75.85714285714286" style="visibility: inherit;" fill="rgb(0, 0, 0)" stroke="rgb(204, 204, 204)" stroke-width="1px"></line><line x1="51.5625" y1="63.21428571428571" x2="46.5625" y2="63.21428571428571" style="visibility: inherit;" fill="rgb(0, 0, 0)" stroke="rgb(204, 204, 204)" stroke-width="1px"></line><line x1="51.5625" y1="50.57142857142857" x2="46.5625" y2="50.57142857142857" style="visibility: inherit;" fill="rgb(0, 0, 0)" stroke="rgb(204, 204, 204)" stroke-width="1px"></line><line x1="51.5625" y1="37.92857142857143" x2="46.5625" y2="37.92857142857143" style="visibility: inherit;" fill="rgb(0, 0, 0)" stroke="rgb(204, 204, 204)" stroke-width="1px"></line><line x1="51.5625" y1="25.285714285714295" x2="46.5625" y2="25.285714285714295" style="visibility: inherit;" fill="rgb(0, 0, 0)" stroke="rgb(204, 204, 204)" stroke-width="1px"></line><line x1="51.5625" y1="12.642857142857137" x2="46.5625" y2="12.642857142857137" style="visibility: inherit;" fill="rgb(0, 0, 0)" stroke="rgb(204, 204, 204)" stroke-width="1px"></line><line x1="51.5625" y1="0" x2="46.5625" y2="0" style="visibility: inherit;" fill="rgb(0, 0, 0)" stroke="rgb(204, 204, 204)" stroke-width="1px"></line></g><g transform="translate(41.5625, 0)"><text x="0" y="177" dx="0em" dy="0.3em" style="text-anchor: end; visibility: hidden; font-family: Roboto, sans-serif; font-size: 12px; font-weight: 200;" fill="rgb(33, 33, 33)" stroke="none" stroke-width="1px">-350</text><text x="0" y="164.35714285714286" dx="0em" dy="0.3em" style="text-anchor: end; visibility: inherit; font-family: Roboto, sans-serif; font-size: 12px; font-weight: 200;" fill="rgb(33, 33, 33)" stroke="none" stroke-width="1px">-300</text><text x="0" y="151.71428571428572" dx="0em" dy="0.3em" style="text-anchor: end; visibility: hidden; font-family: Roboto, sans-serif; font-size: 12px; font-weight: 200;" fill="rgb(33, 33, 33)" stroke="none" stroke-width="1px">-250</text><text x="0" y="139.07142857142856" dx="0em" dy="0.3em" style="text-anchor: end; visibility: inherit; font-family: Roboto, sans-serif; font-size: 12px; font-weight: 200;" fill="rgb(33, 33, 33)" stroke="none" stroke-width="1px">-200</text><text x="0" y="126.42857142857143" dx="0em" dy="0.3em" style="text-anchor: end; visibility: hidden; font-family: Roboto, sans-serif; font-size: 12px; font-weight: 200;" fill="rgb(33, 33, 33)" stroke="none" stroke-width="1px">-150</text><text x="0" y="113.78571428571428" dx="0em" dy="0.3em" style="text-anchor: end; visibility: inherit; font-family: Roboto, sans-serif; font-size: 12px; font-weight: 200;" fill="rgb(33, 33, 33)" stroke="none" stroke-width="1px">-100</text><text x="0" y="101.14285714285714" dx="0em" dy="0.3em" style="text-anchor: end; visibility: hidden; font-family: Roboto, sans-serif; font-size: 12px; font-weight: 200;" fill="rgb(33, 33, 33)" stroke="none" stroke-width="1px">-50</text><text x="0" y="88.5" dx="0em" dy="0.3em" style="text-anchor: end; visibility: inherit; font-family: Roboto, sans-serif; font-size: 12px; font-weight: 200;" fill="rgb(33, 33, 33)" stroke="none" stroke-width="1px">0</text><text x="0" y="75.85714285714286" dx="0em" dy="0.3em" style="text-anchor: end; visibility: hidden; font-family: Roboto, sans-serif; font-size: 12px; font-weight: 200;" fill="rgb(33, 33, 33)" stroke="none" stroke-width="1px">50</text><text x="0" y="63.21428571428571" dx="0em" dy="0.3em" style="text-anchor: end; visibility: inherit; font-family: Roboto, sans-serif; font-size: 12px; font-weight: 200;" fill="rgb(33, 33, 33)" stroke="none" stroke-width="1px">100</text><text x="0" y="50.57142857142857" dx="0em" dy="0.3em" style="text-anchor: end; visibility: hidden; font-family: Roboto, sans-serif; font-size: 12px; font-weight: 200;" fill="rgb(33, 33, 33)" stroke="none" stroke-width="1px">150</text><text x="0" y="37.92857142857143" dx="0em" dy="0.3em" style="text-anchor: end; visibility: inherit; font-family: Roboto, sans-serif; font-size: 12px; font-weight: 200;" fill="rgb(33, 33, 33)" stroke="none" stroke-width="1px">200</text><text x="0" y="25.285714285714295" dx="0em" dy="0.3em" style="text-anchor: end; visibility: hidden; font-family: Roboto, sans-serif; font-size: 12px; font-weight: 200;" fill="rgb(33, 33, 33)" stroke="none" stroke-width="1px">250</text><text x="0" y="12.642857142857137" dx="0em" dy="0.3em" style="text-anchor: end; visibility: inherit; font-family: Roboto, sans-serif; font-size: 12px; font-weight: 200;" fill="rgb(33, 33, 33)" stroke="none" stroke-width="1px">300</text><text x="0" y="0" dx="0em" dy="0.3em" style="text-anchor: end; visibility: hidden; font-family: Roboto, sans-serif; font-size: 12px; font-weight: 200;" fill="rgb(33, 33, 33)" stroke="none" stroke-width="1px">350</text></g><line x1="51.5625" y1="0" x2="51.5625" y2="177" fill="rgb(0, 0, 0)" stroke="rgb(204, 204, 204)" stroke-width="1px"></line></g></g><g transform="translate(51, 0)" clip-path="url(#clip_0)"><clipPath id="clip_0"><rect width="278" height="177"></rect></clipPath><g><g><g><line x1="0" y1="0" x2="0" y2="177" fill="rgb(0, 0, 0)" stroke="rgb(66, 66, 66)" stroke-width="1px" opacity="0.25"></line><line x1="23.203125" y1="0" x2="23.203125" y2="177" fill="rgb(0, 0, 0)" stroke="rgb(66, 66, 66)" stroke-width="1px" opacity="0.25"></line><line x1="46.40625" y1="0" x2="46.40625" y2="177" fill="rgb(0, 0, 0)" stroke="rgb(66, 66, 66)" stroke-width="1px" opacity="0.25"></line><line x1="69.609375" y1="0" x2="69.609375" y2="177" fill="rgb(0, 0, 0)" stroke="rgb(66, 66, 66)" stroke-width="1px" opacity="0.25"></line><line x1="92.8125" y1="0" x2="92.8125" y2="177" fill="rgb(0, 0, 0)" stroke="rgb(66, 66, 66)" stroke-width="1px" opacity="0.25"></line><line x1="116.015625" y1="0" x2="116.015625" y2="177" fill="rgb(0, 0, 0)" stroke="rgb(66, 66, 66)" stroke-width="1px" opacity="0.25"></line><line x1="139.21875" y1="0" x2="139.21875" y2="177" fill="rgb(0, 0, 0)" stroke="rgb(66, 66, 66)" stroke-width="1px" opacity="0.25"></line><line x1="162.421875" y1="0" x2="162.421875" y2="177" fill="rgb(0, 0, 0)" stroke="rgb(66, 66, 66)" stroke-width="1px" opacity="0.25"></line><line x1="185.625" y1="0" x2="185.625" y2="177" fill="rgb(0, 0, 0)" stroke="rgb(66, 66, 66)" stroke-width="1px" opacity="0.25"></line><line x1="208.828125" y1="0" x2="208.828125" y2="177" fill="rgb(0, 0, 0)" stroke="rgb(66, 66, 66)" stroke-width="1px" opacity="0.25"></line><line x1="232.03125" y1="0" x2="232.03125" y2="177" fill="rgb(0, 0, 0)" stroke="rgb(66, 66, 66)" stroke-width="1px" opacity="0.25"></line><line x1="255.234375" y1="0" x2="255.234375" y2="177" fill="rgb(0, 0, 0)" stroke="rgb(66, 66, 66)" stroke-width="1px" opacity="0.25"></line><line x1="278.4375" y1="0" x2="278.4375" y2="177" fill="rgb(0, 0, 0)" stroke="rgb(66, 66, 66)" stroke-width="1px" opacity="0.25"></line></g><g><line x1="0" y1="177" x2="278.4375" y2="177" fill="rgb(0, 0, 0)" stroke="rgb(66, 66, 66)" stroke-width="1px" opacity="0.25"></line><line x1="0" y1="164.35714285714286" x2="278.4375" y2="164.35714285714286" fill="rgb(0, 0, 0)" stroke="rgb(66, 66, 66)" stroke-width="1px" opacity="0.25"></line><line x1="0" y1="151.71428571428572" x2="278.4375" y2="151.71428571428572" fill="rgb(0, 0, 0)" stroke="rgb(66, 66, 66)" stroke-width="1px" opacity="0.25"></line><line x1="0" y1="139.07142857142856" x2="278.4375" y2="139.07142857142856" fill="rgb(0, 0, 0)" stroke="rgb(66, 66, 66)" stroke-width="1px" opacity="0.25"></line><line x1="0" y1="126.42857142857143" x2="278.4375" y2="126.42857142857143" fill="rgb(0, 0, 0)" stroke="rgb(66, 66, 66)" stroke-width="1px" opacity="0.25"></line><line x1="0" y1="113.78571428571428" x2="278.4375" y2="113.78571428571428" fill="rgb(0, 0, 0)" stroke="rgb(66, 66, 66)" stroke-width="1px" opacity="0.25"></line><line x1="0" y1="101.14285714285714" x2="278.4375" y2="101.14285714285714" fill="rgb(0, 0, 0)" stroke="rgb(66, 66, 66)" stroke-width="1px" opacity="0.25"></line><line x1="0" y1="88.5" x2="278.4375" y2="88.5" fill="rgb(0, 0, 0)" stroke="rgb(66, 66, 66)" stroke-width="1px" opacity="0.25"></line><line x1="0" y1="75.85714285714286" x2="278.4375" y2="75.85714285714286" fill="rgb(0, 0, 0)" stroke="rgb(66, 66, 66)" stroke-width="1px" opacity="0.25"></line><line x1="0" y1="63.21428571428571" x2="278.4375" y2="63.21428571428571" fill="rgb(0, 0, 0)" stroke="rgb(66, 66, 66)" stroke-width="1px" opacity="0.25"></line><line x1="0" y1="50.57142857142857" x2="278.4375" y2="50.57142857142857" fill="rgb(0, 0, 0)" stroke="rgb(66, 66, 66)" stroke-width="1px" opacity="0.25"></line><line x1="0" y1="37.92857142857143" x2="278.4375" y2="37.92857142857143" fill="rgb(0, 0, 0)" stroke="rgb(66, 66, 66)" stroke-width="1px" opacity="0.25"></line><line x1="0" y1="25.285714285714295" x2="278.4375" y2="25.285714285714295" fill="rgb(0, 0, 0)" stroke="rgb(66, 66, 66)" stroke-width="1px" opacity="0.25"></line><line x1="0" y1="12.642857142857137" x2="278.4375" y2="12.642857142857137" fill="rgb(0, 0, 0)" stroke="rgb(66, 66, 66)" stroke-width="1px" opacity="0.25"></line><line x1="0" y1="0" x2="278.4375" y2="0" fill="rgb(0, 0, 0)" stroke="rgb(66, 66, 66)" stroke-width="1px" opacity="0.25"></line></g></g></g><g><g><line x1="0" y1="88.5" x2="278.4375" y2="88.5" fill="rgb(0, 0, 0)" stroke="rgb(153, 153, 153)" stroke-width="1.5px"></line></g></g><g><g><line x1="23.203125" y1="0" x2="23.203125" y2="177" fill="rgb(0, 0, 0)" stroke="rgb(153, 153, 153)" stroke-width="1.5px"></line></g></g><g><g><g><g><g><path stroke="rgb(255, 112, 67)" stroke-width="2px" d="M23.26883625,128.76381918770926L23.31561375,155.0139404090365L23.32081125,150.9154374285403L23.38095375,165.47804181479685L23.4295875,153.4823309329206L23.56583625,146.7879682701805L23.5869975,148.52367426415447L23.725102500000002,142.49690619488373L23.73809625,134.97112957591852L23.78710125,131.70534266469105L23.834249999999997,138.2109056136622L23.90961375,145.323404894424L23.915925,146.61792907344255L23.92891875,142.7436975841035L24.162435000000002,145.2574464435161L24.25636125,145.99298152230793L24.292001250000002,140.81094871084184L24.458321249999997,140.83709307318136L24.52885875,138.00299765687757L24.5760075,139.50507004071596L24.589743749999997,148.27066621252612L24.59419875,143.77000507426413L24.726363749999997,144.81152309344222L24.75792,141.9316104378721L24.790961250000002,138.75722789053975L24.821403749999998,142.678463399362L24.9324075,144.33103581509704L24.9606225,142.3565159904751L25.086105,140.27618130150992L25.09353,138.25932674668377L25.13919375,135.55303831605283L25.1462475,139.6341306298186L25.19488125,138.15559179884482L25.205276249999997,134.369408775666L25.2977175,132.1163916491312L25.62404625,132.98957785018067L25.71091875,135.44673645603837L25.713517500000002,139.14174732548793L25.748414999999998,135.64777986619683L25.84828125,138.57930249126989L25.87278375,144.77638516660022L26.051355,141.7948649166873L26.05878,137.87257724103716L26.14750875,137.1689822099713L26.1872325,138.63171293011894L26.36580375,136.0015168308801L26.4322575,131.45184181041452L26.832093750000002,129.61794769840466L27.13800375,125.82915526944434L27.153225,125.12441054885312L27.218565,120.615374612516L27.233415,118.70024087685943L27.56048625,118.6429202836105L27.601695000000003,115.01077861858393L27.73942875,112.13698357459926L27.821475,107.71273413222976L27.907976249999997,104.33182539537465L28.2187125,103.62773492344782L28.33194375,99.62552040356914L28.52276625,100.85760584740304L28.9240875,98.27414061249394L29.45014875,96.35636998040754L29.8061775,93.66073475760328L30.10280625,93.53651458091109L30.25724625,92.95105406510449L30.6437175,93.86294391028399L31.44970125,95.12146667701576L32.585355,95.12479014791475L32.9766525,96.08287296476524L33.27291,96.41135039345482L33.59849625,97.11475944721757L33.64416,98.83566837702611L33.68017125,100.30145538860877L34.71336,100.9362145370482L35.782931250000004,100.52966550914454L36.18016875,100.07447638527871L36.300453749999996,100.0541931310658L36.578148750000004,96.39872755609085L36.603393749999995,94.6864355005896L36.7411275,90.66480102998015L37.563075000000005,86.91846159720673L37.87306875,91.05528391762665L38.1355425,94.2930877433346L39.23629875,91.41043430435002L39.79168875,85.70064056375705L40.6318275,84.96959048519116L40.7031075,82.44418260812431L40.788866250000005,85.77490016676762L40.90284,82.64783699692083L42.40974375,86.38237359343104L42.638062500000004,88.02905213876534L42.837052500000006,89.80069808739889L43.11066375,87.04241042968202L43.250625,82.3268731967226L43.270301249999996,78.0970093859828L43.498991249999996,78.21641957428324L43.59477375,75.00817811616776L44.1884025,71.84407331362084L44.33281875,71.22269356937159L44.816186249999994,72.19200860295618L45.18520875,68.9604237542504L45.213795,71.21184152440223L45.248321250000004,74.99754562674948L45.76287375,75.30350442124931L45.9629775,78.36619106467708L45.967803749999995,80.38866490897786L46.024976249999995,83.69304400442958L46.339425,89.80045613516216L46.3446225,92.98928747846098L46.45933875,89.2040107202974L46.4693625,90.60679276676014L46.511685,91.9324599532968L46.9594125,96.19974567665449L47.23228125,98.22351858450108L47.346255,98.71433232555785L49.86036,98.1660347196291L50.70384,101.14583699052247L50.9644575,95.69184597575519L51.59966625,98.44637882907185L53.540189999999996,100.99058395729959L54.87483375,98.35036674721935L55.48368375,100.64324101422767L55.83897,101.91225476306127L55.85493375,102.76851095604096L56.77340625,102.44006715553027L57.702645,104.1147829501467L58.18489875,104.60176657367873L58.6575,100.91661734172894L58.83755625,104.7883796103607L58.871711250000004,105.66182461194832L58.8795075,108.0441059710526L59.73449625000001,107.75373208552192L60.731302500000005,104.56054473627972L61.14339,105.34878246003812L61.380990000000004,107.05789941035164L61.613021249999996,107.5084307118956L61.84393875000001,110.11074958643685L62.0336475,111.68686314240371L63.577305,104.5228253252707L63.74622375,104.7677126232965L63.753648749999996,98.83818853340198L64.37215125,95.94827363557852L65.04634125,99.26418724616688L65.142495,99.68812212239656L65.76768,99.75796903083275L66.01122,101.36159682778953L66.05762625,102.46118631825327L66.0773025,99.55890687565545L66.57514875,100.76953134327975L67.27903875,103.8456966720448L67.55970375,104.37508970346818L67.8593025,104.90210134950604L68.3285625,98.7774350674625L68.3538075,99.4349839367554L69.00906375,101.94211536043271L69.04767375,102.88251038825148L69.18503625,103.84612312210466L69.91639875,104.56437053457418L70.0600725,105.2857623582688L70.18852500000001,99.65080495922695L70.50965624999999,100.8496960985813L70.56274499999999,98.36600137024587L70.64887499999999,94.14950392747268L70.91506125,96.01701936011597L70.96109625,97.58104206775172L71.3742975,93.5188298357881L71.48455875,95.26313751354348L71.51574375,96.60474984021344L72.5028975,91.7202888322923L72.93540374999999,86.81057413737115L73.5572475,83.21769294152904L73.72913625,78.95231377455089L73.91847375,76.5612367281758L74.8194975,79.56624134265262L75.1707,82.56648120467756L75.22601625,88.01159515193616L75.31882875,90.32797421632118L76.1708475,85.65457650660419L76.66423875,87.94641763672097L76.83538499999999,89.58959255422813L76.85951625,86.87297377795569L77.31095625,89.16921025494756L77.44460624999999,90.69255090832577L78.04269,91.9446771928049L79.0472925,94.9362176319686L79.13565,98.01154817492161L79.17166125,99.94486982393353L80.14285125,100.40245465599412L80.19482625,94.90501716361368L80.990415,91.16399979724419L81.41883750000001,86.26437386516822L82.6736625,87.57754382692963L83.5067475,86.43739339469023L85.04001,88.2071131275038L85.33366875,90.12308183042676L85.56532874999999,94.24010376917299L86.67759375,90.49752014426637L86.99241375000001,92.58002261119812L87.98884874999999,90.84928042224713L88.01780625,91.95229919356655L88.39017,86.25494827711438L88.82564625,88.24842560107226L89.86328999999999,83.04302916604313L89.8833375,82.49324252867738L90.11462625,86.62272883966376L90.57906,88.3483829599324L90.60282,84.56734122158834L91.08581625,83.75958852923792L91.37836125,85.45812200978183L91.50904125,81.05577628198128L91.566585,76.83752766285903L91.88289,73.2153050995344L91.90665,76.39263786159154L91.9623375,79.43566642233291L92.45016,79.08746751686544L92.742705,75.27463261029638L93.01000499999999,71.76633510071991L93.13808625,69.86602601628023L93.44399625,67.07132497993763L93.672315,63.98805288337792L93.77812125,62.7440407816768L94.92565499999999,67.19937718996367L95.01624,71.00512251454894L95.5352475,67.49661736259318L95.81294249999999,65.26352991472523L95.94473624999999,61.87605056506608L96.03792,60.88803117136072L96.173055,59.73913318157132L96.91481250000001,65.71377105576013L97.2177525,65.77724581023239L97.28494875,63.71201614361715L97.57081124999999,68.91765711753375L97.81694999999999,72.33524435254505L97.910505,75.04453823203224L98.11135125,77.687954352222L99.05841,79.68826739176302L99.13414499999999,76.09279237416267L99.33462,71.71790385760247L99.92156625,69.69289915558689L100.06189875,66.90198092666203L100.21782375,66.8945932860483L100.87011,70.31852319719232L100.93433624999999,69.60033173889167L101.21463,72.20425871260552L101.2473,72.00824582373946L101.35013624999999,67.2562984538636L101.628945,64.26593570048591L101.673495,61.816752269237696L102.71448,59.39499361596488L102.81026250000001,63.95808888176534L102.97249875,66.1414518586505L103.99343625,69.67842742158824L104.22880875,72.87359630391038L104.46715125,71.91306917125002L105.50850750000001,68.3636594076993L105.5827575,65.03397941488609L106.07243625000001,67.90754864003064L106.5933,67.22348437574051L106.8643125,64.74414562095455L107.40708,66.10858964094875L107.5251375,63.416898713175414L107.622405,64.98188754789238L107.62574625,62.086411500619995L107.74528874999999,64.94078142231047L107.9127225,67.66212445671938L108.0448875,65.06605627199716L108.36453374999999,61.507690619770855L108.45549,64.94609526957238L108.52788375,68.69708240977047L108.56500874999999,71.24733430330079L108.71759250000001,67.25605554128664L109.00791,69.78553326663231L109.94011875000001,65.88648601514569L110.33364375000001,70.01661262878125L110.49402375000001,69.13473913685539L110.7758025,70.73934568399112L110.86007624999999,68.17796506195027L111.48303375,69.10284816859634L111.70801125,69.15878381072109L111.76147125,64.61578930154421L111.89215125,61.50934408197811L112.23667125,57.19607797386347L112.8414375,53.766742576379066L113.06455874999999,58.280446536711224L113.5646325,55.702620482631815L113.89467375,53.141946438344426L114.01607249999999,52.60639027238034L114.10517250000001,51.19353351530125L114.2566425,51.936106584800406L115.22189250000001,50.004420589319004L115.22857499999999,48.4483962462771L115.53411375,46.26276833516769L115.558245,44.10006572694032L116.17117875,42.05266530310226L116.56618875000001,41.04577502183287L116.61222375,39.262641846867716L116.82532125,38.81399406712305L116.8398,43.3053533290379L116.939295,42.79248821228573L117.75344625,41.166204526903954L117.773865,39.91557795761896L117.97916625,44.98927876209213L118.08831375000001,43.54169874703664L118.60360875,44.64486630955397L119.01384,50.38245652785487L119.279655,54.36506098382917L119.2833675,51.42553306101822L119.34053999999999,55.88628562524505L119.793465,59.44160925461836L119.84358375,62.2651571859776L121.0133925,58.919327347768345L121.06573875000001,55.59616328974931L121.2242625,58.975496632860285L121.48896375,55.993974821223944L121.54428,53.299598636011424L121.63709250000001,50.34798058672389L121.65602625,53.29322370062407L121.694265,56.82731259856602L121.85835750000001,53.90905618132591L121.90996125,53.72617817288218L122.080365,51.95412245014616L122.20065,50.11537334338487L122.33875499999999,48.30141050463442L122.3870175,45.85523666085343L122.45866875,44.05620017520546L122.87892375,49.04518291009799L122.94612000000001,47.00066618638382L124.4778975,50.9807668428336L124.54880625,48.615491109826756L124.76227499999999,52.7948325196892L125.15320125,56.418558792624275L125.22596625,53.288405109755544L125.4995775,50.17408711639298L125.742375,47.483419397708474L126.13033125000001,51.33027395054148L126.1381275,55.22878154579801L126.369045,53.10832782315529L126.40505625,51.233154815620026L126.63300375,48.627908101060676L127.1375325,49.51333265568326L127.19730375,47.09162143208969L127.23665625000001,50.934042882249265L127.36065375,48.357779441366695L127.52511750000001,46.73542817874856L127.8473625,50.00286825359135L128.04561,53.72379003767696L128.094615,57.04157815048314L128.28061125,53.94013813938989L128.409435,51.77217611596081L128.85753375,49.03426714825075L129.374685,53.2991805869836L129.3991875,51.07208465876096L129.7273725,53.53246672219046L129.9026025,50.86473413819338L130.43534625,48.46576993632299L131.058675,52.35458195141708L131.08948875,49.455242718154565L131.10285375,53.11950531811295L131.31372375,51.08195871478589L131.468535,56.286482730087094L131.6742075,60.686653079667494L131.82530625,63.70732636940713L132.017985,60.10298151715183L132.1271325,62.78940153934923L132.82099875,60.49863963640831L133.0344675,57.80898496885776L133.12765124999999,53.98142487703613L134.17977374999998,51.260508862459616L134.21170125,49.111281735020164L134.40475125,53.92645117983915L134.435565,53.64467373109701L135.041445,51.516584871868474L135.20331,50.655192064177285L135.22966875,48.79993998248054L135.61131375,53.52863923843082L135.962145,51.762346849970704L135.96845625,50.50119040986412L136.5346125,48.630881122295676L136.7009325,52.967282761064475L136.838295,51.20552751395845L136.98568125,49.180331094524085L137.1271275,53.303675494938126L137.521395,54.26484091314801L137.9527875,58.56760265890856L137.96429625000002,55.08666242649984L138.1339575,57.669146186465646L138.19966875,61.99245840879199L138.430215,58.89662656065832L138.51077625,56.29877259643472L138.560895,59.174973151983316L138.661875,62.37488277438416L138.74949,59.795108340155146L138.87942750000002,63.43580376436849L139.30005375,60.72868767800557L139.3219575,58.34713039004598L139.67130375000002,59.21097137805381L139.69580625,56.19882675271704L139.91335875,53.19524191810868L139.93489125,50.390209469113096L139.977585,52.78445390306118L140.2842375,50.019086190890526L140.34549375,47.94463909131528L140.458725,52.19884033384795L140.50773,55.053674601418784L141.00483375000002,52.50105784754086L141.13143,55.59178836595275L141.17338125,52.37569039657985L141.50787749999998,55.030168255355015L141.64895249999998,51.98834122953701L141.65526375000002,55.110692733566935L141.679395,57.7936314762516L142.08665625,54.94069042378896L142.1597925,51.85145539848247L142.86553874999998,54.609156017888026L143.23307624999998,57.10456118418306L143.69862375,56.697281287339834L143.83821375,53.468681373850686L144.04982625,50.47979869265981L144.1274175,53.86283261624922L144.33346125,56.35698462139155L144.37726875,54.952250248782235L144.44001,54.41121066832714L144.62415,57.24890836522734L144.87734250000003,55.077253405605425L144.98017875000002,52.18686764503582L145.06965,49.27090322288715L145.17434250000002,46.64903464568075L145.317645,47.58440721478663L145.35514125,46.09012472259089L145.58680125,43.882248092791365L145.80398250000002,41.75094922170974L145.93763249999998,39.69059979601619L146.18228625,42.79856430023152L146.44438875,40.70014243180157L146.8286325,44.478117133628736L146.92998375,42.62843687037397L146.93518125,39.80301520220516L147.07328625,38.373405094774135L147.09667499999998,42.64592335811948L147.18094875,41.34229410693715L147.2637375,39.20967961672335L147.3201675,42.495475705126L147.426345,41.502234350172145L147.50987625,45.33438375113166L148.02665625,43.530285437751196L148.10981625,47.70568117523262L148.17849750000002,51.179651073892366L148.2052275,48.172969030119226L148.29618375,51.57566797044967L148.4962875,53.88950308772876L148.554945,50.31543245250501L148.98596625000002,53.34552620420493L149.0049,50.21600932858774L149.13669375,47.85626072552806L149.95938375,45.577620471020744L150.01618499999998,43.43254445471528L150.29982,40.662072549701335L150.53407875000002,38.99426676437057L150.70559624999999,38.34235325190881L151.3994625,36.17917121040934L151.95670875,36.413941794272155L152.31310875,34.58881164421157L152.51284124999998,33.33142199590369L152.97913125,38.16155520001729L153.07974000000002,36.422192683642784L153.30323249999998,34.9686839473307L153.49442625,39.02236206901608L153.68153625,38.08069925906969L153.73239750000002,41.57222566843754L153.87904125,43.34078447802376L154.00006875,46.88661975212343L154.28890124999998,50.54276518074802L154.4103,47.1088509106852L154.78934625000002,51.12063327406374L154.9010925,54.772133651556736L155.10787875,54.85861197820843L155.1683925,57.86138664791512L155.26417500000002,60.57572572599995L155.3629275,57.23285832089786L155.507715,53.92840015168475L155.51402625,51.83289043262397L155.6183475,54.64714156411831L155.87413875,52.12432897761788L155.96361,48.897822406062865L156.05568000000002,45.664954345667226L156.1455225,43.22322902654417L156.16668375,40.85545603320893L156.17373750000002,44.79464607790702L156.3875775,42.58858000788833L157.0127625,40.953503008599235L157.2874875,44.49499469153448L157.6394325,47.63486919622748L157.68806625,45.37199959489434L157.82914125000002,43.31462036425187L158.17032,41.2835818987321L158.38972875000002,38.660777794726634L158.6729925,36.21962733546186L159.05426625,41.05307214387188L159.19719750000002,39.61045759567472L159.25622625,38.3400894789295L159.27850125,42.04920108582432L159.63564374999999,40.09810639053712L159.66460125,39.33837931079212L159.941925,37.6744203818753L160.06369500000002,36.11652520560881L160.0985925,35.67761057174922L160.2352125,40.67754353430067L160.45016625,39.33941629966245L160.660665,38.099799171823726L160.80879375,42.65420672788395L160.93576124999998,41.24182880368302L161.30701125000002,45.644025863483925L161.51119874999998,43.23212295016147L161.5301325,47.499234918445545L161.62554375,45.13264124314675L161.65747125,43.33269252890112L161.8063425,47.664171687734566L162.36358875,45.60036663618347L162.888165,49.299430443516755L163.2646125,46.651163520468096L163.32215625,44.839656700368835L163.48365,43.1983534252643L163.76060249999998,40.52189273832521L163.76320125,38.29514405984705L163.81517625,42.44844233533292L163.89462375,40.30951427873185L164.03607,38.443372796101386L164.11588875,36.36647360940419L164.17788750000003,35.25198094860678L164.67350624999997,38.97367055505313L165.07297125,36.68979181131541L165.429,35.23621715376089L165.7519875,33.50630465382144L165.96285749999998,32.3413304951148L165.97139625,37.14536352498826L166.42172250000002,41.272169048928106L166.4647875,38.7941011221324L166.6890225,37.37096071337551L166.7454525,43.01938198065445L166.79371500000002,47.248691008622885L166.83343875,45.56615447960768L167.26334625,43.29237881436177L167.48349750000003,47.45666277492848L167.48386875,45.86767539365842L167.53101750000002,43.88679370329161L167.55217875,42.06830209018203L167.64833249999998,39.759312588125326L167.85957375,43.50067491222906L168.01624125,41.895352492417274L168.12279,40.07339055947717L168.36039000000002,38.11048962695998L168.36447375,42.64615044809052L168.53005124999999,46.27097062263747L169.01638874999998,43.905202583462454L169.40805749999998,47.26755246355701L169.6931775,50.86567590655855L169.7228775,48.59210351810343L170.03955375,44.94721860574621L170.2040175,42.398043711724334L170.75012625,40.50656362905638L170.79356249999998,37.807376530589885L171.18671625000002,35.78338178001418L171.41280749999999,34.74413081035189L171.46812375,34.08582464547184L172.14305625000003,32.708261158498594L172.40515875,31.171951086175532L172.56479625,30.31293663290117L172.58187375,29.060507013800514L172.91674125,28.725772620578226L173.18812499999999,28.14419774761081L173.66963625,33.28585914088824L174.66087375,31.968135705873067L174.8342475,30.526125087643457L174.89253374999998,30.450312802093407L174.93188625,30.18441518015696L175.22554499999998,29.211497509448748L175.24076625,36.101926305845346L175.34397375,34.90022111073792L175.4564625,33.99466244396519L176.0534325,33.1661560013788L176.09352750000002,38.435658111490696L176.12694000000002,43.30654326492868L176.4825975,41.718116087309305L176.69718,45.89488717467558L176.80113,50.42648258994751L177.1597575,47.97189679171587L177.24031875,45.758011139556686L177.328305,43.34321106319869L177.33647249999999,41.70369404492641L177.69361500000002,39.83660489207298L178.21967625,37.17215833108833L178.38970875,35.666665437607016L178.50776625,33.85345530166579L178.92133875,32.055183432213504L179.235045,31.89888664442952L179.7585075,31.976140213698898L180.31464,30.121804299018436L180.54741375,29.489098092662218L180.60013125,34.16814943942365L181.16591625,32.98195304319334L181.2316275,37.55811995473358L181.5375375,44.057856227169665L181.93440375,48.36136775663132L182.3290425,50.973122381986606L182.33312625,47.730551393962344L182.51578125,45.042995883995495L182.59745625,43.418727423525645L182.69026875,42.48495774993353L183.00880125,47.79025199765398L183.15470249999998,49.14235602348323L184.242465,45.80528366837962L184.47449625000002,43.326332441259865L184.7637,41.817974507105276L184.96677375000002,40.874235085569545L185.27825249999998,38.406240889582364L185.3480475,39.63340469037717L185.6212875,37.74023253450212L185.6806875,36.912373108130595L185.7905775,35.27375890522771L185.91531750000001,33.901085001835234L186.07347,33.16678018425145L186.09314625000002,32.718743996270646L186.29510625,31.52880956420777L186.29881875,29.609819455129326L186.31069875,29.123950348361536L186.35153624999998,28.527324090555215L186.4900125,28.609125067730176L186.85123875000002,27.976348682434566L186.96409874999998,27.53017103726589L187.09180875,26.830774024568875L187.2681525,26.46190279015049L187.331265,25.66409374980034L187.40997,25.16075034074524L187.48125,24.625254037662636L187.91858249999999,23.95153858785843L187.97983875,23.74702209305138L188.26978499999998,23.98154933015738L188.364825,29.451508299097373L188.4383325,35.043059647461526L188.53931250000002,40.83405875876953L188.62432875,39.379551525296314L188.65477125,38.50732062247025L188.658855,36.76742483341656L188.72493749999998,41.12167711522034L188.91687375,38.920386513770865L188.97627375,37.5300401013377L189.14742,36.32019765780199L189.24505875000003,41.54975771386385L189.50344875,39.65466950700035L189.65269124999998,37.73351412769402L190.03322250000002,37.009821800879536L190.04213249999998,41.72648288229234L190.07406,45.70355132636073L190.31388750000002,43.5286263913042L190.61645625000003,41.01200371189057L191.50003124999998,39.60939858824268L191.57205375,38.88026748011593L191.67600375,37.62205147516378L191.68342875,36.43581496647623L191.759535,35.2934411070705L191.97857249999998,34.236147507314904L192.20317875,39.43292971929419L192.20986125000002,44.05509529577438L192.29859,41.26384110677309L192.54250125000002,45.64351088986626L192.706965,49.71358211974693L192.8116575,46.5200948271361L193.110885,50.649296517445975L193.26272625000001,48.51728748512101L193.40305874999999,51.575092965887464L193.5808875,51.582727114994874L194.00819625,48.150369538470265L194.3976375,45.26020912794076L195.10561125,43.070892866025595L195.11303625,41.26387996492108L195.79465125,38.23348353685811L195.8276925,35.537774020714146L196.214535,36.257881140127104L196.73762624999998,38.54509476888609L197.22582,44.99128832980439L197.29672875,50.547914218874226L197.58036375,52.625313744383206L197.797545,49.97888613842983L197.88998625,53.83068031038364L198.22671,50.8453709572366L198.7100775,47.66387632018342L199.02823874999999,45.5329834696592L199.20681000000002,43.51053988953898L199.31335875,41.13573331095059L199.34788500000002,44.72066203216267L199.51383375,42.248819448679946L199.53610875,40.571547297338725L199.59625125000002,38.75923664457891L199.67347125,37.11372472328509L199.8431325,36.16069472139813L200.19693375,34.766743975716196L200.3732775,39.57415317669018L200.63797875,44.1470529453859L200.74898249999998,43.410042440188825L201.1722075,43.8380494593361L201.41797499999998,42.02121599690555L201.44730375,40.10151053926998L201.61288125,41.83132678248825L201.8033325,39.469210008257285L202.30414875,38.20159587257876L202.69915874999998,36.285011188536544L202.79939625,40.27396248732904L202.81573125,38.8201161130381L202.96942875,42.39128205463869L202.98762,46.88534795895525L203.16025125,45.03683957166395L203.32582875,42.74035586212591L203.45131125,39.900859377650185L203.72306625,38.22788567481821L203.76167625,36.53669640281629L203.85671625,40.1148417497173L203.9224275,38.8099761442559L203.96326499999998,42.83922220288238L204.27957,41.403720495202265L204.3263475,38.469698791838574L204.3530775,37.05899104775166L204.3768375,41.32591579115592L204.80340375,39.22505543065081L205.01613,42.344695974142304L205.20212625000002,41.17013733515442L205.9256925,45.43645597266951L205.96615875,42.123322900688564L206.05748625,39.96853304313224L206.25796125,43.782420040223705L206.30251125,41.94743297350949L206.37713250000002,45.71129735143845L206.4246525,43.127563180782595L206.6934375,41.15962936375065L206.79107625,44.89755798316174L206.805555,42.38252171086396L206.8463925,40.259975751412625L206.87831999999997,44.970157098311475L207.36799875,42.22268548638072L207.375795,46.0741410046132L207.40512375,43.38560071396634L207.71140499999998,46.011459471261475L207.75112875,43.29528604959569L207.95160374999998,47.50996950243096L208.12572,44.10846868517475L208.13871375,41.365853144259106L208.159875,46.62582239662528L208.424205,43.97558036256404L208.519245,42.09502118843793L208.61688375,39.7081639452568L208.66663125,37.88824448851012L208.70672625,36.06553865712565L208.9521225,34.33337633194043L209.02228875,32.7545430496811L209.1184425,31.614535530776045L209.425095,30.018685005042194L209.6099775,29.356466576908225L209.77444125,28.07632505053019L210.06475874999998,26.762265857419138L210.17242125,26.392068943482464L210.1831875,26.23177916557187L210.31683750000002,26.5107168648594L210.31720875,25.45442693845296L210.327975,24.433460946616602L210.36472875,23.797808839120126L210.47610375,22.740236691082842L211.290255,22.492892962334498L211.293225,22.55648875434043L211.40534250000002,27.77402856909194L211.4617725,26.902706191395897L211.71236625,25.738933248560702L211.90430249999997,26.054131482978512L211.90541624999997,25.92855333921469L211.93623,31.801580983732542L211.9399425,35.81377408600803L212.26255875,39.738268395677636L212.3483175,40.83995259257403L212.52243374999998,42.280540587449586L212.71437,45.875944538151984L212.85210375,44.21224306790961L212.8576725,47.16417993044326L213.11086500000002,44.09087654398373L213.36368625,41.32968237887808L213.65289,39.60372732240419L213.68555999999998,37.51922385721872L213.69781125,41.08808861738396L213.7026375,39.484526254843395L213.92947124999998,38.11292080168744L213.9833025,42.059594219216805L214.01968499999998,39.50979969684871L214.5208725,43.61622446518132L215.04322125,41.280909247841485L215.2158525,39.03825075713935L215.3108925,37.93152509897565L215.69328000000002,41.173945107563014L215.7014475,44.465741188891315L215.7252075,42.07899592742406L216.09682875,44.4707709726124L216.21265874999997,47.19963613827318L216.6934275,44.00991660403571L216.92360250000002,47.33614427673584L216.93362624999997,45.19151367038621L217.27294874999998,43.21411829351219L217.35165375,40.7730312889029L217.43258624999999,38.55825699040463L217.66201875000002,37.541713435093236L217.86026625,35.915502244346186L217.9467675,40.38197895603392L218.15615250000002,37.65893837854576L218.15875125,35.98639116806285L218.5021575,35.222629566776924L218.68666875,38.78696024129866L218.7456975,36.520260140892276L218.85521625,34.657821912796365L218.91610125,38.07152554283194L219.03935625,36.52600141523683L219.07351125000002,41.817855127456546L219.4436475,39.76400044444024L219.91847625,37.754280013382086L220.1267475,36.10960556952157L220.19060249999998,39.49169257421492L220.6821375,42.99024369893891L221.44023,41.33019506321076L221.58167625,39.308871457942956L221.65369875000002,36.963983052208675L221.854545,34.877562783050855L221.91357375,32.43889433869527L222.008985,31.38915485948533L222.04796625,30.807293112812058L222.0966,29.954833419973923L222.10551,32.12397689813208L222.19052624999998,31.688727774428664L222.37578000000002,29.820735084702044L222.81348375000002,28.679705111736837L222.82833374999998,27.637006974307596L223.01618625,27.549666177215144L223.060365,32.65413326495975L223.2452475,31.07686469205613L223.259355,36.394489409232285L223.44683625000002,39.910338544393724L223.9832925,37.917688675201276L223.9907175,35.70487330325174L224.06571,34.123143515128035L224.73878625,33.18197374718107L224.7941025,31.52244993464906L224.90473500000002,35.527828218030926L225.26670375,34.239440991233394L225.27078749999998,32.5901870340604L225.35060625,36.96736646167068L225.35283375,34.97999981498043L225.37028249999997,33.7882872393139L225.95648625,32.598034778810224L225.988785,30.73608651681927L225.988785,34.5380668097087L226.8716175,33.395822593860586L226.8864675,38.08913241559897L226.8879525,36.4316446980695L226.99969875,40.93709657516677L227.0988225,44.45255770055673L227.173815,41.78837214708868L227.2398975,40.423032098604715L227.29075875,38.19321950676879L227.30894999999998,36.80271742826686L227.33530875,34.61549658440082L227.3898825,33.394974378702095L227.54246625000002,32.04859589835144L227.60632125,31.636289498475104L227.75148,30.56900044033381L227.76298874999998,34.879920047222946L227.80085624999998,33.452823332330425L228.0343725,32.584776285265086L228.18213,31.18484727124052L228.41675999999998,31.015465233587037L228.50400375,29.963599483282184L228.66624,29.10839350921458L228.77575875,28.505219746672037L228.8644875,27.392365269912197L229.07795625000003,25.907565004779233L229.91289749999999,25.92498154986843L230.2514775,25.972049062170218L230.69437875000003,24.87693889559465L230.80352625,25.00239717975869L230.87888999999998,30.03582905504017L230.9984325,29.648618069440612L231.33144375,34.1604804037537L231.4053225,38.23489617824998L231.64477875,36.1852486493968L231.78214125,33.81778403923532L231.84785250000002,32.94221979459609L232.350525,36.73014823518914L232.41549375,34.601248829150705L232.9378425,38.44612951296886L233.27345250000002,36.72410288282152L233.54112375,34.27489210974585L233.5615425,32.693218372055306L233.7679575,31.139496907164236L234.04416750000001,30.4598736455424L234.34785000000002,28.770302649745116L234.65264625,28.721569966034565L234.65970000000002,27.552021694842672L234.70462125,26.720908205080782L234.89433,25.85983722099848L235.05136875000002,25.185644252944385L235.088865,25.358820816245075L235.16200124999997,30.53626464110164L235.58485499999998,33.07377931425082L236.202615,31.629539823639085L236.48290875,30.22708054865521L236.511495,29.44827669039264L236.90539124999998,28.753504881600318L237.20499,28.143106354412655L237.40286625000002,27.756148282011992L237.50681625,26.72794931684789L237.5740125,25.618494137360376L237.96531000000002,25.054906015128257L238.36588874999998,24.26446404991564L238.57824374999998,29.515096810246515L238.68516375000002,28.25238624944367L238.75236,27.172747774471393L239.01372,25.78129078092492L239.05641375,24.60275315093513L239.23721250000003,23.94934923476741L239.34933,22.992256884184087L239.43360375,23.11462602695988L239.62442625,22.26842766289392L239.92142625,22.94851373397197L240.4653075,22.686199962590667L240.5321325,28.08205312121706L241.01067375,27.200678192396108L241.15471875,26.612020612239952L241.2285975,31.50101888202264L241.28428499999998,30.92240808268758L241.2865125,29.43492735393894L241.2954225,29.191301559724604L241.78138875000002,28.241451507163116L242.10289125,27.47648393387426L242.92929375,26.88520508219998L243.03250125,26.029123342639323L243.333585,25.818692697828524L243.34583625000002,25.07586605238298L243.52329375,24.22762975406434L243.7516125,24.608084292696L243.99923625,23.748801921078428L244.19488499999997,22.969222043737616L244.59323625,22.413528542453978L244.75213125000002,21.83514198808303L244.791855,22.053307651160875L244.99344375,21.568153194812933L245.2351275,20.442670612845575L245.33870624999997,20.36431767945584L245.4445125,20.45561302332665L245.69139375,20.893959154640065L246.02032125,20.001128952241054L246.31286625,18.97287859712576L246.40642125000002,18.917417506560792L246.49997625,19.209383624208293L246.62583,25.764068430596556L246.69710999999998,25.207297055066164L246.79846125,24.166527829295905L246.80885625,30.023473056293234L247.200525,29.44840500612221L247.2027525,28.88720645802461L247.2770025,27.59928110902741L247.98311999999999,26.529132896631936L248.08744125,31.433474731742045L248.18916375,29.90659108651845L248.25153375000002,29.164372756326443L248.79912750000003,27.875751180679835L248.90679,27.08901392271927L248.9639625,26.897111392577646L249.00480000000002,25.394145836990354L249.40983375,25.350724792284076L249.67490625000002,24.559323316124853L250.0420725,24.435380028701825L250.76489625,24.468225014897655L251.00917875,29.023314312157517L251.316945,28.89981597812719L251.32845375000002,28.760610350773444L251.56271249999998,28.077338835959765L251.58238874999998,27.85134868536114L251.58610125,27.254450550397866L251.69079374999998,26.526339253031058L251.78806125,25.37306222208483L251.79251624999998,25.4329653177649L252.43255125,30.151873431417737L252.60778125,29.662637735353247L253.1279025,28.403206747288078L253.28865374999998,27.391328420494556L253.36550250000002,26.862386003772937L253.45683,26.81301265084962L253.8347625,31.71547925871123L253.87077374999998,36.138853050892564L253.91012625,33.97475791129579L253.93537125,33.08982619626831L253.93982625,31.90252937201674L254.0241,34.89415476341093L254.384955,33.549215252297245L254.63332125,33.04483205714563L254.96521875,32.39673089227233L255.1519575,38.13761560490481L255.23548875,36.468214260827544" style="fill: none;" fill="none"></path></g></g></g></g><g opacity="0.2"><g><g><g><path stroke="rgb(255, 112, 67)" stroke-width="2px" d="M23.26883625,128.76381918770926L23.31561375,178.639049508231L23.32081125,143.90699733189174L23.38095375,200.99623391287665L23.4295875,116.35440618242536L23.56583625,122.11529218401228L23.5869975,155.84320024762835L23.725102500000002,114.19925393240793L23.73809625,96.3955405834743L23.78710125,113.7003553227016L23.834249999999997,176.34582628522602L23.90961375,189.24809967041014L23.915925,154.97813991001675L23.92891875,116.73861315046038L24.162435000000002,162.70560019356864L24.25636125,151.2498358808245L24.292001250000002,102.81482368469239L24.458321249999997,141.03315104893275L24.52885875,116.3245815713065L24.5760075,151.19755214146204L24.589743749999997,217.5698050362723L24.59419875,107.6961749594552L24.726363749999997,153.2620942905971L24.75792,118.30960042681012L24.790961250000002,112.46666780744279L24.821403749999998,175.43604060581754L24.9324075,158.243221043178L24.9606225,125.61919784545898L25.086105,122.53303351266044L25.09353,120.96260375976563L25.13919375,112.22894675118582L25.1462475,174.96264338902066L25.19488125,125.30565745762418L25.205276249999997,101.34680655343193L25.2977175,112.40320273263113L25.62404625,140.65153878348215L25.71091875,157.06296125139508L25.713517500000002,171.7225794328962L25.748414999999998,104.7758941105434L25.84828125,164.5297011893136L25.87278375,199.72574406215125L26.051355,115.31814563206264L26.05878,102.9946249989101L26.14750875,130.90485972813198L26.1872325,151.66862280709404L26.36580375,112.53635823931015L26.4322575,90.82641274860929L26.832093750000002,113.22958560398646L27.13800375,91.94698545864651L27.153225,118.8180290222168L27.218565,80.24319820404052L27.233415,101.54398562295096L27.56048625,118.12918853759766L27.601695000000003,82.44432057789393L27.73942875,86.36028502464295L27.821475,68.01566613333566L27.907976249999997,73.9869873373849L28.2187125,97.30654114314488L28.33194375,63.6855010659354L28.52276625,111.92423413957869L28.9240875,75.06473612104143L29.45014875,79.12434894561768L29.8061775,69.43533112662178L30.10280625,92.41999756949288L30.25724625,87.68812184163501L30.6437175,102.06124392373222L31.44970125,106.43735451834543L32.585355,95.15467567716325L32.9766525,104.69894815717424L33.27291,99.36558908190045L33.59849625,103.44147426060267L33.64416,114.31511463710241L33.68017125,113.48684313092913L34.71336,106.64643738882883L35.782931250000004,96.87222844260081L36.18016875,95.97929000309536L36.300453749999996,99.87170463017056L36.578148750000004,63.50939696175712L36.603393749999995,79.27996358054024L36.7411275,54.47887704031809L37.563075000000005,53.208773018973204L37.87306875,128.27936410086494L38.1355425,123.42816539219447L39.23629875,65.47068538120814L39.79168875,34.31986293247767L40.6318275,78.39098857334682L40.7031075,59.71815065656389L40.788866250000005,115.74822578430177L40.90284,54.50691526140485L42.40974375,119.9903580910819L42.638062500000004,102.84803009033203L42.837052500000006,105.74441845485143L43.11066375,62.21935327802386L43.250625,39.889394923618866L43.270301249999996,40.03013776506697L43.498991249999996,79.2910629272461L43.59477375,46.13517392839704L44.1884025,43.368167659214556L44.33281875,65.63045925685338L44.816186249999994,80.915586441585L45.18520875,39.87693263462612L45.213795,91.47411706924439L45.248321250000004,109.06814951215473L45.76287375,78.05708025251116L45.9629775,105.92989049639021L45.967803749999995,98.59064401899064L46.024976249999995,113.43203606741768L46.339425,144.76646700177875L46.3446225,121.68844142368862L46.45933875,55.136870465959824L46.4693625,103.23171425955636L46.511685,103.86336518423897L46.9594125,134.6050290788923L47.23228125,116.43735178266253L47.346255,103.13162915366037L49.86036,93.23138325282504L50.70384,127.9639254324777L50.9644575,46.60614427839007L51.59966625,123.23707567487445L53.540189999999996,123.88834795270648L54.87483375,74.58848858969553L55.48368375,121.27904944283621L55.83897,113.33334862845284L55.85493375,110.47479855128698L56.77340625,99.48407921382359L57.702645,119.1871963609968L58.18489875,108.98461166381837L58.6575,67.75032548086983L58.83755625,139.63419158935548L58.871711250000004,113.52281979152134L58.8795075,129.48461406162806L59.73449625000001,105.14036976405554L60.731302500000005,75.82188480377197L61.14339,112.4429161507743L61.380990000000004,122.439940599714L61.613021249999996,111.56320972987585L61.84393875000001,133.53160544259205L62.0336475,125.87187750680106L63.577305,40.04651622227261L63.74622375,106.97169734409879L63.753648749999996,45.47249267578125L64.37215125,69.93904874529157L65.04634125,129.10740025111608L65.142495,103.50353491646904L65.76768,100.38659104483467L66.01122,115.79424365452357L66.05762625,112.35748966761997L66.0773025,73.43839679718019L66.57514875,111.66514971051897L67.27903875,131.53118041992187L67.55970375,109.13962633405413L67.8593025,109.64520557948521L68.3285625,43.655444641113284L68.3538075,105.35292316981725L69.00906375,124.50629614693779L69.04767375,111.3460649544852L69.18503625,112.51863709586007L69.91639875,111.0285968235561L70.0600725,111.77828838893345L70.18852500000001,48.936191057477686L70.50965624999999,111.63971583775111L70.56274499999999,76.01274977547781L70.64887499999999,56.20102840968541L70.91506125,112.82465766906738L70.96109625,111.6572459956578L71.3742975,56.958920778547004L71.48455875,110.96190621512278L71.51574375,108.67926050458635L72.5028975,47.76014066423689L72.93540374999999,42.62314270019531L73.5572475,50.88176271711077L73.72913625,40.56390184674944L73.91847375,55.04154360089984L74.8194975,106.61128254481726L75.1707,109.56863966805595L75.22601625,137.01762019566127L75.31882875,111.17538561139787L76.1708475,43.59399745396206L76.66423875,108.5729876599993L76.83538499999999,104.37816671643938L76.85951625,62.4234049333845L77.31095625,109.8353384399414L77.44460624999999,104.40261672428676L78.04269,103.21381370544432L79.0472925,121.86008148193359L79.13565,125.68952296665736L79.17166125,117.34476461138046L80.14285125,104.52071813310894L80.19482625,45.42807985578264L80.990415,57.49484357561383L81.41883750000001,42.16774056570871L82.6736625,99.39607346126012L83.5067475,76.17603952135359L85.04001,104.1345906993321L85.33366875,107.36680013384138L85.56532874999999,131.29330117361886L86.67759375,56.814267556326726L86.99241375000001,111.32254479544504L87.98884874999999,75.27260073525565L88.01780625,101.8794681276594L88.39017,34.978790065220416L88.82564625,106.18972150530134L89.86328999999999,36.19446127755302L89.8833375,77.5451627949306L90.11462625,123.7881056213379L90.57906,103.87927003587996L90.60282,50.53796558925084L91.08581625,76.4898143005371L91.37836125,100.74492333003454L91.50904125,41.43466474260603L91.566585,38.87329010009766L91.88289,40.615302036830364L91.90665,104.98863271440777L91.9623375,106.82292346409388L92.45016,75.95367736816407L92.742705,40.95911845615931L93.01000499999999,40.191657518659326L93.13808625,52.763244258335654L93.44399625,41.919015655517576L93.672315,36.23860401698522L93.77812125,51.547931867327L94.92565499999999,107.2974048614502L95.01624,105.25683043343679L95.5352475,35.920070996965684L95.81294249999999,45.16574288504465L95.94473624999999,31.38873641967773L96.03792,51.995856628417975L96.173055,49.399051273890905L96.91481250000001,119.48551192147391L97.2177525,66.34851860046386L97.28494875,45.124949144635885L97.57081124999999,115.76842588152203L97.81694999999999,103.09352946690149L97.910505,99.42818314688546L98.11135125,101.47869943346296L99.05841,97.69108474731445L99.13414499999999,43.73351721627371L99.33462,32.343907209123884L99.92156625,51.46785683768137L100.06189875,41.78371686662946L100.21782375,66.82810452052524L100.87011,101.13389239719935L100.93433624999999,63.13660861424038L101.21463,95.63960147585188L101.2473,70.24412982395717L101.35013624999999,24.48877212524414L101.628945,37.35267092023577L101.673495,39.774101388113834L102.71448,37.599165736607134L102.81026250000001,105.02594627380373L102.97249875,85.7917186505454L103.99343625,101.51120748792377L104.22880875,101.63011624472483L104.46715125,63.2683249773298L105.50850750000001,36.41897153581892L105.5827575,35.06685947963169L106.07243625000001,93.76967166628157L106.5933,61.06690599714007L106.8643125,42.43009682791574L107.40708,78.38858582087926L107.5251375,39.19168036324638L107.622405,79.06678706032889L107.62574625,36.02712707519532L107.74528874999999,90.63011071750097L107.9127225,92.15421176637922L108.0448875,41.701442609514515L108.36453374999999,29.482399749755864L108.45549,95.89173711776735L108.52788375,102.45596667153494L108.56500874999999,94.19960134506228L108.71759250000001,31.33454668317523L109.00791,92.5508327947344L109.94011875000001,30.795060751778745L110.33364375000001,107.18775215148925L110.49402375000001,61.19787770952498L110.7758025,85.1808046082088L110.86007624999999,45.125539463588176L111.48303375,77.42679612840925L111.70801125,69.66220458984375L111.76147125,23.72883871895926L111.89215125,33.55133710588727L112.23667125,18.37668300083706L112.8414375,22.902723999023436L113.06455874999999,98.90378217969622L113.5646325,32.502185995919355L113.89467375,30.095880039760036L114.01607249999999,47.786384778703955L114.10517250000001,38.4778227015904L114.2566425,58.61926421029227L115.22189250000001,32.619246629987444L115.22857499999999,34.444177158900665L115.53411375,26.59211713518416L115.558245,24.635742252894808L116.17117875,23.62606148856026L116.56618875000001,31.983762490408765L116.61222375,23.214443272181917L116.82532125,34.77616404942104L116.8398,83.72758668627057L116.939295,38.17670216151647L117.75344625,26.529651358468186L117.773865,28.659938834054127L117.97916625,90.65258600234985L118.08831375000001,30.513478611537387L118.60360875,54.57337437220983L119.01384,102.02076849256244L119.279655,90.20850108759744L119.2833675,24.96978175571986L119.34053999999999,96.03305870328631L119.793465,91.439521918978L119.84358375,87.6770885682106L121.0133925,28.80685880388533L121.06573875000001,25.687686767578132L121.2242625,89.38949672085897L121.48896375,29.160278516496923L121.54428,29.050212969098766L121.63709250000001,23.783418143136156L121.65602625,79.80041172572544L121.694265,88.6341126800435L121.85835750000001,27.64474842616489L121.90996125,52.08027609688895L122.080365,36.005620945521756L122.20065,33.56663138253348L122.33875499999999,31.975744955880298L122.3870175,23.83967206682478L122.45866875,27.864871804373614L122.87892375,93.94602752413068L122.94612000000001,28.600015672956204L124.4778975,86.80167275088175L124.54880625,27.328009512765075L124.76227499999999,90.40890520845142L125.15320125,89.03209524903978L125.22596625,25.11702196393693L125.4995775,22.14522517613002L125.742375,23.267409929547988L126.13033125000001,85.95196492603846L126.1381275,90.31534990310668L126.369045,34.02424431937082L126.40505625,34.356597747802745L126.63300375,25.18068767002651L127.1375325,57.482153647286545L127.19730375,25.296220419747495L127.23665625000001,85.5158359336853L127.36065375,25.171408473423543L127.52511750000001,32.13426681518554L127.8473625,79.40982892717635L128.04561,87.21208609444754L128.094615,86.90167116573879L128.28061125,26.02717803955078L128.409435,32.26051790509906L128.85753375,24.393086438860205L129.374685,91.68340153557915L129.3991875,31.028221304757245L129.7273725,75.67590529305593L129.9026025,26.85514088221958L130.43534625,26.87509211948939L131.058675,87.35389008726393L131.08948875,23.361189618791848L131.10285375,86.09786871773855L131.31372375,32.74403928484236L131.468535,103.12719886779787L131.6742075,100.28818622589112L131.82530625,90.89338597706387L132.017985,27.663877846854067L132.1271325,86.96718173912593L132.82099875,39.88178250994001L133.0344675,33.60209296090263L133.12765124999999,19.533384050641743L134.17977374999998,26.772264731270923L134.21170125,29.768237588065013L134.40475125,97.26297618321011L134.435565,51.10867669241768L135.041445,32.36378513881139L135.20331,42.90265679495676L135.22966875,32.10267124720983L135.61131375,96.08693254198349L135.962145,35.86571535382952L135.96845625,39.15078244890485L136.5346125,31.798097534179682L136.7009325,91.9948975099836L136.838295,35.34973029000418L136.98568125,30.953563319614954L137.1271275,90.41377509866442L137.521395,62.91532967703684L137.9527875,97.29245837075369L137.96429625000002,23.758200334821428L138.1339575,80.91150002615791L138.19966875,100.902268409729L138.430215,31.034139927455353L138.51077625,32.918086918422155L138.560895,85.06077815192087L138.661875,91.17406937599182L138.74949,36.577138432094024L138.87942750000002,96.20206258228848L139.30005375,36.364642900739405L139.3219575,36.913114798409595L139.67130375000002,66.98554027012416L139.69580625,29.089525124686098L139.91335875,26.162978406633645L139.93489125,25.1449174281529L139.977585,74.33265380859375L140.2842375,25.13077678135463L140.34549375,29.27461519513812L140.458725,90.4866515166419L140.50773,80.74718300955637L141.00483375000002,29.527507062639504L141.13143,83.4083630316598L141.17338125,23.43080867222377L141.50787749999998,78.92046898433141L141.64895249999998,24.611897997174935L141.65526375000002,83.21185626983642L141.679395,81.94008016041347L142.08665625,29.26422095162527L142.1597925,24.048340170724057L142.86553874999998,79.42846159253801L143.23307624999998,79.56320768083846L143.69862375,53.03176221575055L143.83821375,24.411282152448376L144.04982625,23.579854561941975L144.1274175,84.310137928554L144.33346125,78.8043526676723L144.37726875,42.30964089529856L144.44001,49.541854444231305L144.62415,82.78818763732909L144.87734250000003,35.53235876900809L144.98017875000002,26.17339579990932L145.06965,23.027223423549106L145.17434250000002,23.052217450823093L145.317645,56.00276033673967L145.35514125,32.64158229282925L145.58680125,24.011358424595425L145.80398250000002,22.56925938197544L145.93763249999998,21.147454964774L146.18228625,70.77024483816965L146.44438875,21.814345615931913L146.8286325,78.47988945007324L146.92998375,25.981314501081187L146.93518125,14.374220188685822L147.07328625,25.506914127894802L147.09667499999998,81.09858772822788L147.18094875,29.609630846296046L147.2637375,20.016149204799113L147.3201675,72.06764050074985L147.426345,32.563062155587325L147.50987625,79.82372835976736L148.02665625,27.29340061732701L148.10981625,85.2842428125654L148.17849750000002,82.44538016183037L148.2052275,21.112830636160716L148.29618375,82.19995843342372L148.4962875,74.7140191432408L148.554945,18.148796735491082L148.98596625000002,80.61636996950422L149.0049,22.050357448032923L149.13669375,26.618523297991082L149.95938375,25.069858180454798L150.01618499999998,24.12686030796596L150.29982,15.727825404575901L150.53407875000002,23.984014696393697L150.70559624999999,32.475131639753066L151.3994625,16.71053283691406L151.95670875,38.52687704903739L152.31310875,18.162640293666303L152.51284124999998,22.01491516113281L152.97913125,81.63275403703962L153.07974000000002,20.767930036272315L153.30323249999998,21.887105320521762L153.49442625,75.50546516418456L153.68153625,29.605733969552183L153.73239750000002,72.99596335274832L153.87904125,59.25781376429966L154.00006875,78.7991372190203L154.28890124999998,83.44807403836931L154.4103,16.203622480119982L154.78934625000002,87.22667454447065L154.9010925,87.6356370489938L155.10787875,55.63691691807339L155.1683925,84.88635867527553L155.26417500000002,85.00477742876326L155.3629275,27.147051674979064L155.507715,24.188276628766737L155.51402625,32.97330296107701L155.6183475,79.97540174756732L155.87413875,29.419015699114116L155.96361,19.859263262067515L156.05568000000002,16.569141802106586L156.1455225,21.247701154436378L156.16668375,19.545499093191967L156.17373750000002,80.24735648018972L156.3875775,22.73398537772043L157.0127625,26.237810014997205L157.2874875,76.36841983795166L157.6394325,75.89373973846436L157.68806625,25.006173182896198L157.82914125000002,24.79820728846958L158.17032,23.004235709054125L158.38972875000002,15.05554085867745L158.6729925,14.249273202078678L159.05426625,84.5540754195622L159.19719750000002,26.62692666190012L159.25622625,26.906776428222656L159.27850125,75.43120554787771L159.63564374999999,22.538254132952012L159.66460125,32.500835593087324L159.941925,22.698790021623893L160.06369500000002,22.095468619210386L160.0985925,31.727378867013112L160.2352125,85.67694019726345L160.45016625,27.296271187918517L160.660665,26.943245021275107L160.80879375,83.64387473242623L160.93576124999998,28.53042748587471L161.30701125000002,85.26379940169198L161.51119874999998,21.524996730259492L161.5301325,85.90324263300215L161.62554375,23.833298165457588L161.65747125,27.13315410069057L161.8063425,86.64748411723545L162.36358875,27.02612117222378L162.888165,82.59100470951624L163.2646125,22.816761213030126L163.32215625,28.536095319475457L163.48365,28.42662394932338L163.76060249999998,16.433746555873334L163.76320125,18.25440595354353L163.81517625,79.828126814706L163.89462375,21.059161769321985L164.03607,21.648099452427445L164.11588875,17.67438092912946L164.17788750000003,25.22154700142997L164.67350624999997,72.46887701307024L165.07297125,16.134883117675777L165.429,22.154045235770084L165.7519875,17.937092154366635L165.96285749999998,21.856563066755026L165.97139625,80.3816607938494L166.42172250000002,78.41341876438686L166.4647875,16.491489780970984L166.6890225,24.56269703456334L166.7454525,93.85517338616506L166.79371500000002,85.31247226033891L166.83343875,30.423325718470988L167.26334625,22.828397827148443L167.48349750000003,84.93521842002869L167.48386875,31.56678896222796L167.53101750000002,26.058858489990243L167.55217875,25.701877572195873L167.64833249999998,18.978407069614956L167.85957375,77.17293582916261L168.01624125,27.447450714111334L168.12279,23.675733163016194L168.36039000000002,20.444381234305247L168.36447375,83.46709783826556L168.53005124999999,78.89435219355991L169.01638874999998,22.613290230887273L169.40805749999998,77.52870138440814L169.6931775,83.24878689357212L169.7228775,28.12995202200753L170.03955375,12.14325439453126L170.2040175,19.45546966552735L170.75012625,23.483242885044643L170.79356249999998,13.514692644391735L171.18671625000002,17.567429024832588L171.41280749999999,25.390872083391464L171.46812375,28.161069161551342L172.14305625000003,20.31018977573939L172.40515875,17.345160435267864L172.56479625,22.58180655343192L172.58187375,17.788640441894525L172.91674125,25.71316308157785L173.18812499999999,22.91002389090402L173.66963625,79.56081168038504L174.66087375,20.108624790736606L174.8342475,17.54802952357701L174.89253374999998,29.768002232142866L174.93188625,27.79133658272879L175.22554499999998,20.455238473074772L175.24076625,98.11578547341483L175.34397375,24.08487435477121L175.4564625,25.84463444301061L176.0534325,25.70959801810129L176.09352750000002,85.86117710249765L176.12694000000002,87.14450964587076L176.4825975,27.422271488734644L176.69718,83.48582696097239L176.80113,91.21084132739475L177.1597575,25.880624607631137L177.24031875,25.833040270124172L177.328305,21.61001037597656L177.33647249999999,26.948040880475723L177.69361500000002,23.0328025163923L178.21967625,13.192139282226554L178.38970875,22.117229396275114L178.50776625,17.534564078194755L178.92133875,15.870736607142849L179.235045,30.4922155543736L179.7585075,32.671422337123325L180.31464,13.432781066894538L180.54741375,23.79474223545619L180.60013125,76.27961156027658L181.16591625,22.306185477120533L181.2316275,78.7436221585955L181.5375375,102.55548267909458L181.93440375,87.09297152178628L182.3290425,74.47891401018416L182.33312625,18.54741250174386L182.51578125,20.85499629429408L182.59745625,28.80031127929687L182.69026875,34.081030687604624L183.00880125,95.53790022713797L183.15470249999998,61.31129225594657L184.242465,15.771632472446978L184.47449625000002,21.01577139718191L184.7637,28.242753099713997L184.96677375000002,32.38058029174805L185.27825249999998,16.194293125697545L185.3480475,50.67787889753069L185.6212875,20.70168313162667L185.6806875,29.461638270786825L185.7905775,20.526231079101564L185.91531750000001,21.547019871303018L186.07347,26.558036825997487L186.09314625000002,28.68641830444336L186.29510625,20.819399675641733L186.29881875,12.33890847342354L186.31069875,24.751128387451168L186.35153624999998,23.157687770298548L186.4900125,29.34533386230469L186.85123875000002,22.281361214773987L186.96409874999998,23.514572230747763L187.09180875,20.536200910295765L187.2681525,23.142061680385055L187.331265,18.483812386649003L187.40997,20.630659659249446L187.48125,19.80578730991909L187.91858249999999,17.88809953962054L187.97983875,21.90637363978795L188.26978499999998,26.09229446411133L188.364825,78.6811390195574L188.4383325,85.36702178273882L188.53931250000002,92.95305076054164L188.62432875,26.288986424037397L188.65477125,30.657242497035444L188.658855,21.1083627319336L188.72493749999998,80.30994765145438L188.91687375,19.10877110072544L188.97627375,25.016922389439177L189.14742,25.431615665980747L189.24505875000003,88.61579821842058L189.50344875,22.598875645228798L189.65269124999998,20.44311571393694L190.03322250000002,30.49659085954939L190.04213249999998,84.17643261500767L190.07406,81.49716732297624L190.31388750000002,23.954301975795204L190.61645625000003,18.362399597167972L191.50003124999998,26.98595247541156L191.57205375,32.31808750697545L191.67600375,26.298107430594314L191.68342875,25.759686388288223L191.759535,25.01207637241909L191.97857249999998,24.720505109514512L192.20317875,86.2039696271079L192.20986125000002,85.65458548409599L192.29859,16.142553405761724L192.54250125000002,85.0605389377049L192.706965,86.34422318867274L192.8116575,17.778709193638385L193.110885,87.81211173023497L193.26272625000001,29.32920619419643L193.40305874999999,79.09534229278563L193.5808875,51.6514344569615L194.00819625,17.25915134974889L194.3976375,19.24876543317522L195.10561125,23.367046508789056L195.11303625,25.000763854980466L195.79465125,10.95991568429129L195.8276925,11.276388375418527L196.214535,42.73884521484376L196.73762624999998,59.130017427716936L197.22582,103.00703037806919L197.29672875,100.55754722050257L197.58036375,71.32190947396414L197.797545,26.16103768484934L197.88998625,88.496827857968L198.22671,23.977586778913235L198.7100775,19.030424586704807L199.02823874999999,26.354947814941408L199.20681000000002,25.308547668457027L199.31335875,19.762474103655133L199.34788500000002,76.98502052307128L199.51383375,20.00223619733538L199.53610875,25.47609793526786L199.59625125000002,22.44844076974052L199.67347125,22.304117431640623L199.8431325,27.583424704415467L200.19693375,22.221187264578678L200.3732775,82.8408359854562L200.63797875,85.30315086364746L200.74898249999998,36.776947893415176L201.1722075,47.69011263166155L201.41797499999998,25.6697148350307L201.44730375,22.82416142054967L201.61288125,57.39967297145298L201.8033325,18.210159040178564L202.30414875,26.793068651471824L202.69915874999998,19.03574903215682L202.79939625,76.17452417646136L202.81573125,25.735498744419637L202.96942875,74.53177552904403L202.98762,87.33194109780449L203.16025125,28.40026408604212L203.32582875,22.07200247628348L203.45131125,14.345391017368868L203.72306625,23.171122349330354L203.76167625,21.31599295479911L203.85671625,72.31814987182618L203.9224275,27.066185695103243L203.96326499999998,79.10243673052106L204.27957,28.48420512608119L204.3263475,12.063503461565281L204.3530775,24.362621350969587L204.3768375,79.72823848179408L204.80340375,20.317312186104903L205.01613,70.4214608655657L205.20212625000002,30.599109584263395L205.9256925,83.83332371030535L205.96615875,12.305125252859938L206.05748625,20.575424325125553L206.25796125,78.1074030140468L206.30251125,25.432549373081752L206.37713250000002,79.5860767527989L206.4246525,19.87395564488002L206.6934375,23.44822501046316L206.79107625,78.53891555786132L206.805555,19.747195260184156L206.8463925,21.157062116350446L206.87831999999997,87.36178922040122L207.36799875,17.49544097900391L207.375795,80.73724066870552L207.40512375,19.18873809814453L207.71140499999998,69.64418828691754L207.75112875,18.849725254603786L207.95160374999998,85.44212057794844L208.12572,13.494961329868856L208.13871375,16.682313276018416L208.159875,93.96554566792081L208.424205,20.123402056012836L208.519245,25.169988621303006L208.61688375,18.22644875662668L208.66663125,21.50896937779017L208.70672625,19.66118617466518L208.9521225,18.743915405273444L209.02228875,18.5450435093471L209.1184425,21.35446786063059L209.425095,15.656030273437509L209.6099775,23.396500723702577L209.77444125,16.555051313127784L210.06475874999998,14.935733119419634L210.17242125,23.06029671805246L210.1831875,24.789171164376388L210.31683750000002,29.021156158447273L210.31720875,15.947817600795196L210.327975,15.244767020089288L210.36472875,18.07693987165179L210.47610375,13.222087358747213L211.290255,20.266799403599336L211.293225,23.128850882393966L211.40534250000002,74.73188690185548L211.4617725,19.060804792131705L211.71236625,15.264976763044093L211.90430249999997,28.89091559273857L211.90541624999997,24.7983500453404L211.93623,84.65882978439332L211.9399425,71.92351200648716L212.26255875,75.05871718270438L212.3483175,50.75511036464147L212.52243374999998,55.24583254132953L212.71437,78.23458009447371L212.85210375,29.238929835728232L212.8576725,73.73161169324602L213.11086500000002,16.43114606584821L213.36368625,16.478934892926894L213.65289,24.070131814139234L213.68555999999998,18.758692670549674L213.69781125,73.20787145887103L213.7026375,25.052464991978226L213.92947124999998,25.768471723284033L213.9833025,77.57965497698103L214.01968499999998,16.56164899553571L214.5208725,80.5740473801749L215.04322125,20.263072291782915L215.2158525,18.854324340820312L215.3108925,27.970994175502238L215.69328000000002,70.35572518484933L215.7014475,74.09190592084613L215.7252075,20.598288574218753L216.09682875,65.99674637930734L216.21265874999997,71.75942262922015L216.6934275,15.30244079589843L216.92360250000002,77.27219333103724L216.93362624999997,25.889838213239404L217.27294874999998,25.417559901646197L217.35165375,18.803248247419077L217.43258624999999,18.625288303920197L217.66201875000002,28.392821437290735L217.86026625,21.279601527622773L217.9467675,80.58026936122349L218.15615250000002,13.151573181152344L218.15875125,20.933466273716512L218.5021575,28.348775155203686L218.68666875,70.86593631199429L218.7456975,16.119959237234927L218.85521625,17.895877859933034L218.91610125,68.7948582131522L219.03935625,22.61628426688058L219.07351125000002,89.44453853743417L219.4436475,21.27930829729353L219.91847625,19.666796133858806L220.1267475,21.307535574776775L220.19060249999998,69.93047561645507L220.6821375,74.47720382145474L221.44023,26.38975734165737L221.58167625,21.116959010532927L221.65369875000002,15.859987400599891L221.854545,16.09978036063057L221.91357375,10.490878339494971L222.008985,21.94149954659598L222.04796625,25.57053739275252L222.0966,22.282696184430804L222.10551,51.64626820155552L222.19052624999998,27.771485661097934L222.37578000000002,13.008800877162392L222.81348375000002,18.410435355050215L222.82833374999998,18.252723737444196L223.01618625,26.76359900338309L223.060365,78.59433705466134L223.2452475,16.881447535923556L223.259355,84.25311186381748L223.44683625000002,71.55298076084681L223.9832925,19.9838398524693L223.9907175,15.789534955705921L224.06571,19.887575422014507L224.73878625,24.711445835658477L224.7941025,16.58673562186105L224.90473500000002,71.57623276846749L225.26670375,22.64395595005581L225.27078749999998,17.746901419503356L225.35060625,76.36198131016323L225.35283375,17.093699994768414L225.37028249999997,23.06287405831474L225.95648625,21.885762634277338L225.988785,13.978552158900666L225.988785,68.75588944571358L226.8716175,23.115624651227684L226.8864675,80.32892081124443L226.8879525,21.514255240304124L226.99969875,81.4861634690421L227.0988225,76.09170782906669L227.173815,17.81070216587611L227.2398975,28.134971662248883L227.29075875,18.124906180245542L227.30894999999998,24.28819872174944L227.33530875,14.930508989606583L227.3898825,22.410274527413502L227.54246625000002,19.931189575195315L227.60632125,27.925531899588453L227.75148,20.963398917061937L227.76298874999998,73.67819650922503L227.80085624999998,20.60895289829799L228.0343725,24.772352861676897L228.18213,18.58548614501953L228.41675999999998,29.49102689470564L228.50400375,20.496807730538496L228.66624,21.411539742606024L228.77575875,23.076655883789066L228.8644875,17.376674979073666L229.07795625000003,12.544362618582598L229.91289749999999,26.081730455671032L230.2514775,26.395656672886435L230.69437875000003,15.020947396414618L230.80352625,26.131521737234937L230.87888999999998,75.33671593257358L230.9984325,26.163719199044362L231.33144375,74.76724141257151L231.4053225,74.90463814871651L231.64477875,17.73842088971818L231.78214125,12.510602547781817L231.84785250000002,25.062141592843183L232.350525,70.82150420052665L232.41549375,15.441154174804682L232.9378425,73.05005566733224L233.27345250000002,21.225863211495533L233.54112375,12.231995152064728L233.5615425,18.45815473284041L233.7679575,17.156003723144533L234.04416750000001,24.343264290945868L234.34785000000002,13.564163687569751L234.65264625,28.282975812639513L234.65970000000002,17.026087254115524L234.70462125,19.240886797223766L234.89433,18.110198364257823L235.05136875000002,19.117907540457594L235.088865,26.917409885951443L235.16200124999997,77.13325906481062L235.58485499999998,55.91141137259347L236.202615,18.631384408133375L236.48290875,17.60494707380022L236.511495,22.439041966029578L236.90539124999998,22.50055860246931L237.20499,22.64951960972377L237.40286625000002,24.273525630405974L237.50681625,17.474158630371104L237.5740125,15.633397521972652L237.96531000000002,19.982612915039066L238.36588874999998,17.150486363002234L238.57824374999998,76.7707916532244L238.68516375000002,16.88799120221819L238.75236,17.45600149972099L239.01372,13.258177839006697L239.05641375,13.995914481026785L239.23721250000003,18.06871398925782L239.34933,14.378425728934145L239.43360375,24.215948311941965L239.62442625,14.652642386300231L239.92142625,29.06928837367467L240.4653075,20.325376020159034L240.5321325,76.64473154885428L241.01067375,19.26830383300781L241.15471875,21.31410239083427L241.2285975,75.50200331006732L241.28428499999998,25.714910888671866L241.2865125,16.047600795200886L241.2954225,26.998669411795486L241.78138875000002,19.692801034109937L242.10289125,20.59177577427455L242.92929375,21.56369541713169L243.03250125,18.3243876865932L243.333585,23.924816894531254L243.34583625000002,18.390426243373323L243.52329375,16.59350306919642L243.7516125,28.032175140380865L243.99923625,16.015260576520642L244.19488499999997,15.953003147670211L244.59323625,17.412287030901226L244.75213125000002,16.62966299874441L244.791855,24.01679861886161L244.99344375,17.201763087681364L245.2351275,10.313327375139508L245.33870624999997,19.659141278948095L245.4445125,21.27727111816407L245.69139375,24.839074336460662L246.02032125,11.965657130650111L246.31286625,9.718625401088168L246.40642125000002,18.418267691476L246.49997625,21.837078683035706L246.62583,84.75623168809074L246.69710999999998,20.196354675292973L246.79846125,14.799604797363273L246.80885625,82.73598009926931L247.200525,24.27279255458286L247.2027525,23.83641952514648L247.2770025,16.007952968052447L247.98311999999999,16.897798985072555L248.08744125,75.57255124773299L248.18916375,16.16463827950613L248.25153375000002,22.484407784598208L248.79912750000003,16.278156999860496L248.90679,20.008378601074227L248.9639625,25.169988621303006L249.00480000000002,11.867455836704798L249.40983375,24.95993538992746L249.67490625000002,17.43671003069196L250.0420725,23.319890441894525L250.76489625,24.76382989065988L251.00917875,70.0191179874965L251.316945,27.788330971854073L251.32845375000002,27.507759704589834L251.56271249999998,21.92789520263671L251.58238874999998,25.8174373299735L251.58610125,21.88236733572824L251.69079374999998,19.9733375767299L251.78806125,14.993568943568635L251.79251624999998,25.972093178885334L252.43255125,72.62204645429338L252.60778125,25.259516470772876L253.1279025,17.068327854701458L253.28865374999998,18.284423479352675L253.36550250000002,22.101904253278455L253.45683,26.368652474539616L253.8347625,75.83767872946602L253.87077374999998,75.94921718052454L253.91012625,14.497901654924657L253.93537125,25.125440761021206L253.93982625,21.21685795375279L254.0241,61.818783285958425L254.384955,21.444759652274L254.63332125,28.505383300781254L254.96521875,26.563820408412383L255.1519575,89.80557801859719L255.23548875,21.44360216413226" style="fill: none;" fill="none"></path></g></g></g></g></g></g><g transform="translate(51, 177)" clip-path="url(#clip_1)"><clipPath id="clip_1"><rect width="278" height="23"></rect></clipPath><g><g><line x1="0" y1="0" x2="0" y2="5" style="visibility: inherit;" fill="rgb(0, 0, 0)" stroke="rgb(204, 204, 204)" stroke-width="1px"></line><line x1="23.203125" y1="0" x2="23.203125" y2="5" style="visibility: inherit;" fill="rgb(0, 0, 0)" stroke="rgb(204, 204, 204)" stroke-width="1px"></line><line x1="46.40625" y1="0" x2="46.40625" y2="5" style="visibility: inherit;" fill="rgb(0, 0, 0)" stroke="rgb(204, 204, 204)" stroke-width="1px"></line><line x1="69.609375" y1="0" x2="69.609375" y2="5" style="visibility: inherit;" fill="rgb(0, 0, 0)" stroke="rgb(204, 204, 204)" stroke-width="1px"></line><line x1="92.8125" y1="0" x2="92.8125" y2="5" style="visibility: inherit;" fill="rgb(0, 0, 0)" stroke="rgb(204, 204, 204)" stroke-width="1px"></line><line x1="116.015625" y1="0" x2="116.015625" y2="5" style="visibility: inherit;" fill="rgb(0, 0, 0)" stroke="rgb(204, 204, 204)" stroke-width="1px"></line><line x1="139.21875" y1="0" x2="139.21875" y2="5" style="visibility: inherit;" fill="rgb(0, 0, 0)" stroke="rgb(204, 204, 204)" stroke-width="1px"></line><line x1="162.421875" y1="0" x2="162.421875" y2="5" style="visibility: inherit;" fill="rgb(0, 0, 0)" stroke="rgb(204, 204, 204)" stroke-width="1px"></line><line x1="185.625" y1="0" x2="185.625" y2="5" style="visibility: inherit;" fill="rgb(0, 0, 0)" stroke="rgb(204, 204, 204)" stroke-width="1px"></line><line x1="208.828125" y1="0" x2="208.828125" y2="5" style="visibility: inherit;" fill="rgb(0, 0, 0)" stroke="rgb(204, 204, 204)" stroke-width="1px"></line><line x1="232.03125" y1="0" x2="232.03125" y2="5" style="visibility: inherit;" fill="rgb(0, 0, 0)" stroke="rgb(204, 204, 204)" stroke-width="1px"></line><line x1="255.234375" y1="0" x2="255.234375" y2="5" style="visibility: inherit;" fill="rgb(0, 0, 0)" stroke="rgb(204, 204, 204)" stroke-width="1px"></line><line x1="278.4375" y1="0" x2="278.4375" y2="5" style="visibility: inherit;" fill="rgb(0, 0, 0)" stroke="rgb(204, 204, 204)" stroke-width="1px"></line></g><g transform="translate(0, 8)"><text x="0" y="0" dx="0em" dy="0.95em" style="text-anchor: middle; visibility: hidden; font-family: Roboto, sans-serif; font-size: 12px; font-weight: 200;" fill="rgb(33, 33, 33)" stroke="none" stroke-width="1px">-1M</text><text x="23.203125" y="0" dx="0em" dy="0.95em" style="text-anchor: middle; visibility: inherit; font-family: Roboto, sans-serif; font-size: 12px; font-weight: 200;" fill="rgb(33, 33, 33)" stroke="none" stroke-width="1px">0</text><text x="46.40625" y="0" dx="0em" dy="0.95em" style="text-anchor: middle; visibility: hidden; font-family: Roboto, sans-serif; font-size: 12px; font-weight: 200;" fill="rgb(33, 33, 33)" stroke="none" stroke-width="1px">1M</text><text x="69.609375" y="0" dx="0em" dy="0.95em" style="text-anchor: middle; visibility: inherit; font-family: Roboto, sans-serif; font-size: 12px; font-weight: 200;" fill="rgb(33, 33, 33)" stroke="none" stroke-width="1px">2M</text><text x="92.8125" y="0" dx="0em" dy="0.95em" style="text-anchor: middle; visibility: hidden; font-family: Roboto, sans-serif; font-size: 12px; font-weight: 200;" fill="rgb(33, 33, 33)" stroke="none" stroke-width="1px">3M</text><text x="116.015625" y="0" dx="0em" dy="0.95em" style="text-anchor: middle; visibility: inherit; font-family: Roboto, sans-serif; font-size: 12px; font-weight: 200;" fill="rgb(33, 33, 33)" stroke="none" stroke-width="1px">4M</text><text x="139.21875" y="0" dx="0em" dy="0.95em" style="text-anchor: middle; visibility: hidden; font-family: Roboto, sans-serif; font-size: 12px; font-weight: 200;" fill="rgb(33, 33, 33)" stroke="none" stroke-width="1px">5M</text><text x="162.421875" y="0" dx="0em" dy="0.95em" style="text-anchor: middle; visibility: inherit; font-family: Roboto, sans-serif; font-size: 12px; font-weight: 200;" fill="rgb(33, 33, 33)" stroke="none" stroke-width="1px">6M</text><text x="185.625" y="0" dx="0em" dy="0.95em" style="text-anchor: middle; visibility: hidden; font-family: Roboto, sans-serif; font-size: 12px; font-weight: 200;" fill="rgb(33, 33, 33)" stroke="none" stroke-width="1px">7M</text><text x="208.828125" y="0" dx="0em" dy="0.95em" style="text-anchor: middle; visibility: inherit; font-family: Roboto, sans-serif; font-size: 12px; font-weight: 200;" fill="rgb(33, 33, 33)" stroke="none" stroke-width="1px">8M</text><text x="232.03125" y="0" dx="0em" dy="0.95em" style="text-anchor: middle; visibility: hidden; font-family: Roboto, sans-serif; font-size: 12px; font-weight: 200;" fill="rgb(33, 33, 33)" stroke="none" stroke-width="1px">9M</text><text x="255.234375" y="0" dx="0em" dy="0.95em" style="text-anchor: middle; visibility: inherit; font-family: Roboto, sans-serif; font-size: 12px; font-weight: 200;" fill="rgb(33, 33, 33)" stroke="none" stroke-width="1px">10M</text><text x="278.4375" y="0" dx="0em" dy="0.95em" style="text-anchor: middle; visibility: hidden; font-family: Roboto, sans-serif; font-size: 12px; font-weight: 200;" fill="rgb(33, 33, 33)" stroke="none" stroke-width="1px">11M</text></g><line x1="0" y1="0" x2="278.4375" y2="0" fill="rgb(0, 0, 0)" stroke="rgb(204, 204, 204)" stroke-width="1px"></line></g></g></g></g></svg>